%TF.GenerationSoftware,KiCad,Pcbnew,(6.0.1)*%
%TF.CreationDate,2022-02-19T19:16:45+01:00*%
%TF.ProjectId,NANOFC,4e414e4f-4643-42e6-9b69-6361645f7063,rev?*%
%TF.SameCoordinates,Original*%
%TF.FileFunction,Soldermask,Top*%
%TF.FilePolarity,Negative*%
%FSLAX46Y46*%
G04 Gerber Fmt 4.6, Leading zero omitted, Abs format (unit mm)*
G04 Created by KiCad (PCBNEW (6.0.1)) date 2022-02-19 19:16:45*
%MOMM*%
%LPD*%
G01*
G04 APERTURE LIST*
%ADD10R,2.600000X2.600000*%
%ADD11C,2.600000*%
%ADD12R,1.700000X1.700000*%
%ADD13O,1.700000X1.700000*%
%ADD14R,2.000000X2.000000*%
%ADD15C,2.000000*%
%ADD16R,1.600000X1.600000*%
%ADD17O,1.600000X1.600000*%
G04 APERTURE END LIST*
D10*
%TO.C,Pyro 2*%
X160000000Y-67000000D03*
D11*
X163500000Y-67000000D03*
%TD*%
D12*
%TO.C,Master Arm*%
X153000000Y-109000000D03*
D13*
X153000000Y-111540000D03*
%TD*%
D14*
%TO.C,BZ1*%
X192000000Y-111000000D03*
D15*
X187000000Y-111000000D03*
%TD*%
D12*
%TO.C,J3*%
X171200000Y-81000000D03*
D13*
X173740000Y-81000000D03*
X176280000Y-81000000D03*
X178820000Y-81000000D03*
%TD*%
D12*
%TO.C,GND*%
X180600000Y-108000000D03*
D13*
X180600000Y-110540000D03*
X180600000Y-113080000D03*
X180600000Y-115620000D03*
%TD*%
D16*
%TO.C,A1*%
X156210000Y-101590000D03*
D17*
X158750000Y-101590000D03*
X161290000Y-101590000D03*
X163830000Y-101590000D03*
X166370000Y-101590000D03*
X168910000Y-101590000D03*
X171450000Y-101590000D03*
X173990000Y-101590000D03*
X176530000Y-101590000D03*
X179070000Y-101590000D03*
X181610000Y-101590000D03*
X184150000Y-101590000D03*
X186690000Y-101590000D03*
X189230000Y-101590000D03*
X191770000Y-101590000D03*
X191770000Y-86350000D03*
X189230000Y-86350000D03*
X186690000Y-86350000D03*
X184150000Y-86350000D03*
X181610000Y-86350000D03*
X179070000Y-86350000D03*
X176530000Y-86350000D03*
X173990000Y-86350000D03*
X171450000Y-86350000D03*
X168910000Y-86350000D03*
X166370000Y-86350000D03*
X163830000Y-86350000D03*
X161290000Y-86350000D03*
X158750000Y-86350000D03*
X156210000Y-86350000D03*
%TD*%
D12*
%TO.C,P1 Arm*%
X196000000Y-72000000D03*
D13*
X196000000Y-69460000D03*
%TD*%
D12*
%TO.C,V+*%
X177800000Y-108000000D03*
D13*
X177800000Y-110540000D03*
X177800000Y-113080000D03*
X177800000Y-115620000D03*
%TD*%
D10*
%TO.C,Pyro 1*%
X186250000Y-67000000D03*
D11*
X189750000Y-67000000D03*
%TD*%
D10*
%TO.C,Power in*%
X162560000Y-112455000D03*
D11*
X159060000Y-112455000D03*
%TD*%
D13*
%TO.C,P2 Arm*%
X154000000Y-69460000D03*
D12*
X154000000Y-72000000D03*
%TD*%
%TO.C,SIG*%
X175000000Y-108000000D03*
D13*
X175000000Y-110540000D03*
X175000000Y-113080000D03*
X175000000Y-115620000D03*
%TD*%
M02*
