M48
; DRILL file {KiCad (6.0.1)} date Sat Jul  9 15:16:57 2022
; FORMAT={-:-/ absolute / inch / decimal}
; #@! TF.CreationDate,2022-07-09T15:16:57+02:00
; #@! TF.GenerationSoftware,Kicad,Pcbnew,(6.0.1)
; #@! TF.FileFunction,Plated,1,2,PTH
FMAT,2
INCH
; #@! TA.AperFunction,Plated,PTH,ViaDrill
T1C0.0157
; #@! TA.AperFunction,Plated,PTH,ComponentDrill
T2C0.0394
; #@! TA.AperFunction,Plated,PTH,ComponentDrill
T3C0.0512
; #@! TA.AperFunction,Plated,PTH,ViaDrill
T4C0.1181
%
G90
G05
T1
X6.3715Y-4.2913
T2
X6.0236Y-4.2913
X6.0236Y-4.3913
X6.063Y-2.7346
X6.063Y-2.8346
X6.15Y-3.3996
X6.15Y-3.9996
X6.25Y-3.3996
X6.25Y-3.9996
X6.35Y-3.3996
X6.35Y-3.9996
X6.45Y-3.3996
X6.45Y-3.9996
X6.55Y-3.3996
X6.55Y-3.9996
X6.6291Y-4.2008
X6.6291Y-4.311
X6.6291Y-4.4213
X6.65Y-3.3996
X6.65Y-3.9996
X6.7291Y-4.2008
X6.7291Y-4.311
X6.7291Y-4.4213
X6.7394Y-3.1496
X6.75Y-3.3996
X6.75Y-3.9996
X6.8291Y-4.2008
X6.8291Y-4.311
X6.8291Y-4.4213
X6.8394Y-3.1496
X6.85Y-3.3996
X6.85Y-3.9996
X6.9291Y-4.2008
X6.9291Y-4.311
X6.9291Y-4.4213
X6.9394Y-3.1496
X6.95Y-3.3996
X6.95Y-3.9996
X7.0394Y-3.1496
X7.05Y-3.3996
X7.05Y-3.9996
X7.15Y-3.3996
X7.15Y-3.9996
X7.25Y-3.3996
X7.25Y-3.9996
X7.35Y-3.3996
X7.35Y-3.9996
X7.45Y-3.3996
X7.45Y-3.9996
X7.55Y-3.3996
X7.55Y-3.9996
X7.7165Y-2.7346
X7.7165Y-2.8346
T3
X6.2598Y-4.5276
X6.2992Y-2.6378
X6.3976Y-4.5276
X6.437Y-2.6378
X7.3327Y-2.6378
X7.4705Y-2.6378
T4
X6.0236Y-2.4803
X6.0236Y-4.6063
X7.7559Y-2.4803
X7.7559Y-4.6063
T0
M30
