%TF.GenerationSoftware,KiCad,Pcbnew,(6.0.1)*%
%TF.CreationDate,2022-07-09T15:16:54+02:00*%
%TF.ProjectId,NANOFC,4e414e4f-4643-42e6-9b69-6361645f7063,rev?*%
%TF.SameCoordinates,Original*%
%TF.FileFunction,Soldermask,Top*%
%TF.FilePolarity,Negative*%
%FSLAX46Y46*%
G04 Gerber Fmt 4.6, Leading zero omitted, Abs format (unit mm)*
G04 Created by KiCad (PCBNEW (6.0.1)) date 2022-07-09 15:16:54*
%MOMM*%
%LPD*%
G01*
G04 APERTURE LIST*
%ADD10R,2.600000X2.600000*%
%ADD11C,2.600000*%
%ADD12R,1.700000X1.700000*%
%ADD13O,1.700000X1.700000*%
%ADD14R,4.200000X2.000000*%
%ADD15R,1.600000X1.600000*%
%ADD16O,1.600000X1.600000*%
G04 APERTURE END LIST*
D10*
%TO.C,Pyro 1*%
X160000000Y-67000000D03*
D11*
X163500000Y-67000000D03*
%TD*%
D12*
%TO.C,Master Arm*%
X153000000Y-109000000D03*
D13*
X153000000Y-111540000D03*
%TD*%
D14*
%TO.C,BZ1*%
X187000000Y-107000000D03*
X187000000Y-115000000D03*
%TD*%
D12*
%TO.C,J3*%
X178800000Y-80000000D03*
D13*
X176260000Y-80000000D03*
X173720000Y-80000000D03*
X171180000Y-80000000D03*
%TD*%
D12*
%TO.C,GND*%
X176000000Y-112300000D03*
D13*
X173460000Y-112300000D03*
X170920000Y-112300000D03*
X168380000Y-112300000D03*
%TD*%
D15*
%TO.C,A1*%
X156210000Y-101590000D03*
D16*
X158750000Y-101590000D03*
X161290000Y-101590000D03*
X163830000Y-101590000D03*
X166370000Y-101590000D03*
X168910000Y-101590000D03*
X171450000Y-101590000D03*
X173990000Y-101590000D03*
X176530000Y-101590000D03*
X179070000Y-101590000D03*
X181610000Y-101590000D03*
X184150000Y-101590000D03*
X186690000Y-101590000D03*
X189230000Y-101590000D03*
X191770000Y-101590000D03*
X191770000Y-86350000D03*
X189230000Y-86350000D03*
X186690000Y-86350000D03*
X184150000Y-86350000D03*
X181610000Y-86350000D03*
X179070000Y-86350000D03*
X176530000Y-86350000D03*
X173990000Y-86350000D03*
X171450000Y-86350000D03*
X168910000Y-86350000D03*
X166370000Y-86350000D03*
X163830000Y-86350000D03*
X161290000Y-86350000D03*
X158750000Y-86350000D03*
X156210000Y-86350000D03*
%TD*%
D12*
%TO.C,P2 Arm*%
X196000000Y-72000000D03*
D13*
X196000000Y-69460000D03*
%TD*%
D12*
%TO.C,V+*%
X176000000Y-109500000D03*
D13*
X173460000Y-109500000D03*
X170920000Y-109500000D03*
X168380000Y-109500000D03*
%TD*%
D10*
%TO.C,Pyro 2*%
X186250000Y-67000000D03*
D11*
X189750000Y-67000000D03*
%TD*%
D10*
%TO.C,J1*%
X162500000Y-115000000D03*
D11*
X159000000Y-115000000D03*
%TD*%
D12*
%TO.C,P1 Arm*%
X154000000Y-72000000D03*
D13*
X154000000Y-69460000D03*
%TD*%
D12*
%TO.C,SIG*%
X176000000Y-106700000D03*
D13*
X173460000Y-106700000D03*
X170920000Y-106700000D03*
X168380000Y-106700000D03*
%TD*%
M02*
