%TF.GenerationSoftware,KiCad,Pcbnew,(6.0.1)*%
%TF.CreationDate,2022-02-20T19:29:58+01:00*%
%TF.ProjectId,NANOFC,4e414e4f-4643-42e6-9b69-6361645f7063,rev?*%
%TF.SameCoordinates,Original*%
%TF.FileFunction,Legend,Top*%
%TF.FilePolarity,Positive*%
%FSLAX46Y46*%
G04 Gerber Fmt 4.6, Leading zero omitted, Abs format (unit mm)*
G04 Created by KiCad (PCBNEW (6.0.1)) date 2022-02-20 19:29:58*
%MOMM*%
%LPD*%
G01*
G04 APERTURE LIST*
%ADD10C,0.150000*%
%ADD11C,0.200000*%
%ADD12C,0.120000*%
G04 APERTURE END LIST*
D10*
%TO.C,Pyro 2*%
X159438095Y-73452380D02*
X159438095Y-72452380D01*
X159819047Y-72452380D01*
X159914285Y-72500000D01*
X159961904Y-72547619D01*
X160009523Y-72642857D01*
X160009523Y-72785714D01*
X159961904Y-72880952D01*
X159914285Y-72928571D01*
X159819047Y-72976190D01*
X159438095Y-72976190D01*
X160342857Y-72785714D02*
X160580952Y-73452380D01*
X160819047Y-72785714D02*
X160580952Y-73452380D01*
X160485714Y-73690476D01*
X160438095Y-73738095D01*
X160342857Y-73785714D01*
X161200000Y-73452380D02*
X161200000Y-72785714D01*
X161200000Y-72976190D02*
X161247619Y-72880952D01*
X161295238Y-72833333D01*
X161390476Y-72785714D01*
X161485714Y-72785714D01*
X161961904Y-73452380D02*
X161866666Y-73404761D01*
X161819047Y-73357142D01*
X161771428Y-73261904D01*
X161771428Y-72976190D01*
X161819047Y-72880952D01*
X161866666Y-72833333D01*
X161961904Y-72785714D01*
X162104761Y-72785714D01*
X162200000Y-72833333D01*
X162247619Y-72880952D01*
X162295238Y-72976190D01*
X162295238Y-73261904D01*
X162247619Y-73357142D01*
X162200000Y-73404761D01*
X162104761Y-73452380D01*
X161961904Y-73452380D01*
X163438095Y-72547619D02*
X163485714Y-72500000D01*
X163580952Y-72452380D01*
X163819047Y-72452380D01*
X163914285Y-72500000D01*
X163961904Y-72547619D01*
X164009523Y-72642857D01*
X164009523Y-72738095D01*
X163961904Y-72880952D01*
X163390476Y-73452380D01*
X164009523Y-73452380D01*
D11*
%TO.C,Master Arm*%
X150500000Y-105704761D02*
X150500000Y-103704761D01*
X150833333Y-105133333D01*
X151166666Y-103704761D01*
X151166666Y-105704761D01*
X152071428Y-105704761D02*
X152071428Y-104657142D01*
X152023809Y-104466666D01*
X151928571Y-104371428D01*
X151738095Y-104371428D01*
X151642857Y-104466666D01*
X152071428Y-105609523D02*
X151976190Y-105704761D01*
X151738095Y-105704761D01*
X151642857Y-105609523D01*
X151595238Y-105419047D01*
X151595238Y-105228571D01*
X151642857Y-105038095D01*
X151738095Y-104942857D01*
X151976190Y-104942857D01*
X152071428Y-104847619D01*
X152500000Y-105609523D02*
X152595238Y-105704761D01*
X152785714Y-105704761D01*
X152880952Y-105609523D01*
X152928571Y-105419047D01*
X152928571Y-105323809D01*
X152880952Y-105133333D01*
X152785714Y-105038095D01*
X152642857Y-105038095D01*
X152547619Y-104942857D01*
X152500000Y-104752380D01*
X152500000Y-104657142D01*
X152547619Y-104466666D01*
X152642857Y-104371428D01*
X152785714Y-104371428D01*
X152880952Y-104466666D01*
X153214285Y-104371428D02*
X153595238Y-104371428D01*
X153357142Y-103704761D02*
X153357142Y-105419047D01*
X153404761Y-105609523D01*
X153500000Y-105704761D01*
X153595238Y-105704761D01*
X154309523Y-105609523D02*
X154214285Y-105704761D01*
X154023809Y-105704761D01*
X153928571Y-105609523D01*
X153880952Y-105419047D01*
X153880952Y-104657142D01*
X153928571Y-104466666D01*
X154023809Y-104371428D01*
X154214285Y-104371428D01*
X154309523Y-104466666D01*
X154357142Y-104657142D01*
X154357142Y-104847619D01*
X153880952Y-105038095D01*
X154785714Y-105704761D02*
X154785714Y-104371428D01*
X154785714Y-104752380D02*
X154833333Y-104561904D01*
X154880952Y-104466666D01*
X154976190Y-104371428D01*
X155071428Y-104371428D01*
X156119047Y-105133333D02*
X156595238Y-105133333D01*
X156023809Y-105704761D02*
X156357142Y-103704761D01*
X156690476Y-105704761D01*
X157023809Y-105704761D02*
X157023809Y-104371428D01*
X157023809Y-104752380D02*
X157071428Y-104561904D01*
X157119047Y-104466666D01*
X157214285Y-104371428D01*
X157309523Y-104371428D01*
X157642857Y-105704761D02*
X157642857Y-104371428D01*
X157642857Y-104561904D02*
X157690476Y-104466666D01*
X157785714Y-104371428D01*
X157928571Y-104371428D01*
X158023809Y-104466666D01*
X158071428Y-104657142D01*
X158071428Y-105704761D01*
X158071428Y-104657142D02*
X158119047Y-104466666D01*
X158214285Y-104371428D01*
X158357142Y-104371428D01*
X158452380Y-104466666D01*
X158500000Y-104657142D01*
X158500000Y-105704761D01*
D10*
%TO.C,BZ1*%
X192428571Y-111880952D02*
X192476190Y-111738095D01*
X192523809Y-111690476D01*
X192619047Y-111642857D01*
X192761904Y-111642857D01*
X192857142Y-111690476D01*
X192904761Y-111738095D01*
X192952380Y-111833333D01*
X192952380Y-112214285D01*
X191952380Y-112214285D01*
X191952380Y-111880952D01*
X192000000Y-111785714D01*
X192047619Y-111738095D01*
X192142857Y-111690476D01*
X192238095Y-111690476D01*
X192333333Y-111738095D01*
X192380952Y-111785714D01*
X192428571Y-111880952D01*
X192428571Y-112214285D01*
X191952380Y-111309523D02*
X191952380Y-110642857D01*
X192952380Y-111309523D01*
X192952380Y-110642857D01*
X192952380Y-109738095D02*
X192952380Y-110309523D01*
X192952380Y-110023809D02*
X191952380Y-110023809D01*
X192095238Y-110119047D01*
X192190476Y-110214285D01*
X192238095Y-110309523D01*
%TO.C,GND*%
X178238095Y-111800000D02*
X178142857Y-111752380D01*
X178000000Y-111752380D01*
X177857142Y-111800000D01*
X177761904Y-111895238D01*
X177714285Y-111990476D01*
X177666666Y-112180952D01*
X177666666Y-112323809D01*
X177714285Y-112514285D01*
X177761904Y-112609523D01*
X177857142Y-112704761D01*
X178000000Y-112752380D01*
X178095238Y-112752380D01*
X178238095Y-112704761D01*
X178285714Y-112657142D01*
X178285714Y-112323809D01*
X178095238Y-112323809D01*
X178714285Y-112752380D02*
X178714285Y-111752380D01*
X179285714Y-112752380D01*
X179285714Y-111752380D01*
X179761904Y-112752380D02*
X179761904Y-111752380D01*
X180000000Y-111752380D01*
X180142857Y-111800000D01*
X180238095Y-111895238D01*
X180285714Y-111990476D01*
X180333333Y-112180952D01*
X180333333Y-112323809D01*
X180285714Y-112514285D01*
X180238095Y-112609523D01*
X180142857Y-112704761D01*
X180000000Y-112752380D01*
X179761904Y-112752380D01*
%TO.C,P1 Arm*%
X193476190Y-74782380D02*
X193476190Y-73782380D01*
X193857142Y-73782380D01*
X193952380Y-73830000D01*
X194000000Y-73877619D01*
X194047619Y-73972857D01*
X194047619Y-74115714D01*
X194000000Y-74210952D01*
X193952380Y-74258571D01*
X193857142Y-74306190D01*
X193476190Y-74306190D01*
X195000000Y-74782380D02*
X194428571Y-74782380D01*
X194714285Y-74782380D02*
X194714285Y-73782380D01*
X194619047Y-73925238D01*
X194523809Y-74020476D01*
X194428571Y-74068095D01*
X196142857Y-74496666D02*
X196619047Y-74496666D01*
X196047619Y-74782380D02*
X196380952Y-73782380D01*
X196714285Y-74782380D01*
X197047619Y-74782380D02*
X197047619Y-74115714D01*
X197047619Y-74306190D02*
X197095238Y-74210952D01*
X197142857Y-74163333D01*
X197238095Y-74115714D01*
X197333333Y-74115714D01*
X197666666Y-74782380D02*
X197666666Y-74115714D01*
X197666666Y-74210952D02*
X197714285Y-74163333D01*
X197809523Y-74115714D01*
X197952380Y-74115714D01*
X198047619Y-74163333D01*
X198095238Y-74258571D01*
X198095238Y-74782380D01*
X198095238Y-74258571D02*
X198142857Y-74163333D01*
X198238095Y-74115714D01*
X198380952Y-74115714D01*
X198476190Y-74163333D01*
X198523809Y-74258571D01*
X198523809Y-74782380D01*
%TO.C,V+*%
X178047619Y-108952380D02*
X178380952Y-109952380D01*
X178714285Y-108952380D01*
X179047619Y-109571428D02*
X179809523Y-109571428D01*
X179428571Y-109952380D02*
X179428571Y-109190476D01*
%TO.C,Pyro 1*%
X185738095Y-73452380D02*
X185738095Y-72452380D01*
X186119047Y-72452380D01*
X186214285Y-72500000D01*
X186261904Y-72547619D01*
X186309523Y-72642857D01*
X186309523Y-72785714D01*
X186261904Y-72880952D01*
X186214285Y-72928571D01*
X186119047Y-72976190D01*
X185738095Y-72976190D01*
X186642857Y-72785714D02*
X186880952Y-73452380D01*
X187119047Y-72785714D02*
X186880952Y-73452380D01*
X186785714Y-73690476D01*
X186738095Y-73738095D01*
X186642857Y-73785714D01*
X187500000Y-73452380D02*
X187500000Y-72785714D01*
X187500000Y-72976190D02*
X187547619Y-72880952D01*
X187595238Y-72833333D01*
X187690476Y-72785714D01*
X187785714Y-72785714D01*
X188261904Y-73452380D02*
X188166666Y-73404761D01*
X188119047Y-73357142D01*
X188071428Y-73261904D01*
X188071428Y-72976190D01*
X188119047Y-72880952D01*
X188166666Y-72833333D01*
X188261904Y-72785714D01*
X188404761Y-72785714D01*
X188500000Y-72833333D01*
X188547619Y-72880952D01*
X188595238Y-72976190D01*
X188595238Y-73261904D01*
X188547619Y-73357142D01*
X188500000Y-73404761D01*
X188404761Y-73452380D01*
X188261904Y-73452380D01*
X190309523Y-73452380D02*
X189738095Y-73452380D01*
X190023809Y-73452380D02*
X190023809Y-72452380D01*
X189928571Y-72595238D01*
X189833333Y-72690476D01*
X189738095Y-72738095D01*
%TO.C,Power in*%
X157592380Y-109997380D02*
X157592380Y-108997380D01*
X157973333Y-108997380D01*
X158068571Y-109045000D01*
X158116190Y-109092619D01*
X158163809Y-109187857D01*
X158163809Y-109330714D01*
X158116190Y-109425952D01*
X158068571Y-109473571D01*
X157973333Y-109521190D01*
X157592380Y-109521190D01*
X158735238Y-109997380D02*
X158640000Y-109949761D01*
X158592380Y-109902142D01*
X158544761Y-109806904D01*
X158544761Y-109521190D01*
X158592380Y-109425952D01*
X158640000Y-109378333D01*
X158735238Y-109330714D01*
X158878095Y-109330714D01*
X158973333Y-109378333D01*
X159020952Y-109425952D01*
X159068571Y-109521190D01*
X159068571Y-109806904D01*
X159020952Y-109902142D01*
X158973333Y-109949761D01*
X158878095Y-109997380D01*
X158735238Y-109997380D01*
X159401904Y-109330714D02*
X159592380Y-109997380D01*
X159782857Y-109521190D01*
X159973333Y-109997380D01*
X160163809Y-109330714D01*
X160925714Y-109949761D02*
X160830476Y-109997380D01*
X160640000Y-109997380D01*
X160544761Y-109949761D01*
X160497142Y-109854523D01*
X160497142Y-109473571D01*
X160544761Y-109378333D01*
X160640000Y-109330714D01*
X160830476Y-109330714D01*
X160925714Y-109378333D01*
X160973333Y-109473571D01*
X160973333Y-109568809D01*
X160497142Y-109664047D01*
X161401904Y-109997380D02*
X161401904Y-109330714D01*
X161401904Y-109521190D02*
X161449523Y-109425952D01*
X161497142Y-109378333D01*
X161592380Y-109330714D01*
X161687619Y-109330714D01*
X162782857Y-109997380D02*
X162782857Y-109330714D01*
X162782857Y-108997380D02*
X162735238Y-109045000D01*
X162782857Y-109092619D01*
X162830476Y-109045000D01*
X162782857Y-108997380D01*
X162782857Y-109092619D01*
X163259047Y-109330714D02*
X163259047Y-109997380D01*
X163259047Y-109425952D02*
X163306666Y-109378333D01*
X163401904Y-109330714D01*
X163544761Y-109330714D01*
X163640000Y-109378333D01*
X163687619Y-109473571D01*
X163687619Y-109997380D01*
%TO.C,P2 Arm*%
X151476190Y-74782380D02*
X151476190Y-73782380D01*
X151857142Y-73782380D01*
X151952380Y-73830000D01*
X152000000Y-73877619D01*
X152047619Y-73972857D01*
X152047619Y-74115714D01*
X152000000Y-74210952D01*
X151952380Y-74258571D01*
X151857142Y-74306190D01*
X151476190Y-74306190D01*
X152428571Y-73877619D02*
X152476190Y-73830000D01*
X152571428Y-73782380D01*
X152809523Y-73782380D01*
X152904761Y-73830000D01*
X152952380Y-73877619D01*
X153000000Y-73972857D01*
X153000000Y-74068095D01*
X152952380Y-74210952D01*
X152380952Y-74782380D01*
X153000000Y-74782380D01*
X154142857Y-74496666D02*
X154619047Y-74496666D01*
X154047619Y-74782380D02*
X154380952Y-73782380D01*
X154714285Y-74782380D01*
X155047619Y-74782380D02*
X155047619Y-74115714D01*
X155047619Y-74306190D02*
X155095238Y-74210952D01*
X155142857Y-74163333D01*
X155238095Y-74115714D01*
X155333333Y-74115714D01*
X155666666Y-74782380D02*
X155666666Y-74115714D01*
X155666666Y-74210952D02*
X155714285Y-74163333D01*
X155809523Y-74115714D01*
X155952380Y-74115714D01*
X156047619Y-74163333D01*
X156095238Y-74258571D01*
X156095238Y-74782380D01*
X156095238Y-74258571D02*
X156142857Y-74163333D01*
X156238095Y-74115714D01*
X156380952Y-74115714D01*
X156476190Y-74163333D01*
X156523809Y-74258571D01*
X156523809Y-74782380D01*
%TO.C,SIG*%
X177976190Y-107104761D02*
X178119047Y-107152380D01*
X178357142Y-107152380D01*
X178452380Y-107104761D01*
X178500000Y-107057142D01*
X178547619Y-106961904D01*
X178547619Y-106866666D01*
X178500000Y-106771428D01*
X178452380Y-106723809D01*
X178357142Y-106676190D01*
X178166666Y-106628571D01*
X178071428Y-106580952D01*
X178023809Y-106533333D01*
X177976190Y-106438095D01*
X177976190Y-106342857D01*
X178023809Y-106247619D01*
X178071428Y-106200000D01*
X178166666Y-106152380D01*
X178404761Y-106152380D01*
X178547619Y-106200000D01*
X178976190Y-107152380D02*
X178976190Y-106152380D01*
X179976190Y-106200000D02*
X179880952Y-106152380D01*
X179738095Y-106152380D01*
X179595238Y-106200000D01*
X179500000Y-106295238D01*
X179452380Y-106390476D01*
X179404761Y-106580952D01*
X179404761Y-106723809D01*
X179452380Y-106914285D01*
X179500000Y-107009523D01*
X179595238Y-107104761D01*
X179738095Y-107152380D01*
X179833333Y-107152380D01*
X179976190Y-107104761D01*
X180023809Y-107057142D01*
X180023809Y-106723809D01*
X179833333Y-106723809D01*
D12*
%TO.C,Pyro 2*%
X158600000Y-64000000D02*
X161400000Y-64000000D01*
X165810000Y-63240000D02*
X165810000Y-71660000D01*
X164900000Y-64000000D02*
X164900000Y-66311000D01*
X158600000Y-64000000D02*
X158600000Y-65460000D01*
X157690000Y-68101000D02*
X158460000Y-68101000D01*
X161540000Y-68101000D02*
X162367000Y-68101000D01*
X164900000Y-67689000D02*
X164900000Y-67750000D01*
X157450000Y-69660000D02*
X157450000Y-71900000D01*
X164900000Y-67750000D02*
X164900000Y-67750000D01*
X157690000Y-63240000D02*
X157690000Y-71660000D01*
X164634000Y-68101000D02*
X165810000Y-68101000D01*
X162100000Y-67750000D02*
X162101000Y-67750000D01*
X157450000Y-71900000D02*
X159450000Y-71900000D01*
X162100000Y-67689000D02*
X162100000Y-67750000D01*
X161400000Y-64000000D02*
X161400000Y-65460000D01*
X162100000Y-64000000D02*
X164900000Y-64000000D01*
X157690000Y-71660000D02*
X165810000Y-71660000D01*
X162100000Y-64000000D02*
X162100000Y-66311000D01*
X157690000Y-63240000D02*
X165810000Y-63240000D01*
X164440000Y-65742000D02*
G75*
G03*
X162560085Y-65742233I-940000J342000D01*
G01*
X160998000Y-65469000D02*
G75*
G03*
X159002110Y-65470566I-998000J69000D01*
G01*
%TO.C,Master Arm*%
X151670000Y-112870000D02*
X154330000Y-112870000D01*
X154330000Y-110270000D02*
X154330000Y-112870000D01*
X151670000Y-110270000D02*
X151670000Y-112870000D01*
X151670000Y-110270000D02*
X154330000Y-110270000D01*
X151670000Y-109000000D02*
X151670000Y-107670000D01*
X151670000Y-107670000D02*
X153000000Y-107670000D01*
%TO.C,BZ1*%
X191600000Y-106400000D02*
X191600000Y-115600000D01*
X189400000Y-106400000D02*
X189400000Y-106000000D01*
X184600000Y-106400000D02*
X182400000Y-106400000D01*
X184600000Y-115600000D02*
X182400000Y-115600000D01*
X182400000Y-115600000D02*
X182400000Y-106400000D01*
X191600000Y-106400000D02*
X189400000Y-106400000D01*
X191600000Y-115600000D02*
X189400000Y-115600000D01*
%TO.C,J3*%
X178800000Y-78670000D02*
X180130000Y-78670000D01*
X177530000Y-78670000D02*
X169850000Y-78670000D01*
X177530000Y-81330000D02*
X169850000Y-81330000D01*
X169850000Y-78670000D02*
X169850000Y-81330000D01*
X180130000Y-78670000D02*
X180130000Y-80000000D01*
X177530000Y-78670000D02*
X177530000Y-81330000D01*
%TO.C,GND*%
X174730000Y-113630000D02*
X167050000Y-113630000D01*
X174730000Y-110970000D02*
X174730000Y-113630000D01*
X177330000Y-110970000D02*
X177330000Y-112300000D01*
X176000000Y-110970000D02*
X177330000Y-110970000D01*
X167050000Y-110970000D02*
X167050000Y-113630000D01*
X174730000Y-110970000D02*
X167050000Y-110970000D01*
%TO.C,A1*%
X193040000Y-100320000D02*
X193040000Y-102990000D01*
X154940000Y-87620000D02*
X154940000Y-84950000D01*
X195710000Y-84950000D02*
X152270000Y-84950000D01*
X152270000Y-102990000D02*
X154940000Y-102990000D01*
X157480000Y-102990000D02*
X195710000Y-102990000D01*
X157480000Y-100320000D02*
X157480000Y-102990000D01*
X154940000Y-87620000D02*
X193040000Y-87620000D01*
X193040000Y-87620000D02*
X193040000Y-84950000D01*
X157480000Y-100320000D02*
X193040000Y-100320000D01*
X152270000Y-84950000D02*
X152270000Y-102990000D01*
X154940000Y-100320000D02*
X154940000Y-102990000D01*
X157480000Y-100320000D02*
X154940000Y-100320000D01*
X195710000Y-102990000D02*
X195710000Y-84950000D01*
%TO.C,P1 Arm*%
X197330000Y-72000000D02*
X197330000Y-73330000D01*
X197330000Y-68130000D02*
X194670000Y-68130000D01*
X194670000Y-70730000D02*
X194670000Y-68130000D01*
X197330000Y-73330000D02*
X196000000Y-73330000D01*
X197330000Y-70730000D02*
X197330000Y-68130000D01*
X197330000Y-70730000D02*
X194670000Y-70730000D01*
%TO.C,V+*%
X177330000Y-108170000D02*
X177330000Y-109500000D01*
X176000000Y-108170000D02*
X177330000Y-108170000D01*
X174730000Y-108170000D02*
X174730000Y-110830000D01*
X174730000Y-108170000D02*
X167050000Y-108170000D01*
X167050000Y-108170000D02*
X167050000Y-110830000D01*
X174730000Y-110830000D02*
X167050000Y-110830000D01*
%TO.C,Pyro 1*%
X191150000Y-67750000D02*
X191150000Y-67750000D01*
X183940000Y-71660000D02*
X192060000Y-71660000D01*
X188350000Y-67689000D02*
X188350000Y-67750000D01*
X184850000Y-64000000D02*
X184850000Y-65460000D01*
X188350000Y-67750000D02*
X188351000Y-67750000D01*
X183940000Y-68101000D02*
X184710000Y-68101000D01*
X184850000Y-64000000D02*
X187650000Y-64000000D01*
X191150000Y-67689000D02*
X191150000Y-67750000D01*
X183700000Y-69660000D02*
X183700000Y-71900000D01*
X190884000Y-68101000D02*
X192060000Y-68101000D01*
X188350000Y-64000000D02*
X188350000Y-66311000D01*
X192060000Y-63240000D02*
X192060000Y-71660000D01*
X187650000Y-64000000D02*
X187650000Y-65460000D01*
X187790000Y-68101000D02*
X188617000Y-68101000D01*
X191150000Y-64000000D02*
X191150000Y-66311000D01*
X183940000Y-63240000D02*
X183940000Y-71660000D01*
X183940000Y-63240000D02*
X192060000Y-63240000D01*
X188350000Y-64000000D02*
X191150000Y-64000000D01*
X183700000Y-71900000D02*
X185700000Y-71900000D01*
X190690000Y-65742000D02*
G75*
G03*
X188810085Y-65742233I-940000J342000D01*
G01*
X187248000Y-65469000D02*
G75*
G03*
X185252110Y-65470566I-998000J69000D01*
G01*
%TO.C,Power in*%
X157600000Y-118000000D02*
X157600000Y-115689000D01*
X157866000Y-113899000D02*
X156690000Y-113899000D01*
X164810000Y-118760000D02*
X164810000Y-110340000D01*
X160400000Y-114250000D02*
X160399000Y-114250000D01*
X164810000Y-118760000D02*
X156690000Y-118760000D01*
X160400000Y-118000000D02*
X160400000Y-115689000D01*
X160400000Y-114311000D02*
X160400000Y-114250000D01*
X161100000Y-118000000D02*
X161100000Y-116540000D01*
X157600000Y-114250000D02*
X157600000Y-114250000D01*
X165050000Y-112340000D02*
X165050000Y-110100000D01*
X164810000Y-113899000D02*
X164040000Y-113899000D01*
X165050000Y-110100000D02*
X163050000Y-110100000D01*
X157600000Y-114311000D02*
X157600000Y-114250000D01*
X160400000Y-118000000D02*
X157600000Y-118000000D01*
X164810000Y-110340000D02*
X156690000Y-110340000D01*
X163900000Y-118000000D02*
X161100000Y-118000000D01*
X156690000Y-118760000D02*
X156690000Y-110340000D01*
X163900000Y-118000000D02*
X163900000Y-116540000D01*
X160960000Y-113899000D02*
X160133000Y-113899000D01*
X158060000Y-116258000D02*
G75*
G03*
X159939915Y-116257767I940000J-342000D01*
G01*
X161502000Y-116531000D02*
G75*
G03*
X163497890Y-116529434I998000J-69000D01*
G01*
%TO.C,P2 Arm*%
X155330000Y-73330000D02*
X154000000Y-73330000D01*
X155330000Y-72000000D02*
X155330000Y-73330000D01*
X152670000Y-70730000D02*
X152670000Y-68130000D01*
X155330000Y-70730000D02*
X155330000Y-68130000D01*
X155330000Y-70730000D02*
X152670000Y-70730000D01*
X155330000Y-68130000D02*
X152670000Y-68130000D01*
%TO.C,SIG*%
X174730000Y-108030000D02*
X167050000Y-108030000D01*
X174730000Y-105370000D02*
X167050000Y-105370000D01*
X167050000Y-105370000D02*
X167050000Y-108030000D01*
X174730000Y-105370000D02*
X174730000Y-108030000D01*
X176000000Y-105370000D02*
X177330000Y-105370000D01*
X177330000Y-105370000D02*
X177330000Y-106700000D01*
%TD*%
M02*
