%TF.GenerationSoftware,KiCad,Pcbnew,(6.0.1)*%
%TF.CreationDate,2022-07-09T15:16:54+02:00*%
%TF.ProjectId,NANOFC,4e414e4f-4643-42e6-9b69-6361645f7063,rev?*%
%TF.SameCoordinates,Original*%
%TF.FileFunction,Copper,L2,Bot*%
%TF.FilePolarity,Positive*%
%FSLAX46Y46*%
G04 Gerber Fmt 4.6, Leading zero omitted, Abs format (unit mm)*
G04 Created by KiCad (PCBNEW (6.0.1)) date 2022-07-09 15:16:54*
%MOMM*%
%LPD*%
G01*
G04 APERTURE LIST*
G04 Aperture macros list*
%AMRoundRect*
0 Rectangle with rounded corners*
0 $1 Rounding radius*
0 $2 $3 $4 $5 $6 $7 $8 $9 X,Y pos of 4 corners*
0 Add a 4 corners polygon primitive as box body*
4,1,4,$2,$3,$4,$5,$6,$7,$8,$9,$2,$3,0*
0 Add four circle primitives for the rounded corners*
1,1,$1+$1,$2,$3*
1,1,$1+$1,$4,$5*
1,1,$1+$1,$6,$7*
1,1,$1+$1,$8,$9*
0 Add four rect primitives between the rounded corners*
20,1,$1+$1,$2,$3,$4,$5,0*
20,1,$1+$1,$4,$5,$6,$7,0*
20,1,$1+$1,$6,$7,$8,$9,0*
20,1,$1+$1,$8,$9,$2,$3,0*%
G04 Aperture macros list end*
%TA.AperFunction,ComponentPad*%
%ADD10R,2.600000X2.600000*%
%TD*%
%TA.AperFunction,ComponentPad*%
%ADD11C,2.600000*%
%TD*%
%TA.AperFunction,ComponentPad*%
%ADD12R,1.700000X1.700000*%
%TD*%
%TA.AperFunction,ComponentPad*%
%ADD13O,1.700000X1.700000*%
%TD*%
%TA.AperFunction,ComponentPad*%
%ADD14R,1.600000X1.600000*%
%TD*%
%TA.AperFunction,ComponentPad*%
%ADD15O,1.600000X1.600000*%
%TD*%
%TA.AperFunction,SMDPad,CuDef*%
%ADD16R,0.700000X1.750000*%
%TD*%
%TA.AperFunction,SMDPad,CuDef*%
%ADD17R,1.450000X1.000000*%
%TD*%
%TA.AperFunction,SMDPad,CuDef*%
%ADD18R,1.000000X1.550000*%
%TD*%
%TA.AperFunction,SMDPad,CuDef*%
%ADD19R,1.500000X1.500000*%
%TD*%
%TA.AperFunction,SMDPad,CuDef*%
%ADD20R,0.800000X1.500000*%
%TD*%
%TA.AperFunction,SMDPad,CuDef*%
%ADD21R,0.800000X1.400000*%
%TD*%
%TA.AperFunction,SMDPad,CuDef*%
%ADD22R,1.300000X1.500000*%
%TD*%
%TA.AperFunction,SMDPad,CuDef*%
%ADD23R,2.200000X1.200000*%
%TD*%
%TA.AperFunction,SMDPad,CuDef*%
%ADD24R,6.400000X5.800000*%
%TD*%
%TA.AperFunction,SMDPad,CuDef*%
%ADD25RoundRect,0.250000X0.312500X1.075000X-0.312500X1.075000X-0.312500X-1.075000X0.312500X-1.075000X0*%
%TD*%
%TA.AperFunction,SMDPad,CuDef*%
%ADD26RoundRect,0.250000X1.100000X-0.325000X1.100000X0.325000X-1.100000X0.325000X-1.100000X-0.325000X0*%
%TD*%
%TA.AperFunction,SMDPad,CuDef*%
%ADD27R,1.500000X2.000000*%
%TD*%
%TA.AperFunction,SMDPad,CuDef*%
%ADD28R,3.800000X2.000000*%
%TD*%
%TA.AperFunction,SMDPad,CuDef*%
%ADD29RoundRect,0.250000X-1.075000X0.375000X-1.075000X-0.375000X1.075000X-0.375000X1.075000X0.375000X0*%
%TD*%
%TA.AperFunction,SMDPad,CuDef*%
%ADD30R,1.780000X2.000000*%
%TD*%
%TA.AperFunction,SMDPad,CuDef*%
%ADD31RoundRect,0.250000X0.375000X1.075000X-0.375000X1.075000X-0.375000X-1.075000X0.375000X-1.075000X0*%
%TD*%
%TA.AperFunction,ViaPad*%
%ADD32C,3.200000*%
%TD*%
%TA.AperFunction,ViaPad*%
%ADD33C,0.800000*%
%TD*%
%TA.AperFunction,Conductor*%
%ADD34C,0.250000*%
%TD*%
%TA.AperFunction,Conductor*%
%ADD35C,0.500000*%
%TD*%
%TA.AperFunction,Conductor*%
%ADD36C,0.560000*%
%TD*%
G04 APERTURE END LIST*
D10*
%TO.P,Pyro 1,1,Pin_1*%
%TO.N,Net-(J4-Pad1)*%
X160000000Y-67000000D03*
D11*
%TO.P,Pyro 1,2,Pin_2*%
%TO.N,Net-(J10-Pad2)*%
X163500000Y-67000000D03*
%TD*%
D12*
%TO.P,Master Arm,1,Pin_1*%
%TO.N,+BATT*%
X153000000Y-109000000D03*
D13*
%TO.P,Master Arm,2,Pin_2*%
%TO.N,Net-(J1-Pad2)*%
X153000000Y-111540000D03*
%TD*%
D12*
%TO.P,J3,1,Pin_1*%
%TO.N,3.3v*%
X178800000Y-80000000D03*
D13*
%TO.P,J3,2,Pin_2*%
%TO.N,GND*%
X176260000Y-80000000D03*
%TO.P,J3,3,Pin_3*%
%TO.N,SCL*%
X173720000Y-80000000D03*
%TO.P,J3,4,Pin_4*%
%TO.N,SDA*%
X171180000Y-80000000D03*
%TD*%
D12*
%TO.P,GND,1,Pin_1*%
%TO.N,GND*%
X176000000Y-112300000D03*
D13*
%TO.P,GND,2,Pin_2*%
X173460000Y-112300000D03*
%TO.P,GND,3,Pin_3*%
X170920000Y-112300000D03*
%TO.P,GND,4,Pin_4*%
X168380000Y-112300000D03*
%TD*%
D14*
%TO.P,A1,1,D1/TX*%
%TO.N,unconnected-(A1-Pad1)*%
X156210000Y-101590000D03*
D15*
%TO.P,A1,2,D0/RX*%
%TO.N,unconnected-(A1-Pad2)*%
X158750000Y-101590000D03*
%TO.P,A1,3,~{RESET}*%
%TO.N,unconnected-(A1-Pad3)*%
X161290000Y-101590000D03*
%TO.P,A1,4,GND*%
%TO.N,GND*%
X163830000Y-101590000D03*
%TO.P,A1,5,D2*%
%TO.N,Pyro_1*%
X166370000Y-101590000D03*
%TO.P,A1,6,D3*%
%TO.N,Pyro_2*%
X168910000Y-101590000D03*
%TO.P,A1,7,D4*%
%TO.N,Buzzer*%
X171450000Y-101590000D03*
%TO.P,A1,8,D5*%
%TO.N,Servo_1*%
X173990000Y-101590000D03*
%TO.P,A1,9,D6*%
%TO.N,Servo_2*%
X176530000Y-101590000D03*
%TO.P,A1,10,D7*%
%TO.N,Servo_3*%
X179070000Y-101590000D03*
%TO.P,A1,11,D8*%
%TO.N,Servo_4*%
X181610000Y-101590000D03*
%TO.P,A1,12,D9*%
%TO.N,CS*%
X184150000Y-101590000D03*
%TO.P,A1,13,D10*%
%TO.N,unconnected-(A1-Pad13)*%
X186690000Y-101590000D03*
%TO.P,A1,14,D11*%
%TO.N,MOSI*%
X189230000Y-101590000D03*
%TO.P,A1,15,D12*%
%TO.N,MISO*%
X191770000Y-101590000D03*
%TO.P,A1,16,D13*%
%TO.N,SCK*%
X191770000Y-86350000D03*
%TO.P,A1,17,3V3*%
%TO.N,3.3v*%
X189230000Y-86350000D03*
%TO.P,A1,18,AREF*%
%TO.N,unconnected-(A1-Pad18)*%
X186690000Y-86350000D03*
%TO.P,A1,19,A0*%
%TO.N,unconnected-(A1-Pad19)*%
X184150000Y-86350000D03*
%TO.P,A1,20,A1*%
%TO.N,unconnected-(A1-Pad20)*%
X181610000Y-86350000D03*
%TO.P,A1,21,A2*%
%TO.N,unconnected-(A1-Pad21)*%
X179070000Y-86350000D03*
%TO.P,A1,22,A3*%
%TO.N,unconnected-(A1-Pad22)*%
X176530000Y-86350000D03*
%TO.P,A1,23,A4*%
%TO.N,SDA*%
X173990000Y-86350000D03*
%TO.P,A1,24,A5*%
%TO.N,SCL*%
X171450000Y-86350000D03*
%TO.P,A1,25,A6*%
%TO.N,unconnected-(A1-Pad25)*%
X168910000Y-86350000D03*
%TO.P,A1,26,A7*%
%TO.N,unconnected-(A1-Pad26)*%
X166370000Y-86350000D03*
%TO.P,A1,27,+5V*%
%TO.N,unconnected-(A1-Pad27)*%
X163830000Y-86350000D03*
%TO.P,A1,28,~{RESET}*%
%TO.N,unconnected-(A1-Pad28)*%
X161290000Y-86350000D03*
%TO.P,A1,29,GND*%
%TO.N,GND*%
X158750000Y-86350000D03*
%TO.P,A1,30,VIN*%
%TO.N,unconnected-(A1-Pad30)*%
X156210000Y-86350000D03*
%TD*%
D12*
%TO.P,P2 Arm,1,Pin_1*%
%TO.N,+BATT*%
X196000000Y-72000000D03*
D13*
%TO.P,P2 Arm,2,Pin_2*%
%TO.N,Net-(J2-Pad2)*%
X196000000Y-69460000D03*
%TD*%
D12*
%TO.P,V+,1,Pin_1*%
%TO.N,+BATT*%
X176000000Y-109500000D03*
D13*
%TO.P,V+,2,Pin_2*%
X173460000Y-109500000D03*
%TO.P,V+,3,Pin_3*%
X170920000Y-109500000D03*
%TO.P,V+,4,Pin_4*%
X168380000Y-109500000D03*
%TD*%
D10*
%TO.P,Pyro 2,1,Pin_1*%
%TO.N,Net-(J2-Pad1)*%
X186250000Y-67000000D03*
D11*
%TO.P,Pyro 2,2,Pin_2*%
%TO.N,Net-(J2-Pad2)*%
X189750000Y-67000000D03*
%TD*%
D10*
%TO.P,J1,1,Pin_1*%
%TO.N,GND*%
X162500000Y-115000000D03*
D11*
%TO.P,J1,2,Pin_2*%
%TO.N,Net-(J1-Pad2)*%
X159000000Y-115000000D03*
%TD*%
D12*
%TO.P,P1 Arm,1,Pin_1*%
%TO.N,+BATT*%
X154000000Y-72000000D03*
D13*
%TO.P,P1 Arm,2,Pin_2*%
%TO.N,Net-(J10-Pad2)*%
X154000000Y-69460000D03*
%TD*%
D12*
%TO.P,SIG,1,Pin_1*%
%TO.N,Servo_4*%
X176000000Y-106700000D03*
D13*
%TO.P,SIG,2,Pin_2*%
%TO.N,Servo_3*%
X173460000Y-106700000D03*
%TO.P,SIG,3,Pin_3*%
%TO.N,Servo_2*%
X170920000Y-106700000D03*
%TO.P,SIG,4,Pin_4*%
%TO.N,Servo_1*%
X168380000Y-106700000D03*
%TD*%
D16*
%TO.P,J11,1,DAT2*%
%TO.N,unconnected-(J11-Pad1)*%
X189195000Y-106200000D03*
%TO.P,J11,2,DAT3/CD*%
%TO.N,CS*%
X188095000Y-106200000D03*
%TO.P,J11,3,CMD*%
%TO.N,MOSI*%
X186995000Y-106200000D03*
%TO.P,J11,4,VDD*%
%TO.N,3.3v*%
X185895000Y-106200000D03*
%TO.P,J11,5,CLK*%
%TO.N,SCK*%
X184795000Y-106200000D03*
%TO.P,J11,6,VSS*%
%TO.N,GND*%
X183695000Y-106200000D03*
%TO.P,J11,7,DAT0*%
%TO.N,MISO*%
X182595000Y-106200000D03*
%TO.P,J11,8,DAT1*%
%TO.N,unconnected-(J11-Pad8)*%
X181495000Y-106200000D03*
D17*
%TO.P,J11,9,SHIELD*%
%TO.N,unconnected-(J11-Pad9)*%
X180370000Y-115425000D03*
D18*
%TO.P,J11,10*%
%TO.N,N/C*%
X191595000Y-117000000D03*
D19*
%TO.P,J11,11*%
X191645000Y-106325000D03*
D20*
X180045000Y-113925000D03*
D21*
X191995000Y-114575000D03*
D22*
X180295000Y-106325000D03*
%TD*%
D23*
%TO.P,Q1,1*%
%TO.N,Net-(Q1-Pad1)*%
X187700000Y-80280000D03*
D24*
%TO.P,Q1,2*%
%TO.N,Net-(J2-Pad1)*%
X194000000Y-78000000D03*
D23*
%TO.P,Q1,3*%
%TO.N,GND*%
X187700000Y-75720000D03*
%TD*%
D25*
%TO.P,R1,1*%
%TO.N,GND*%
X187462500Y-72000000D03*
%TO.P,R1,2*%
%TO.N,Net-(Q1-Pad1)*%
X184537500Y-72000000D03*
%TD*%
D26*
%TO.P,C1,1*%
%TO.N,3.3v*%
X159000000Y-92475000D03*
%TO.P,C1,2*%
%TO.N,GND*%
X159000000Y-89525000D03*
%TD*%
D23*
%TO.P,Q2,1*%
%TO.N,Net-(Q2-Pad1)*%
X162200000Y-75720000D03*
D24*
%TO.P,Q2,2*%
%TO.N,Net-(J4-Pad1)*%
X155900000Y-78000000D03*
D23*
%TO.P,Q2,3*%
%TO.N,GND*%
X162200000Y-80280000D03*
%TD*%
D27*
%TO.P,U1,1,GND*%
%TO.N,GND*%
X162300000Y-111150000D03*
D28*
%TO.P,U1,2,VO*%
%TO.N,3.3v*%
X160000000Y-104850000D03*
D27*
X160000000Y-111150000D03*
%TO.P,U1,3,VI*%
%TO.N,+BATT*%
X157700000Y-111150000D03*
%TD*%
D29*
%TO.P,D1,1,K*%
%TO.N,GND*%
X166000000Y-114600000D03*
%TO.P,D1,2,A*%
%TO.N,Net-(J1-Pad2)*%
X166000000Y-117400000D03*
%TD*%
D30*
%TO.P,U2,1*%
%TO.N,Pyro_2*%
X178810000Y-73765000D03*
%TO.P,U2,2*%
%TO.N,GND*%
X176270000Y-73765000D03*
%TO.P,U2,3*%
%TO.N,Pyro_1*%
X173730000Y-73765000D03*
%TO.P,U2,4*%
%TO.N,GND*%
X171190000Y-73765000D03*
%TO.P,U2,5*%
%TO.N,Net-(Q1-Pad1)*%
X171190000Y-64235000D03*
%TO.P,U2,6*%
%TO.N,+BATT*%
X173730000Y-64235000D03*
%TO.P,U2,7*%
%TO.N,Net-(Q2-Pad1)*%
X176270000Y-64235000D03*
%TO.P,U2,8*%
%TO.N,+BATT*%
X178810000Y-64235000D03*
%TD*%
D25*
%TO.P,R2,1*%
%TO.N,GND*%
X165925000Y-72000000D03*
%TO.P,R2,2*%
%TO.N,Net-(Q2-Pad1)*%
X163000000Y-72000000D03*
%TD*%
D31*
%TO.P,D3,1,K*%
%TO.N,Net-(J10-Pad2)*%
X163100000Y-63000000D03*
%TO.P,D3,2,A*%
%TO.N,Net-(J4-Pad1)*%
X160300000Y-63000000D03*
%TD*%
%TO.P,D2,1,K*%
%TO.N,Net-(J2-Pad2)*%
X189400000Y-63000000D03*
%TO.P,D2,2,A*%
%TO.N,Net-(J2-Pad1)*%
X186600000Y-63000000D03*
%TD*%
D32*
%TO.N,*%
X153000000Y-117000000D03*
X197000000Y-117000000D03*
X153000000Y-63000000D03*
X197000000Y-63000000D03*
D33*
%TO.N,+BATT*%
X161835500Y-109000000D03*
%TD*%
D34*
%TO.N,GND*%
X183000000Y-104449520D02*
X183695000Y-105144520D01*
X176270000Y-79990000D02*
X176260000Y-80000000D01*
X158750000Y-83730000D02*
X158750000Y-86350000D01*
X172000000Y-71000000D02*
X171190000Y-71810000D01*
X187700000Y-72237500D02*
X187462500Y-72000000D01*
X187700000Y-75720000D02*
X187700000Y-72237500D01*
X159000000Y-89525000D02*
X158750000Y-89275000D01*
X186000000Y-82000000D02*
X182000000Y-78000000D01*
X165925000Y-76555000D02*
X158750000Y-83730000D01*
D35*
X162500000Y-115000000D02*
X162500000Y-111350000D01*
D34*
X158750000Y-89275000D02*
X158750000Y-86350000D01*
X176270000Y-73765000D02*
X176270000Y-72270000D01*
X162500000Y-115000000D02*
X165600000Y-115000000D01*
X165600000Y-115000000D02*
X166000000Y-114600000D01*
X182000000Y-78000000D02*
X182000000Y-73000000D01*
X167690000Y-73765000D02*
X165925000Y-72000000D01*
X176260000Y-80000000D02*
X171190000Y-74930000D01*
X178000000Y-106000000D02*
X179550480Y-104449520D01*
X179550480Y-104449520D02*
X183000000Y-104449520D01*
X178000000Y-106000000D02*
X178000000Y-111000000D01*
X176700000Y-112300000D02*
X176000000Y-112300000D01*
X165925000Y-72000000D02*
X165925000Y-76555000D01*
X190000000Y-82000000D02*
X186000000Y-82000000D01*
X190000000Y-79000000D02*
X190000000Y-82000000D01*
X180000000Y-71000000D02*
X175000000Y-71000000D01*
X176270000Y-72270000D02*
X175000000Y-71000000D01*
X183695000Y-105144520D02*
X183695000Y-106200000D01*
X187700000Y-75720000D02*
X187700000Y-76700000D01*
X178000000Y-111000000D02*
X176700000Y-112300000D01*
X187700000Y-76700000D02*
X190000000Y-79000000D01*
X171190000Y-71810000D02*
X171190000Y-73765000D01*
X162500000Y-111350000D02*
X162300000Y-111150000D01*
X182000000Y-73000000D02*
X180000000Y-71000000D01*
X171190000Y-73765000D02*
X167690000Y-73765000D01*
X171190000Y-74930000D02*
X171190000Y-73765000D01*
X175000000Y-71000000D02*
X172000000Y-71000000D01*
%TO.N,Pyro_1*%
X185000000Y-84000000D02*
X194000000Y-84000000D01*
X195000000Y-87000000D02*
X187000000Y-95000000D01*
X187000000Y-95000000D02*
X171000000Y-95000000D01*
X166370000Y-99630000D02*
X166370000Y-101590000D01*
X175000000Y-77000000D02*
X179000000Y-77000000D01*
X173730000Y-75730000D02*
X175000000Y-77000000D01*
X195000000Y-85000000D02*
X195000000Y-87000000D01*
X181000000Y-80000000D02*
X185000000Y-84000000D01*
X181000000Y-79000000D02*
X181000000Y-80000000D01*
X171000000Y-95000000D02*
X166370000Y-99630000D01*
X173730000Y-73765000D02*
X173730000Y-75730000D01*
X179000000Y-77000000D02*
X181000000Y-79000000D01*
X194000000Y-84000000D02*
X195000000Y-85000000D01*
%TO.N,Pyro_2*%
X172500000Y-98000000D02*
X168910000Y-101590000D01*
X178810000Y-73765000D02*
X178810000Y-75810000D01*
X186635718Y-98000000D02*
X172500000Y-98000000D01*
X197000000Y-87635718D02*
X186635718Y-98000000D01*
X195000000Y-83000000D02*
X197000000Y-85000000D01*
X178810000Y-75810000D02*
X186000000Y-83000000D01*
X197000000Y-85000000D02*
X197000000Y-87635718D01*
X186000000Y-83000000D02*
X195000000Y-83000000D01*
%TO.N,CS*%
X184150000Y-101590000D02*
X185560000Y-103000000D01*
X188095000Y-104095000D02*
X188095000Y-106200000D01*
X185560000Y-103000000D02*
X187000000Y-103000000D01*
X187000000Y-103000000D02*
X188095000Y-104095000D01*
%TO.N,MOSI*%
X193900000Y-103000000D02*
X195400000Y-104500000D01*
X189600000Y-109200000D02*
X186995000Y-106595000D01*
X186995000Y-106595000D02*
X186995000Y-105500000D01*
X195400000Y-104500000D02*
X195400000Y-106400000D01*
X192600000Y-109200000D02*
X189600000Y-109200000D01*
X195400000Y-106400000D02*
X192600000Y-109200000D01*
X189230000Y-101590000D02*
X190640000Y-103000000D01*
X190640000Y-103000000D02*
X193900000Y-103000000D01*
%TO.N,MISO*%
X182575000Y-110575000D02*
X182575000Y-107650000D01*
X182575000Y-107650000D02*
X182595000Y-107630000D01*
X195590000Y-101590000D02*
X197000000Y-103000000D01*
X191770000Y-101590000D02*
X195590000Y-101590000D01*
X197000000Y-107000000D02*
X191000000Y-113000000D01*
X197000000Y-103000000D02*
X197000000Y-107000000D01*
X191000000Y-113000000D02*
X185000000Y-113000000D01*
X182595000Y-107630000D02*
X182595000Y-106200000D01*
X185000000Y-113000000D02*
X182575000Y-110575000D01*
%TO.N,SCK*%
X162000000Y-108000000D02*
X166000000Y-104000000D01*
X188120000Y-90000000D02*
X169000000Y-90000000D01*
X157000000Y-97000000D02*
X154000000Y-100000000D01*
X184795000Y-105075000D02*
X184795000Y-106200000D01*
X154000000Y-100000000D02*
X154000000Y-104000000D01*
X158000000Y-108000000D02*
X162000000Y-108000000D01*
X166000000Y-104000000D02*
X183720000Y-104000000D01*
X162000000Y-97000000D02*
X157000000Y-97000000D01*
X191770000Y-86350000D02*
X188120000Y-90000000D01*
X169000000Y-90000000D02*
X162000000Y-97000000D01*
X154000000Y-104000000D02*
X158000000Y-108000000D01*
X183720000Y-104000000D02*
X184795000Y-105075000D01*
%TO.N,SDA*%
X171180000Y-83540000D02*
X173990000Y-86350000D01*
X171180000Y-80000000D02*
X171180000Y-83540000D01*
%TO.N,3.3v*%
X161850000Y-103000000D02*
X183820000Y-103000000D01*
X153000000Y-105000000D02*
X157000000Y-109000000D01*
X185895000Y-105075000D02*
X185895000Y-106200000D01*
X159000000Y-109000000D02*
X160000000Y-110000000D01*
X162525000Y-92475000D02*
X166000000Y-89000000D01*
X160000000Y-110000000D02*
X160000000Y-111150000D01*
X157000000Y-109000000D02*
X159000000Y-109000000D01*
X153000000Y-103000000D02*
X153000000Y-105000000D01*
X183800000Y-85000000D02*
X187880000Y-85000000D01*
X183820000Y-103000000D02*
X185895000Y-105075000D01*
X153000000Y-103000000D02*
X153000000Y-96000000D01*
X186580000Y-89000000D02*
X189230000Y-86350000D01*
X166000000Y-89000000D02*
X186580000Y-89000000D01*
X187880000Y-85000000D02*
X189230000Y-86350000D01*
X153000000Y-96000000D02*
X156525000Y-92475000D01*
X160000000Y-104850000D02*
X161850000Y-103000000D01*
X159000000Y-92475000D02*
X162525000Y-92475000D01*
X156525000Y-92475000D02*
X159000000Y-92475000D01*
X178800000Y-80000000D02*
X183800000Y-85000000D01*
D35*
%TO.N,+BATT*%
X151000000Y-75000000D02*
X154000000Y-72000000D01*
X166000000Y-109000000D02*
X166500000Y-109500000D01*
X173460000Y-109500000D02*
X176000000Y-109500000D01*
X161835500Y-109000000D02*
X166000000Y-109000000D01*
X168380000Y-109500000D02*
X170920000Y-109500000D01*
D34*
X159000000Y-61000000D02*
X157000000Y-63000000D01*
X178810000Y-61810000D02*
X178000000Y-61000000D01*
D35*
X166500000Y-109500000D02*
X168380000Y-109500000D01*
D34*
X156000000Y-72000000D02*
X154000000Y-72000000D01*
X173730000Y-64235000D02*
X173730000Y-65730000D01*
X178810000Y-64235000D02*
X178810000Y-61810000D01*
X178000000Y-61000000D02*
X159000000Y-61000000D01*
D35*
X155550000Y-109000000D02*
X157700000Y-111150000D01*
X153000000Y-109000000D02*
X155550000Y-109000000D01*
X151000000Y-107000000D02*
X151000000Y-75000000D01*
X170920000Y-109500000D02*
X173460000Y-109500000D01*
D34*
X157000000Y-71000000D02*
X156000000Y-72000000D01*
D35*
X153000000Y-109000000D02*
X151000000Y-107000000D01*
D34*
X178000000Y-66000000D02*
X179000000Y-65000000D01*
X173730000Y-65730000D02*
X174000000Y-66000000D01*
X157000000Y-63000000D02*
X157000000Y-71000000D01*
X174000000Y-66000000D02*
X178000000Y-66000000D01*
D35*
%TO.N,Net-(J2-Pad1)*%
X194000000Y-74000000D02*
X190000000Y-70000000D01*
X186250000Y-67000000D02*
X186250000Y-63350000D01*
D34*
X196200000Y-76720000D02*
X196720000Y-76720000D01*
D35*
X186250000Y-63350000D02*
X186600000Y-63000000D01*
X194000000Y-78000000D02*
X194000000Y-74000000D01*
D34*
X186250000Y-67250000D02*
X186250000Y-67000000D01*
D35*
X189000000Y-70000000D02*
X186250000Y-67250000D01*
X190000000Y-70000000D02*
X189000000Y-70000000D01*
D34*
%TO.N,Net-(J1-Pad2)*%
X159000000Y-117000000D02*
X159400000Y-117400000D01*
X159400000Y-117400000D02*
X167000000Y-117400000D01*
X159000000Y-115000000D02*
X159000000Y-117000000D01*
D35*
%TO.N,Net-(J2-Pad2)*%
X189750000Y-63350000D02*
X189400000Y-63000000D01*
X189750000Y-67000000D02*
X189750000Y-63350000D01*
%TO.N,Net-(J10-Pad2)*%
X163500000Y-67000000D02*
X163500000Y-63500000D01*
X163500000Y-63500000D02*
X163000000Y-63000000D01*
D34*
%TO.N,Net-(Q1-Pad1)*%
X186700000Y-80280000D02*
X184537500Y-78117500D01*
X184537500Y-78117500D02*
X184537500Y-72000000D01*
X171190000Y-64235000D02*
X171190000Y-66000000D01*
X183000000Y-72000000D02*
X184537500Y-72000000D01*
X181000000Y-70000000D02*
X183000000Y-72000000D01*
X175190000Y-70000000D02*
X181000000Y-70000000D01*
X187700000Y-80280000D02*
X186700000Y-80280000D01*
X171190000Y-66000000D02*
X175190000Y-70000000D01*
%TO.N,Net-(Q2-Pad1)*%
X168000000Y-62000000D02*
X166000000Y-64000000D01*
X166000000Y-64000000D02*
X166000000Y-69000000D01*
X163000000Y-72000000D02*
X163000000Y-71000000D01*
X176270000Y-63235000D02*
X175035000Y-62000000D01*
X162200000Y-75720000D02*
X162200000Y-72800000D01*
X166000000Y-69000000D02*
X163000000Y-72000000D01*
X162200000Y-72800000D02*
X163000000Y-72000000D01*
X175035000Y-62000000D02*
X168000000Y-62000000D01*
D35*
%TO.N,Net-(J4-Pad1)*%
X155900000Y-79000000D02*
X155900000Y-75100000D01*
X160000000Y-71000000D02*
X160000000Y-67000000D01*
X155900000Y-75100000D02*
X160000000Y-71000000D01*
D34*
X160100000Y-67100000D02*
X160000000Y-67000000D01*
D36*
X160000000Y-67000000D02*
X160000000Y-63600000D01*
D35*
X160000000Y-63600000D02*
X160600000Y-63000000D01*
%TD*%
M02*
