%TF.GenerationSoftware,KiCad,Pcbnew,(6.0.1)*%
%TF.CreationDate,2022-07-09T15:16:54+02:00*%
%TF.ProjectId,NANOFC,4e414e4f-4643-42e6-9b69-6361645f7063,rev?*%
%TF.SameCoordinates,Original*%
%TF.FileFunction,Soldermask,Bot*%
%TF.FilePolarity,Negative*%
%FSLAX46Y46*%
G04 Gerber Fmt 4.6, Leading zero omitted, Abs format (unit mm)*
G04 Created by KiCad (PCBNEW (6.0.1)) date 2022-07-09 15:16:54*
%MOMM*%
%LPD*%
G01*
G04 APERTURE LIST*
G04 Aperture macros list*
%AMRoundRect*
0 Rectangle with rounded corners*
0 $1 Rounding radius*
0 $2 $3 $4 $5 $6 $7 $8 $9 X,Y pos of 4 corners*
0 Add a 4 corners polygon primitive as box body*
4,1,4,$2,$3,$4,$5,$6,$7,$8,$9,$2,$3,0*
0 Add four circle primitives for the rounded corners*
1,1,$1+$1,$2,$3*
1,1,$1+$1,$4,$5*
1,1,$1+$1,$6,$7*
1,1,$1+$1,$8,$9*
0 Add four rect primitives between the rounded corners*
20,1,$1+$1,$2,$3,$4,$5,0*
20,1,$1+$1,$4,$5,$6,$7,0*
20,1,$1+$1,$6,$7,$8,$9,0*
20,1,$1+$1,$8,$9,$2,$3,0*%
G04 Aperture macros list end*
%ADD10R,2.600000X2.600000*%
%ADD11C,2.600000*%
%ADD12R,1.700000X1.700000*%
%ADD13O,1.700000X1.700000*%
%ADD14R,1.600000X1.600000*%
%ADD15O,1.600000X1.600000*%
%ADD16R,0.700000X1.750000*%
%ADD17R,1.450000X1.000000*%
%ADD18R,1.000000X1.550000*%
%ADD19R,1.500000X1.500000*%
%ADD20R,0.800000X1.500000*%
%ADD21R,0.800000X1.400000*%
%ADD22R,1.300000X1.500000*%
%ADD23R,2.200000X1.200000*%
%ADD24R,6.400000X5.800000*%
%ADD25RoundRect,0.250000X0.312500X1.075000X-0.312500X1.075000X-0.312500X-1.075000X0.312500X-1.075000X0*%
%ADD26RoundRect,0.250000X1.100000X-0.325000X1.100000X0.325000X-1.100000X0.325000X-1.100000X-0.325000X0*%
%ADD27R,1.500000X2.000000*%
%ADD28R,3.800000X2.000000*%
%ADD29RoundRect,0.250000X-1.075000X0.375000X-1.075000X-0.375000X1.075000X-0.375000X1.075000X0.375000X0*%
%ADD30R,1.780000X2.000000*%
%ADD31RoundRect,0.250000X0.375000X1.075000X-0.375000X1.075000X-0.375000X-1.075000X0.375000X-1.075000X0*%
G04 APERTURE END LIST*
D10*
%TO.C,Pyro 1*%
X160000000Y-67000000D03*
D11*
X163500000Y-67000000D03*
%TD*%
D12*
%TO.C,Master Arm*%
X153000000Y-109000000D03*
D13*
X153000000Y-111540000D03*
%TD*%
D12*
%TO.C,J3*%
X178800000Y-80000000D03*
D13*
X176260000Y-80000000D03*
X173720000Y-80000000D03*
X171180000Y-80000000D03*
%TD*%
D12*
%TO.C,GND*%
X176000000Y-112300000D03*
D13*
X173460000Y-112300000D03*
X170920000Y-112300000D03*
X168380000Y-112300000D03*
%TD*%
D14*
%TO.C,A1*%
X156210000Y-101590000D03*
D15*
X158750000Y-101590000D03*
X161290000Y-101590000D03*
X163830000Y-101590000D03*
X166370000Y-101590000D03*
X168910000Y-101590000D03*
X171450000Y-101590000D03*
X173990000Y-101590000D03*
X176530000Y-101590000D03*
X179070000Y-101590000D03*
X181610000Y-101590000D03*
X184150000Y-101590000D03*
X186690000Y-101590000D03*
X189230000Y-101590000D03*
X191770000Y-101590000D03*
X191770000Y-86350000D03*
X189230000Y-86350000D03*
X186690000Y-86350000D03*
X184150000Y-86350000D03*
X181610000Y-86350000D03*
X179070000Y-86350000D03*
X176530000Y-86350000D03*
X173990000Y-86350000D03*
X171450000Y-86350000D03*
X168910000Y-86350000D03*
X166370000Y-86350000D03*
X163830000Y-86350000D03*
X161290000Y-86350000D03*
X158750000Y-86350000D03*
X156210000Y-86350000D03*
%TD*%
D12*
%TO.C,P2 Arm*%
X196000000Y-72000000D03*
D13*
X196000000Y-69460000D03*
%TD*%
D12*
%TO.C,V+*%
X176000000Y-109500000D03*
D13*
X173460000Y-109500000D03*
X170920000Y-109500000D03*
X168380000Y-109500000D03*
%TD*%
D10*
%TO.C,Pyro 2*%
X186250000Y-67000000D03*
D11*
X189750000Y-67000000D03*
%TD*%
D10*
%TO.C,J1*%
X162500000Y-115000000D03*
D11*
X159000000Y-115000000D03*
%TD*%
D12*
%TO.C,P1 Arm*%
X154000000Y-72000000D03*
D13*
X154000000Y-69460000D03*
%TD*%
D12*
%TO.C,SIG*%
X176000000Y-106700000D03*
D13*
X173460000Y-106700000D03*
X170920000Y-106700000D03*
X168380000Y-106700000D03*
%TD*%
D16*
%TO.C,J11*%
X189195000Y-106200000D03*
X188095000Y-106200000D03*
X186995000Y-106200000D03*
X185895000Y-106200000D03*
X184795000Y-106200000D03*
X183695000Y-106200000D03*
X182595000Y-106200000D03*
X181495000Y-106200000D03*
D17*
X180370000Y-115425000D03*
D18*
X191595000Y-117000000D03*
D19*
X191645000Y-106325000D03*
D20*
X180045000Y-113925000D03*
D21*
X191995000Y-114575000D03*
D22*
X180295000Y-106325000D03*
%TD*%
D23*
%TO.C,Q1*%
X187700000Y-80280000D03*
D24*
X194000000Y-78000000D03*
D23*
X187700000Y-75720000D03*
%TD*%
D25*
%TO.C,R1*%
X187462500Y-72000000D03*
X184537500Y-72000000D03*
%TD*%
D26*
%TO.C,C1*%
X159000000Y-92475000D03*
X159000000Y-89525000D03*
%TD*%
D23*
%TO.C,Q2*%
X162200000Y-75720000D03*
D24*
X155900000Y-78000000D03*
D23*
X162200000Y-80280000D03*
%TD*%
D27*
%TO.C,U1*%
X162300000Y-111150000D03*
D28*
X160000000Y-104850000D03*
D27*
X160000000Y-111150000D03*
X157700000Y-111150000D03*
%TD*%
D29*
%TO.C,D1*%
X166000000Y-114600000D03*
X166000000Y-117400000D03*
%TD*%
D30*
%TO.C,U2*%
X178810000Y-73765000D03*
X176270000Y-73765000D03*
X173730000Y-73765000D03*
X171190000Y-73765000D03*
X171190000Y-64235000D03*
X173730000Y-64235000D03*
X176270000Y-64235000D03*
X178810000Y-64235000D03*
%TD*%
D25*
%TO.C,R2*%
X165925000Y-72000000D03*
X163000000Y-72000000D03*
%TD*%
D31*
%TO.C,D3*%
X163100000Y-63000000D03*
X160300000Y-63000000D03*
%TD*%
%TO.C,D2*%
X189400000Y-63000000D03*
X186600000Y-63000000D03*
%TD*%
M02*
