%TF.GenerationSoftware,KiCad,Pcbnew,(6.0.1)*%
%TF.CreationDate,2022-07-09T15:16:54+02:00*%
%TF.ProjectId,NANOFC,4e414e4f-4643-42e6-9b69-6361645f7063,rev?*%
%TF.SameCoordinates,Original*%
%TF.FileFunction,Legend,Bot*%
%TF.FilePolarity,Positive*%
%FSLAX46Y46*%
G04 Gerber Fmt 4.6, Leading zero omitted, Abs format (unit mm)*
G04 Created by KiCad (PCBNEW (6.0.1)) date 2022-07-09 15:16:54*
%MOMM*%
%LPD*%
G01*
G04 APERTURE LIST*
%ADD10C,0.150000*%
%ADD11C,0.120000*%
G04 APERTURE END LIST*
D10*
%TO.C,J11*%
X186804523Y-118627380D02*
X186804523Y-119341666D01*
X186852142Y-119484523D01*
X186947380Y-119579761D01*
X187090238Y-119627380D01*
X187185476Y-119627380D01*
X185804523Y-119627380D02*
X186375952Y-119627380D01*
X186090238Y-119627380D02*
X186090238Y-118627380D01*
X186185476Y-118770238D01*
X186280714Y-118865476D01*
X186375952Y-118913095D01*
X184852142Y-119627380D02*
X185423571Y-119627380D01*
X185137857Y-119627380D02*
X185137857Y-118627380D01*
X185233095Y-118770238D01*
X185328333Y-118865476D01*
X185423571Y-118913095D01*
%TO.C,Q1*%
X193995238Y-82547619D02*
X194090476Y-82500000D01*
X194185714Y-82404761D01*
X194328571Y-82261904D01*
X194423809Y-82214285D01*
X194519047Y-82214285D01*
X194471428Y-82452380D02*
X194566666Y-82404761D01*
X194661904Y-82309523D01*
X194709523Y-82119047D01*
X194709523Y-81785714D01*
X194661904Y-81595238D01*
X194566666Y-81500000D01*
X194471428Y-81452380D01*
X194280952Y-81452380D01*
X194185714Y-81500000D01*
X194090476Y-81595238D01*
X194042857Y-81785714D01*
X194042857Y-82119047D01*
X194090476Y-82309523D01*
X194185714Y-82404761D01*
X194280952Y-82452380D01*
X194471428Y-82452380D01*
X193090476Y-82452380D02*
X193661904Y-82452380D01*
X193376190Y-82452380D02*
X193376190Y-81452380D01*
X193471428Y-81595238D01*
X193566666Y-81690476D01*
X193661904Y-81738095D01*
%TO.C,R1*%
X186452380Y-68833333D02*
X185976190Y-68500000D01*
X186452380Y-68261904D02*
X185452380Y-68261904D01*
X185452380Y-68642857D01*
X185500000Y-68738095D01*
X185547619Y-68785714D01*
X185642857Y-68833333D01*
X185785714Y-68833333D01*
X185880952Y-68785714D01*
X185928571Y-68738095D01*
X185976190Y-68642857D01*
X185976190Y-68261904D01*
X186452380Y-69785714D02*
X186452380Y-69214285D01*
X186452380Y-69500000D02*
X185452380Y-69500000D01*
X185595238Y-69404761D01*
X185690476Y-69309523D01*
X185738095Y-69214285D01*
%TO.C,C1*%
X161657142Y-90833333D02*
X161704761Y-90785714D01*
X161752380Y-90642857D01*
X161752380Y-90547619D01*
X161704761Y-90404761D01*
X161609523Y-90309523D01*
X161514285Y-90261904D01*
X161323809Y-90214285D01*
X161180952Y-90214285D01*
X160990476Y-90261904D01*
X160895238Y-90309523D01*
X160800000Y-90404761D01*
X160752380Y-90547619D01*
X160752380Y-90642857D01*
X160800000Y-90785714D01*
X160847619Y-90833333D01*
X161752380Y-91785714D02*
X161752380Y-91214285D01*
X161752380Y-91500000D02*
X160752380Y-91500000D01*
X160895238Y-91404761D01*
X160990476Y-91309523D01*
X161038095Y-91214285D01*
%TO.C,Q2*%
X156095238Y-82547619D02*
X156190476Y-82500000D01*
X156285714Y-82404761D01*
X156428571Y-82261904D01*
X156523809Y-82214285D01*
X156619047Y-82214285D01*
X156571428Y-82452380D02*
X156666666Y-82404761D01*
X156761904Y-82309523D01*
X156809523Y-82119047D01*
X156809523Y-81785714D01*
X156761904Y-81595238D01*
X156666666Y-81500000D01*
X156571428Y-81452380D01*
X156380952Y-81452380D01*
X156285714Y-81500000D01*
X156190476Y-81595238D01*
X156142857Y-81785714D01*
X156142857Y-82119047D01*
X156190476Y-82309523D01*
X156285714Y-82404761D01*
X156380952Y-82452380D01*
X156571428Y-82452380D01*
X155761904Y-81547619D02*
X155714285Y-81500000D01*
X155619047Y-81452380D01*
X155380952Y-81452380D01*
X155285714Y-81500000D01*
X155238095Y-81547619D01*
X155190476Y-81642857D01*
X155190476Y-81738095D01*
X155238095Y-81880952D01*
X155809523Y-82452380D01*
X155190476Y-82452380D01*
%TO.C,U1*%
X163952380Y-107238095D02*
X164761904Y-107238095D01*
X164857142Y-107285714D01*
X164904761Y-107333333D01*
X164952380Y-107428571D01*
X164952380Y-107619047D01*
X164904761Y-107714285D01*
X164857142Y-107761904D01*
X164761904Y-107809523D01*
X163952380Y-107809523D01*
X164952380Y-108809523D02*
X164952380Y-108238095D01*
X164952380Y-108523809D02*
X163952380Y-108523809D01*
X164095238Y-108428571D01*
X164190476Y-108333333D01*
X164238095Y-108238095D01*
%TO.C,D1*%
X164172380Y-115261904D02*
X163172380Y-115261904D01*
X163172380Y-115500000D01*
X163220000Y-115642857D01*
X163315238Y-115738095D01*
X163410476Y-115785714D01*
X163600952Y-115833333D01*
X163743809Y-115833333D01*
X163934285Y-115785714D01*
X164029523Y-115738095D01*
X164124761Y-115642857D01*
X164172380Y-115500000D01*
X164172380Y-115261904D01*
X164172380Y-116785714D02*
X164172380Y-116214285D01*
X164172380Y-116500000D02*
X163172380Y-116500000D01*
X163315238Y-116404761D01*
X163410476Y-116309523D01*
X163458095Y-116214285D01*
%TO.C,U2*%
X180592380Y-68238095D02*
X181401904Y-68238095D01*
X181497142Y-68285714D01*
X181544761Y-68333333D01*
X181592380Y-68428571D01*
X181592380Y-68619047D01*
X181544761Y-68714285D01*
X181497142Y-68761904D01*
X181401904Y-68809523D01*
X180592380Y-68809523D01*
X180687619Y-69238095D02*
X180640000Y-69285714D01*
X180592380Y-69380952D01*
X180592380Y-69619047D01*
X180640000Y-69714285D01*
X180687619Y-69761904D01*
X180782857Y-69809523D01*
X180878095Y-69809523D01*
X181020952Y-69761904D01*
X181592380Y-69190476D01*
X181592380Y-69809523D01*
%TO.C,R2*%
X164914880Y-74833333D02*
X164438690Y-74500000D01*
X164914880Y-74261904D02*
X163914880Y-74261904D01*
X163914880Y-74642857D01*
X163962500Y-74738095D01*
X164010119Y-74785714D01*
X164105357Y-74833333D01*
X164248214Y-74833333D01*
X164343452Y-74785714D01*
X164391071Y-74738095D01*
X164438690Y-74642857D01*
X164438690Y-74261904D01*
X164010119Y-75214285D02*
X163962500Y-75261904D01*
X163914880Y-75357142D01*
X163914880Y-75595238D01*
X163962500Y-75690476D01*
X164010119Y-75738095D01*
X164105357Y-75785714D01*
X164200595Y-75785714D01*
X164343452Y-75738095D01*
X164914880Y-75166666D01*
X164914880Y-75785714D01*
%TO.C,D3*%
X162438095Y-61172380D02*
X162438095Y-60172380D01*
X162200000Y-60172380D01*
X162057142Y-60220000D01*
X161961904Y-60315238D01*
X161914285Y-60410476D01*
X161866666Y-60600952D01*
X161866666Y-60743809D01*
X161914285Y-60934285D01*
X161961904Y-61029523D01*
X162057142Y-61124761D01*
X162200000Y-61172380D01*
X162438095Y-61172380D01*
X161533333Y-60172380D02*
X160914285Y-60172380D01*
X161247619Y-60553333D01*
X161104761Y-60553333D01*
X161009523Y-60600952D01*
X160961904Y-60648571D01*
X160914285Y-60743809D01*
X160914285Y-60981904D01*
X160961904Y-61077142D01*
X161009523Y-61124761D01*
X161104761Y-61172380D01*
X161390476Y-61172380D01*
X161485714Y-61124761D01*
X161533333Y-61077142D01*
%TO.C,D2*%
X188738095Y-61172380D02*
X188738095Y-60172380D01*
X188500000Y-60172380D01*
X188357142Y-60220000D01*
X188261904Y-60315238D01*
X188214285Y-60410476D01*
X188166666Y-60600952D01*
X188166666Y-60743809D01*
X188214285Y-60934285D01*
X188261904Y-61029523D01*
X188357142Y-61124761D01*
X188500000Y-61172380D01*
X188738095Y-61172380D01*
X187785714Y-60267619D02*
X187738095Y-60220000D01*
X187642857Y-60172380D01*
X187404761Y-60172380D01*
X187309523Y-60220000D01*
X187261904Y-60267619D01*
X187214285Y-60362857D01*
X187214285Y-60458095D01*
X187261904Y-60600952D01*
X187833333Y-61172380D01*
X187214285Y-61172380D01*
D11*
%TO.C,J11*%
X192455000Y-117335000D02*
X192455000Y-115525000D01*
X179585000Y-117335000D02*
X190845000Y-117335000D01*
X192345000Y-117335000D02*
X192455000Y-117335000D01*
X179585000Y-112925000D02*
X179585000Y-107325000D01*
X179585000Y-116175000D02*
X179585000Y-117335000D01*
X192455000Y-113625000D02*
X192455000Y-107325000D01*
%TO.C,Q1*%
X190930000Y-81450000D02*
X189430000Y-81450000D01*
X189430000Y-81450000D02*
X189430000Y-81180000D01*
X189430000Y-81180000D02*
X186600000Y-81180000D01*
X189430000Y-74820000D02*
X188330000Y-74820000D01*
X189430000Y-74550000D02*
X189430000Y-74820000D01*
X190930000Y-74550000D02*
X189430000Y-74550000D01*
%TO.C,R1*%
X186723737Y-73355000D02*
X185276263Y-73355000D01*
X186723737Y-70645000D02*
X185276263Y-70645000D01*
%TO.C,C1*%
X157640000Y-91711252D02*
X157640000Y-90288748D01*
X160360000Y-91711252D02*
X160360000Y-90288748D01*
%TO.C,Q2*%
X160470000Y-74820000D02*
X163300000Y-74820000D01*
X158970000Y-74550000D02*
X160470000Y-74550000D01*
X160470000Y-81450000D02*
X160470000Y-81180000D01*
X160470000Y-81180000D02*
X161570000Y-81180000D01*
X158970000Y-81450000D02*
X160470000Y-81450000D01*
X160470000Y-74550000D02*
X160470000Y-74820000D01*
%TO.C,U1*%
X156590000Y-109850000D02*
X156590000Y-106090000D01*
X163410000Y-112100000D02*
X163410000Y-106090000D01*
X163410000Y-106090000D02*
X162150000Y-106090000D01*
X156590000Y-106090000D02*
X157850000Y-106090000D01*
%TO.C,D1*%
X164415000Y-113715000D02*
X167585000Y-113715000D01*
X164415000Y-117600000D02*
X164415000Y-113715000D01*
X167585000Y-113715000D02*
X167585000Y-117600000D01*
%TO.C,U2*%
X180140000Y-65765000D02*
X180140000Y-68000000D01*
X169860000Y-72235000D02*
X169860000Y-65765000D01*
X169860000Y-65765000D02*
X180140000Y-65765000D01*
X180140000Y-70000000D02*
X180140000Y-72235000D01*
X180140000Y-72235000D02*
X169860000Y-72235000D01*
X180140000Y-68000000D02*
G75*
G03*
X180140000Y-70000000I0J-1000000D01*
G01*
%TO.C,R2*%
X165186237Y-70645000D02*
X163738763Y-70645000D01*
X165186237Y-73355000D02*
X163738763Y-73355000D01*
%TO.C,D3*%
X160100000Y-61415000D02*
X163985000Y-61415000D01*
X163985000Y-64585000D02*
X160100000Y-64585000D01*
X163985000Y-61415000D02*
X163985000Y-64585000D01*
%TO.C,D2*%
X190285000Y-64585000D02*
X186400000Y-64585000D01*
X186400000Y-61415000D02*
X190285000Y-61415000D01*
X190285000Y-61415000D02*
X190285000Y-64585000D01*
%TD*%
M02*
