%TF.GenerationSoftware,KiCad,Pcbnew,(6.0.1)*%
%TF.CreationDate,2022-02-19T19:07:31+01:00*%
%TF.ProjectId,NANOFC,4e414e4f-4643-42e6-9b69-6361645f7063,rev?*%
%TF.SameCoordinates,Original*%
%TF.FileFunction,Legend,Top*%
%TF.FilePolarity,Positive*%
%FSLAX46Y46*%
G04 Gerber Fmt 4.6, Leading zero omitted, Abs format (unit mm)*
G04 Created by KiCad (PCBNEW (6.0.1)) date 2022-02-19 19:07:31*
%MOMM*%
%LPD*%
G01*
G04 APERTURE LIST*
%ADD10C,0.120000*%
G04 APERTURE END LIST*
D10*
%TO.C,J4*%
X158600000Y-64000000D02*
X161400000Y-64000000D01*
X165810000Y-63240000D02*
X165810000Y-71660000D01*
X164900000Y-64000000D02*
X164900000Y-66311000D01*
X158600000Y-64000000D02*
X158600000Y-65460000D01*
X157690000Y-68101000D02*
X158460000Y-68101000D01*
X161540000Y-68101000D02*
X162367000Y-68101000D01*
X164900000Y-67689000D02*
X164900000Y-67750000D01*
X157450000Y-69660000D02*
X157450000Y-71900000D01*
X164900000Y-67750000D02*
X164900000Y-67750000D01*
X157690000Y-63240000D02*
X157690000Y-71660000D01*
X164634000Y-68101000D02*
X165810000Y-68101000D01*
X162100000Y-67750000D02*
X162101000Y-67750000D01*
X157450000Y-71900000D02*
X159450000Y-71900000D01*
X162100000Y-67689000D02*
X162100000Y-67750000D01*
X161400000Y-64000000D02*
X161400000Y-65460000D01*
X162100000Y-64000000D02*
X164900000Y-64000000D01*
X157690000Y-71660000D02*
X165810000Y-71660000D01*
X162100000Y-64000000D02*
X162100000Y-66311000D01*
X157690000Y-63240000D02*
X165810000Y-63240000D01*
X164440000Y-65742000D02*
G75*
G03*
X162560085Y-65742233I-940000J342000D01*
G01*
X160998000Y-65469000D02*
G75*
G03*
X159002110Y-65470566I-998000J69000D01*
G01*
%TO.C,J8*%
X151670000Y-112870000D02*
X154330000Y-112870000D01*
X154330000Y-110270000D02*
X154330000Y-112870000D01*
X151670000Y-110270000D02*
X151670000Y-112870000D01*
X151670000Y-110270000D02*
X154330000Y-110270000D01*
X151670000Y-109000000D02*
X151670000Y-107670000D01*
X151670000Y-107670000D02*
X153000000Y-107670000D01*
%TO.C,BZ1*%
X195900000Y-112500000D02*
G75*
G03*
X195900000Y-109500001I-6400010J1499999D01*
G01*
X195730000Y-111000000D02*
G75*
G03*
X195730000Y-111000000I-6230000J0D01*
G01*
%TO.C,J3*%
X171200000Y-82330000D02*
X169870000Y-82330000D01*
X172470000Y-82330000D02*
X180150000Y-82330000D01*
X172470000Y-79670000D02*
X180150000Y-79670000D01*
X180150000Y-82330000D02*
X180150000Y-79670000D01*
X169870000Y-82330000D02*
X169870000Y-81000000D01*
X172470000Y-82330000D02*
X172470000Y-79670000D01*
%TO.C,J7*%
X181930000Y-109270000D02*
X181930000Y-116950000D01*
X179270000Y-109270000D02*
X181930000Y-109270000D01*
X179270000Y-106670000D02*
X180600000Y-106670000D01*
X179270000Y-108000000D02*
X179270000Y-106670000D01*
X179270000Y-116950000D02*
X181930000Y-116950000D01*
X179270000Y-109270000D02*
X179270000Y-116950000D01*
%TO.C,A1*%
X193040000Y-100320000D02*
X193040000Y-102990000D01*
X154940000Y-87620000D02*
X154940000Y-84950000D01*
X195710000Y-84950000D02*
X152270000Y-84950000D01*
X152270000Y-102990000D02*
X154940000Y-102990000D01*
X157480000Y-102990000D02*
X195710000Y-102990000D01*
X157480000Y-100320000D02*
X157480000Y-102990000D01*
X154940000Y-87620000D02*
X193040000Y-87620000D01*
X193040000Y-87620000D02*
X193040000Y-84950000D01*
X157480000Y-100320000D02*
X193040000Y-100320000D01*
X152270000Y-84950000D02*
X152270000Y-102990000D01*
X154940000Y-100320000D02*
X154940000Y-102990000D01*
X157480000Y-100320000D02*
X154940000Y-100320000D01*
X195710000Y-102990000D02*
X195710000Y-84950000D01*
%TO.C,J9*%
X197330000Y-72000000D02*
X197330000Y-73330000D01*
X197330000Y-68130000D02*
X194670000Y-68130000D01*
X194670000Y-70730000D02*
X194670000Y-68130000D01*
X197330000Y-73330000D02*
X196000000Y-73330000D01*
X197330000Y-70730000D02*
X197330000Y-68130000D01*
X197330000Y-70730000D02*
X194670000Y-70730000D01*
%TO.C,J6*%
X176470000Y-106670000D02*
X177800000Y-106670000D01*
X176470000Y-108000000D02*
X176470000Y-106670000D01*
X176470000Y-109270000D02*
X179130000Y-109270000D01*
X176470000Y-109270000D02*
X176470000Y-116950000D01*
X176470000Y-116950000D02*
X179130000Y-116950000D01*
X179130000Y-109270000D02*
X179130000Y-116950000D01*
%TO.C,J2*%
X191150000Y-67750000D02*
X191150000Y-67750000D01*
X183940000Y-71660000D02*
X192060000Y-71660000D01*
X188350000Y-67689000D02*
X188350000Y-67750000D01*
X184850000Y-64000000D02*
X184850000Y-65460000D01*
X188350000Y-67750000D02*
X188351000Y-67750000D01*
X183940000Y-68101000D02*
X184710000Y-68101000D01*
X184850000Y-64000000D02*
X187650000Y-64000000D01*
X191150000Y-67689000D02*
X191150000Y-67750000D01*
X183700000Y-69660000D02*
X183700000Y-71900000D01*
X190884000Y-68101000D02*
X192060000Y-68101000D01*
X188350000Y-64000000D02*
X188350000Y-66311000D01*
X192060000Y-63240000D02*
X192060000Y-71660000D01*
X187650000Y-64000000D02*
X187650000Y-65460000D01*
X187790000Y-68101000D02*
X188617000Y-68101000D01*
X191150000Y-64000000D02*
X191150000Y-66311000D01*
X183940000Y-63240000D02*
X183940000Y-71660000D01*
X183940000Y-63240000D02*
X192060000Y-63240000D01*
X188350000Y-64000000D02*
X191150000Y-64000000D01*
X183700000Y-71900000D02*
X185700000Y-71900000D01*
X190690000Y-65742000D02*
G75*
G03*
X188810085Y-65742233I-940000J342000D01*
G01*
X187248000Y-65469000D02*
G75*
G03*
X185252110Y-65470566I-998000J69000D01*
G01*
%TO.C,J1*%
X157660000Y-115455000D02*
X157660000Y-113144000D01*
X157926000Y-111354000D02*
X156750000Y-111354000D01*
X164870000Y-116215000D02*
X164870000Y-107795000D01*
X160460000Y-111705000D02*
X160459000Y-111705000D01*
X164870000Y-116215000D02*
X156750000Y-116215000D01*
X160460000Y-115455000D02*
X160460000Y-113144000D01*
X160460000Y-111766000D02*
X160460000Y-111705000D01*
X161160000Y-115455000D02*
X161160000Y-113995000D01*
X157660000Y-111705000D02*
X157660000Y-111705000D01*
X165110000Y-109795000D02*
X165110000Y-107555000D01*
X164870000Y-111354000D02*
X164100000Y-111354000D01*
X165110000Y-107555000D02*
X163110000Y-107555000D01*
X157660000Y-111766000D02*
X157660000Y-111705000D01*
X160460000Y-115455000D02*
X157660000Y-115455000D01*
X164870000Y-107795000D02*
X156750000Y-107795000D01*
X163960000Y-115455000D02*
X161160000Y-115455000D01*
X156750000Y-116215000D02*
X156750000Y-107795000D01*
X163960000Y-115455000D02*
X163960000Y-113995000D01*
X161020000Y-111354000D02*
X160193000Y-111354000D01*
X158120000Y-113713000D02*
G75*
G03*
X159999915Y-113712767I940000J-342000D01*
G01*
X161562000Y-113986000D02*
G75*
G03*
X163557890Y-113984434I998000J-69000D01*
G01*
%TO.C,J10*%
X155330000Y-73330000D02*
X154000000Y-73330000D01*
X155330000Y-72000000D02*
X155330000Y-73330000D01*
X152670000Y-70730000D02*
X152670000Y-68130000D01*
X155330000Y-70730000D02*
X155330000Y-68130000D01*
X155330000Y-70730000D02*
X152670000Y-70730000D01*
X155330000Y-68130000D02*
X152670000Y-68130000D01*
%TO.C,J5*%
X176330000Y-109270000D02*
X176330000Y-116950000D01*
X173670000Y-109270000D02*
X173670000Y-116950000D01*
X173670000Y-116950000D02*
X176330000Y-116950000D01*
X173670000Y-109270000D02*
X176330000Y-109270000D01*
X173670000Y-108000000D02*
X173670000Y-106670000D01*
X173670000Y-106670000D02*
X175000000Y-106670000D01*
%TD*%
M02*
