%TF.GenerationSoftware,KiCad,Pcbnew,(6.0.1)*%
%TF.CreationDate,2022-02-20T15:56:06+01:00*%
%TF.ProjectId,NANOFC,4e414e4f-4643-42e6-9b69-6361645f7063,rev?*%
%TF.SameCoordinates,Original*%
%TF.FileFunction,AssemblyDrawing,Top*%
%FSLAX46Y46*%
G04 Gerber Fmt 4.6, Leading zero omitted, Abs format (unit mm)*
G04 Created by KiCad (PCBNEW (6.0.1)) date 2022-02-20 15:56:06*
%MOMM*%
%LPD*%
G01*
G04 APERTURE LIST*
%ADD10C,0.150000*%
%ADD11C,0.100000*%
G04 APERTURE END LIST*
D10*
%TO.C,Pyro 2*%
X159488095Y-70902380D02*
X159488095Y-69902380D01*
X159869047Y-69902380D01*
X159964285Y-69950000D01*
X160011904Y-69997619D01*
X160059523Y-70092857D01*
X160059523Y-70235714D01*
X160011904Y-70330952D01*
X159964285Y-70378571D01*
X159869047Y-70426190D01*
X159488095Y-70426190D01*
X160392857Y-70235714D02*
X160630952Y-70902380D01*
X160869047Y-70235714D02*
X160630952Y-70902380D01*
X160535714Y-71140476D01*
X160488095Y-71188095D01*
X160392857Y-71235714D01*
X161250000Y-70902380D02*
X161250000Y-70235714D01*
X161250000Y-70426190D02*
X161297619Y-70330952D01*
X161345238Y-70283333D01*
X161440476Y-70235714D01*
X161535714Y-70235714D01*
X162011904Y-70902380D02*
X161916666Y-70854761D01*
X161869047Y-70807142D01*
X161821428Y-70711904D01*
X161821428Y-70426190D01*
X161869047Y-70330952D01*
X161916666Y-70283333D01*
X162011904Y-70235714D01*
X162154761Y-70235714D01*
X162250000Y-70283333D01*
X162297619Y-70330952D01*
X162345238Y-70426190D01*
X162345238Y-70711904D01*
X162297619Y-70807142D01*
X162250000Y-70854761D01*
X162154761Y-70902380D01*
X162011904Y-70902380D01*
X163488095Y-69997619D02*
X163535714Y-69950000D01*
X163630952Y-69902380D01*
X163869047Y-69902380D01*
X163964285Y-69950000D01*
X164011904Y-69997619D01*
X164059523Y-70092857D01*
X164059523Y-70188095D01*
X164011904Y-70330952D01*
X163440476Y-70902380D01*
X164059523Y-70902380D01*
%TO.C,Master Arm*%
X153452380Y-114270000D02*
X152452380Y-114270000D01*
X153166666Y-113936666D01*
X152452380Y-113603333D01*
X153452380Y-113603333D01*
X153452380Y-112698571D02*
X152928571Y-112698571D01*
X152833333Y-112746190D01*
X152785714Y-112841428D01*
X152785714Y-113031904D01*
X152833333Y-113127142D01*
X153404761Y-112698571D02*
X153452380Y-112793809D01*
X153452380Y-113031904D01*
X153404761Y-113127142D01*
X153309523Y-113174761D01*
X153214285Y-113174761D01*
X153119047Y-113127142D01*
X153071428Y-113031904D01*
X153071428Y-112793809D01*
X153023809Y-112698571D01*
X153404761Y-112270000D02*
X153452380Y-112174761D01*
X153452380Y-111984285D01*
X153404761Y-111889047D01*
X153309523Y-111841428D01*
X153261904Y-111841428D01*
X153166666Y-111889047D01*
X153119047Y-111984285D01*
X153119047Y-112127142D01*
X153071428Y-112222380D01*
X152976190Y-112270000D01*
X152928571Y-112270000D01*
X152833333Y-112222380D01*
X152785714Y-112127142D01*
X152785714Y-111984285D01*
X152833333Y-111889047D01*
X152785714Y-111555714D02*
X152785714Y-111174761D01*
X152452380Y-111412857D02*
X153309523Y-111412857D01*
X153404761Y-111365238D01*
X153452380Y-111270000D01*
X153452380Y-111174761D01*
X153404761Y-110460476D02*
X153452380Y-110555714D01*
X153452380Y-110746190D01*
X153404761Y-110841428D01*
X153309523Y-110889047D01*
X152928571Y-110889047D01*
X152833333Y-110841428D01*
X152785714Y-110746190D01*
X152785714Y-110555714D01*
X152833333Y-110460476D01*
X152928571Y-110412857D01*
X153023809Y-110412857D01*
X153119047Y-110889047D01*
X153452380Y-109984285D02*
X152785714Y-109984285D01*
X152976190Y-109984285D02*
X152880952Y-109936666D01*
X152833333Y-109889047D01*
X152785714Y-109793809D01*
X152785714Y-109698571D01*
X153166666Y-108650952D02*
X153166666Y-108174761D01*
X153452380Y-108746190D02*
X152452380Y-108412857D01*
X153452380Y-108079523D01*
X153452380Y-107746190D02*
X152785714Y-107746190D01*
X152976190Y-107746190D02*
X152880952Y-107698571D01*
X152833333Y-107650952D01*
X152785714Y-107555714D01*
X152785714Y-107460476D01*
X153452380Y-107127142D02*
X152785714Y-107127142D01*
X152880952Y-107127142D02*
X152833333Y-107079523D01*
X152785714Y-106984285D01*
X152785714Y-106841428D01*
X152833333Y-106746190D01*
X152928571Y-106698571D01*
X153452380Y-106698571D01*
X152928571Y-106698571D02*
X152833333Y-106650952D01*
X152785714Y-106555714D01*
X152785714Y-106412857D01*
X152833333Y-106317619D01*
X152928571Y-106270000D01*
X153452380Y-106270000D01*
%TO.C,BZ1*%
X187571428Y-103618571D02*
X187714285Y-103666190D01*
X187761904Y-103713809D01*
X187809523Y-103809047D01*
X187809523Y-103951904D01*
X187761904Y-104047142D01*
X187714285Y-104094761D01*
X187619047Y-104142380D01*
X187238095Y-104142380D01*
X187238095Y-103142380D01*
X187571428Y-103142380D01*
X187666666Y-103190000D01*
X187714285Y-103237619D01*
X187761904Y-103332857D01*
X187761904Y-103428095D01*
X187714285Y-103523333D01*
X187666666Y-103570952D01*
X187571428Y-103618571D01*
X187238095Y-103618571D01*
X188666666Y-103475714D02*
X188666666Y-104142380D01*
X188238095Y-103475714D02*
X188238095Y-103999523D01*
X188285714Y-104094761D01*
X188380952Y-104142380D01*
X188523809Y-104142380D01*
X188619047Y-104094761D01*
X188666666Y-104047142D01*
X189047619Y-103475714D02*
X189571428Y-103475714D01*
X189047619Y-104142380D01*
X189571428Y-104142380D01*
X189857142Y-103475714D02*
X190380952Y-103475714D01*
X189857142Y-104142380D01*
X190380952Y-104142380D01*
X191142857Y-104094761D02*
X191047619Y-104142380D01*
X190857142Y-104142380D01*
X190761904Y-104094761D01*
X190714285Y-103999523D01*
X190714285Y-103618571D01*
X190761904Y-103523333D01*
X190857142Y-103475714D01*
X191047619Y-103475714D01*
X191142857Y-103523333D01*
X191190476Y-103618571D01*
X191190476Y-103713809D01*
X190714285Y-103809047D01*
X191619047Y-104142380D02*
X191619047Y-103475714D01*
X191619047Y-103666190D02*
X191666666Y-103570952D01*
X191714285Y-103523333D01*
X191809523Y-103475714D01*
X191904761Y-103475714D01*
X188619047Y-113358571D02*
X188761904Y-113406190D01*
X188809523Y-113453809D01*
X188857142Y-113549047D01*
X188857142Y-113691904D01*
X188809523Y-113787142D01*
X188761904Y-113834761D01*
X188666666Y-113882380D01*
X188285714Y-113882380D01*
X188285714Y-112882380D01*
X188619047Y-112882380D01*
X188714285Y-112930000D01*
X188761904Y-112977619D01*
X188809523Y-113072857D01*
X188809523Y-113168095D01*
X188761904Y-113263333D01*
X188714285Y-113310952D01*
X188619047Y-113358571D01*
X188285714Y-113358571D01*
X189190476Y-112882380D02*
X189857142Y-112882380D01*
X189190476Y-113882380D01*
X189857142Y-113882380D01*
X190761904Y-113882380D02*
X190190476Y-113882380D01*
X190476190Y-113882380D02*
X190476190Y-112882380D01*
X190380952Y-113025238D01*
X190285714Y-113120476D01*
X190190476Y-113168095D01*
%TO.C,J3*%
X172180476Y-83208571D02*
X172323333Y-83256190D01*
X172370952Y-83303809D01*
X172418571Y-83399047D01*
X172418571Y-83541904D01*
X172370952Y-83637142D01*
X172323333Y-83684761D01*
X172228095Y-83732380D01*
X171847142Y-83732380D01*
X171847142Y-82732380D01*
X172180476Y-82732380D01*
X172275714Y-82780000D01*
X172323333Y-82827619D01*
X172370952Y-82922857D01*
X172370952Y-83018095D01*
X172323333Y-83113333D01*
X172275714Y-83160952D01*
X172180476Y-83208571D01*
X171847142Y-83208571D01*
X172847142Y-83732380D02*
X172847142Y-82732380D01*
X173180476Y-83446666D01*
X173513809Y-82732380D01*
X173513809Y-83732380D01*
X173990000Y-83732380D02*
X173990000Y-82732380D01*
X174370952Y-82732380D01*
X174466190Y-82780000D01*
X174513809Y-82827619D01*
X174561428Y-82922857D01*
X174561428Y-83065714D01*
X174513809Y-83160952D01*
X174466190Y-83208571D01*
X174370952Y-83256190D01*
X173990000Y-83256190D01*
X175704285Y-82827619D02*
X175751904Y-82780000D01*
X175847142Y-82732380D01*
X176085238Y-82732380D01*
X176180476Y-82780000D01*
X176228095Y-82827619D01*
X176275714Y-82922857D01*
X176275714Y-83018095D01*
X176228095Y-83160952D01*
X175656666Y-83732380D01*
X176275714Y-83732380D01*
X176847142Y-83160952D02*
X176751904Y-83113333D01*
X176704285Y-83065714D01*
X176656666Y-82970476D01*
X176656666Y-82922857D01*
X176704285Y-82827619D01*
X176751904Y-82780000D01*
X176847142Y-82732380D01*
X177037619Y-82732380D01*
X177132857Y-82780000D01*
X177180476Y-82827619D01*
X177228095Y-82922857D01*
X177228095Y-82970476D01*
X177180476Y-83065714D01*
X177132857Y-83113333D01*
X177037619Y-83160952D01*
X176847142Y-83160952D01*
X176751904Y-83208571D01*
X176704285Y-83256190D01*
X176656666Y-83351428D01*
X176656666Y-83541904D01*
X176704285Y-83637142D01*
X176751904Y-83684761D01*
X176847142Y-83732380D01*
X177037619Y-83732380D01*
X177132857Y-83684761D01*
X177180476Y-83637142D01*
X177228095Y-83541904D01*
X177228095Y-83351428D01*
X177180476Y-83256190D01*
X177132857Y-83208571D01*
X177037619Y-83160952D01*
X177847142Y-82732380D02*
X177942380Y-82732380D01*
X178037619Y-82780000D01*
X178085238Y-82827619D01*
X178132857Y-82922857D01*
X178180476Y-83113333D01*
X178180476Y-83351428D01*
X178132857Y-83541904D01*
X178085238Y-83637142D01*
X178037619Y-83684761D01*
X177942380Y-83732380D01*
X177847142Y-83732380D01*
X177751904Y-83684761D01*
X177704285Y-83637142D01*
X177656666Y-83541904D01*
X177609047Y-83351428D01*
X177609047Y-83113333D01*
X177656666Y-82922857D01*
X177704285Y-82827619D01*
X177751904Y-82780000D01*
X177847142Y-82732380D01*
X174656666Y-79452380D02*
X174656666Y-80166666D01*
X174609047Y-80309523D01*
X174513809Y-80404761D01*
X174370952Y-80452380D01*
X174275714Y-80452380D01*
X175037619Y-79452380D02*
X175656666Y-79452380D01*
X175323333Y-79833333D01*
X175466190Y-79833333D01*
X175561428Y-79880952D01*
X175609047Y-79928571D01*
X175656666Y-80023809D01*
X175656666Y-80261904D01*
X175609047Y-80357142D01*
X175561428Y-80404761D01*
X175466190Y-80452380D01*
X175180476Y-80452380D01*
X175085238Y-80404761D01*
X175037619Y-80357142D01*
%TO.C,GND*%
X180100000Y-112571904D02*
X180052380Y-112667142D01*
X180052380Y-112810000D01*
X180100000Y-112952857D01*
X180195238Y-113048095D01*
X180290476Y-113095714D01*
X180480952Y-113143333D01*
X180623809Y-113143333D01*
X180814285Y-113095714D01*
X180909523Y-113048095D01*
X181004761Y-112952857D01*
X181052380Y-112810000D01*
X181052380Y-112714761D01*
X181004761Y-112571904D01*
X180957142Y-112524285D01*
X180623809Y-112524285D01*
X180623809Y-112714761D01*
X181052380Y-112095714D02*
X180052380Y-112095714D01*
X181052380Y-111524285D01*
X180052380Y-111524285D01*
X181052380Y-111048095D02*
X180052380Y-111048095D01*
X180052380Y-110810000D01*
X180100000Y-110667142D01*
X180195238Y-110571904D01*
X180290476Y-110524285D01*
X180480952Y-110476666D01*
X180623809Y-110476666D01*
X180814285Y-110524285D01*
X180909523Y-110571904D01*
X181004761Y-110667142D01*
X181052380Y-110810000D01*
X181052380Y-111048095D01*
%TO.C,A1*%
X170402857Y-92866666D02*
X170879047Y-92866666D01*
X170307619Y-93152380D02*
X170640952Y-92152380D01*
X170974285Y-93152380D01*
X171307619Y-93152380D02*
X171307619Y-92485714D01*
X171307619Y-92676190D02*
X171355238Y-92580952D01*
X171402857Y-92533333D01*
X171498095Y-92485714D01*
X171593333Y-92485714D01*
X172355238Y-93152380D02*
X172355238Y-92152380D01*
X172355238Y-93104761D02*
X172260000Y-93152380D01*
X172069523Y-93152380D01*
X171974285Y-93104761D01*
X171926666Y-93057142D01*
X171879047Y-92961904D01*
X171879047Y-92676190D01*
X171926666Y-92580952D01*
X171974285Y-92533333D01*
X172069523Y-92485714D01*
X172260000Y-92485714D01*
X172355238Y-92533333D01*
X173260000Y-92485714D02*
X173260000Y-93152380D01*
X172831428Y-92485714D02*
X172831428Y-93009523D01*
X172879047Y-93104761D01*
X172974285Y-93152380D01*
X173117142Y-93152380D01*
X173212380Y-93104761D01*
X173260000Y-93057142D01*
X173736190Y-93152380D02*
X173736190Y-92485714D01*
X173736190Y-92152380D02*
X173688571Y-92200000D01*
X173736190Y-92247619D01*
X173783809Y-92200000D01*
X173736190Y-92152380D01*
X173736190Y-92247619D01*
X174212380Y-92485714D02*
X174212380Y-93152380D01*
X174212380Y-92580952D02*
X174260000Y-92533333D01*
X174355238Y-92485714D01*
X174498095Y-92485714D01*
X174593333Y-92533333D01*
X174640952Y-92628571D01*
X174640952Y-93152380D01*
X175260000Y-93152380D02*
X175164761Y-93104761D01*
X175117142Y-93057142D01*
X175069523Y-92961904D01*
X175069523Y-92676190D01*
X175117142Y-92580952D01*
X175164761Y-92533333D01*
X175260000Y-92485714D01*
X175402857Y-92485714D01*
X175498095Y-92533333D01*
X175545714Y-92580952D01*
X175593333Y-92676190D01*
X175593333Y-92961904D01*
X175545714Y-93057142D01*
X175498095Y-93104761D01*
X175402857Y-93152380D01*
X175260000Y-93152380D01*
X176783809Y-93152380D02*
X176783809Y-92152380D01*
X177355238Y-93152380D01*
X177355238Y-92152380D01*
X178260000Y-93152380D02*
X178260000Y-92628571D01*
X178212380Y-92533333D01*
X178117142Y-92485714D01*
X177926666Y-92485714D01*
X177831428Y-92533333D01*
X178260000Y-93104761D02*
X178164761Y-93152380D01*
X177926666Y-93152380D01*
X177831428Y-93104761D01*
X177783809Y-93009523D01*
X177783809Y-92914285D01*
X177831428Y-92819047D01*
X177926666Y-92771428D01*
X178164761Y-92771428D01*
X178260000Y-92723809D01*
X178736190Y-92485714D02*
X178736190Y-93152380D01*
X178736190Y-92580952D02*
X178783809Y-92533333D01*
X178879047Y-92485714D01*
X179021904Y-92485714D01*
X179117142Y-92533333D01*
X179164761Y-92628571D01*
X179164761Y-93152380D01*
X179783809Y-93152380D02*
X179688571Y-93104761D01*
X179640952Y-93057142D01*
X179593333Y-92961904D01*
X179593333Y-92676190D01*
X179640952Y-92580952D01*
X179688571Y-92533333D01*
X179783809Y-92485714D01*
X179926666Y-92485714D01*
X180021904Y-92533333D01*
X180069523Y-92580952D01*
X180117142Y-92676190D01*
X180117142Y-92961904D01*
X180069523Y-93057142D01*
X180021904Y-93104761D01*
X179926666Y-93152380D01*
X179783809Y-93152380D01*
%TO.C,P1 Arm*%
X196452380Y-73253809D02*
X195452380Y-73253809D01*
X195452380Y-72872857D01*
X195500000Y-72777619D01*
X195547619Y-72730000D01*
X195642857Y-72682380D01*
X195785714Y-72682380D01*
X195880952Y-72730000D01*
X195928571Y-72777619D01*
X195976190Y-72872857D01*
X195976190Y-73253809D01*
X196452380Y-71730000D02*
X196452380Y-72301428D01*
X196452380Y-72015714D02*
X195452380Y-72015714D01*
X195595238Y-72110952D01*
X195690476Y-72206190D01*
X195738095Y-72301428D01*
X196166666Y-70587142D02*
X196166666Y-70110952D01*
X196452380Y-70682380D02*
X195452380Y-70349047D01*
X196452380Y-70015714D01*
X196452380Y-69682380D02*
X195785714Y-69682380D01*
X195976190Y-69682380D02*
X195880952Y-69634761D01*
X195833333Y-69587142D01*
X195785714Y-69491904D01*
X195785714Y-69396666D01*
X196452380Y-69063333D02*
X195785714Y-69063333D01*
X195880952Y-69063333D02*
X195833333Y-69015714D01*
X195785714Y-68920476D01*
X195785714Y-68777619D01*
X195833333Y-68682380D01*
X195928571Y-68634761D01*
X196452380Y-68634761D01*
X195928571Y-68634761D02*
X195833333Y-68587142D01*
X195785714Y-68491904D01*
X195785714Y-68349047D01*
X195833333Y-68253809D01*
X195928571Y-68206190D01*
X196452380Y-68206190D01*
%TO.C,V+*%
X177252380Y-112762380D02*
X178252380Y-112429047D01*
X177252380Y-112095714D01*
X177871428Y-111762380D02*
X177871428Y-111000476D01*
X178252380Y-111381428D02*
X177490476Y-111381428D01*
%TO.C,Pyro 1*%
X185738095Y-70902380D02*
X185738095Y-69902380D01*
X186119047Y-69902380D01*
X186214285Y-69950000D01*
X186261904Y-69997619D01*
X186309523Y-70092857D01*
X186309523Y-70235714D01*
X186261904Y-70330952D01*
X186214285Y-70378571D01*
X186119047Y-70426190D01*
X185738095Y-70426190D01*
X186642857Y-70235714D02*
X186880952Y-70902380D01*
X187119047Y-70235714D02*
X186880952Y-70902380D01*
X186785714Y-71140476D01*
X186738095Y-71188095D01*
X186642857Y-71235714D01*
X187500000Y-70902380D02*
X187500000Y-70235714D01*
X187500000Y-70426190D02*
X187547619Y-70330952D01*
X187595238Y-70283333D01*
X187690476Y-70235714D01*
X187785714Y-70235714D01*
X188261904Y-70902380D02*
X188166666Y-70854761D01*
X188119047Y-70807142D01*
X188071428Y-70711904D01*
X188071428Y-70426190D01*
X188119047Y-70330952D01*
X188166666Y-70283333D01*
X188261904Y-70235714D01*
X188404761Y-70235714D01*
X188500000Y-70283333D01*
X188547619Y-70330952D01*
X188595238Y-70426190D01*
X188595238Y-70711904D01*
X188547619Y-70807142D01*
X188500000Y-70854761D01*
X188404761Y-70902380D01*
X188261904Y-70902380D01*
X190309523Y-70902380D02*
X189738095Y-70902380D01*
X190023809Y-70902380D02*
X190023809Y-69902380D01*
X189928571Y-70045238D01*
X189833333Y-70140476D01*
X189738095Y-70188095D01*
%TO.C,Power in*%
X157762380Y-109457380D02*
X157762380Y-108457380D01*
X158143333Y-108457380D01*
X158238571Y-108505000D01*
X158286190Y-108552619D01*
X158333809Y-108647857D01*
X158333809Y-108790714D01*
X158286190Y-108885952D01*
X158238571Y-108933571D01*
X158143333Y-108981190D01*
X157762380Y-108981190D01*
X158905238Y-109457380D02*
X158810000Y-109409761D01*
X158762380Y-109362142D01*
X158714761Y-109266904D01*
X158714761Y-108981190D01*
X158762380Y-108885952D01*
X158810000Y-108838333D01*
X158905238Y-108790714D01*
X159048095Y-108790714D01*
X159143333Y-108838333D01*
X159190952Y-108885952D01*
X159238571Y-108981190D01*
X159238571Y-109266904D01*
X159190952Y-109362142D01*
X159143333Y-109409761D01*
X159048095Y-109457380D01*
X158905238Y-109457380D01*
X159571904Y-108790714D02*
X159762380Y-109457380D01*
X159952857Y-108981190D01*
X160143333Y-109457380D01*
X160333809Y-108790714D01*
X161095714Y-109409761D02*
X161000476Y-109457380D01*
X160810000Y-109457380D01*
X160714761Y-109409761D01*
X160667142Y-109314523D01*
X160667142Y-108933571D01*
X160714761Y-108838333D01*
X160810000Y-108790714D01*
X161000476Y-108790714D01*
X161095714Y-108838333D01*
X161143333Y-108933571D01*
X161143333Y-109028809D01*
X160667142Y-109124047D01*
X161571904Y-109457380D02*
X161571904Y-108790714D01*
X161571904Y-108981190D02*
X161619523Y-108885952D01*
X161667142Y-108838333D01*
X161762380Y-108790714D01*
X161857619Y-108790714D01*
X162952857Y-109457380D02*
X162952857Y-108790714D01*
X162952857Y-108457380D02*
X162905238Y-108505000D01*
X162952857Y-108552619D01*
X163000476Y-108505000D01*
X162952857Y-108457380D01*
X162952857Y-108552619D01*
X163429047Y-108790714D02*
X163429047Y-109457380D01*
X163429047Y-108885952D02*
X163476666Y-108838333D01*
X163571904Y-108790714D01*
X163714761Y-108790714D01*
X163810000Y-108838333D01*
X163857619Y-108933571D01*
X163857619Y-109457380D01*
%TO.C,P2 Arm*%
X154452380Y-73253809D02*
X153452380Y-73253809D01*
X153452380Y-72872857D01*
X153500000Y-72777619D01*
X153547619Y-72730000D01*
X153642857Y-72682380D01*
X153785714Y-72682380D01*
X153880952Y-72730000D01*
X153928571Y-72777619D01*
X153976190Y-72872857D01*
X153976190Y-73253809D01*
X153547619Y-72301428D02*
X153500000Y-72253809D01*
X153452380Y-72158571D01*
X153452380Y-71920476D01*
X153500000Y-71825238D01*
X153547619Y-71777619D01*
X153642857Y-71730000D01*
X153738095Y-71730000D01*
X153880952Y-71777619D01*
X154452380Y-72349047D01*
X154452380Y-71730000D01*
X154166666Y-70587142D02*
X154166666Y-70110952D01*
X154452380Y-70682380D02*
X153452380Y-70349047D01*
X154452380Y-70015714D01*
X154452380Y-69682380D02*
X153785714Y-69682380D01*
X153976190Y-69682380D02*
X153880952Y-69634761D01*
X153833333Y-69587142D01*
X153785714Y-69491904D01*
X153785714Y-69396666D01*
X154452380Y-69063333D02*
X153785714Y-69063333D01*
X153880952Y-69063333D02*
X153833333Y-69015714D01*
X153785714Y-68920476D01*
X153785714Y-68777619D01*
X153833333Y-68682380D01*
X153928571Y-68634761D01*
X154452380Y-68634761D01*
X153928571Y-68634761D02*
X153833333Y-68587142D01*
X153785714Y-68491904D01*
X153785714Y-68349047D01*
X153833333Y-68253809D01*
X153928571Y-68206190D01*
X154452380Y-68206190D01*
%TO.C,SIG*%
X175404761Y-112833809D02*
X175452380Y-112690952D01*
X175452380Y-112452857D01*
X175404761Y-112357619D01*
X175357142Y-112310000D01*
X175261904Y-112262380D01*
X175166666Y-112262380D01*
X175071428Y-112310000D01*
X175023809Y-112357619D01*
X174976190Y-112452857D01*
X174928571Y-112643333D01*
X174880952Y-112738571D01*
X174833333Y-112786190D01*
X174738095Y-112833809D01*
X174642857Y-112833809D01*
X174547619Y-112786190D01*
X174500000Y-112738571D01*
X174452380Y-112643333D01*
X174452380Y-112405238D01*
X174500000Y-112262380D01*
X175452380Y-111833809D02*
X174452380Y-111833809D01*
X174500000Y-110833809D02*
X174452380Y-110929047D01*
X174452380Y-111071904D01*
X174500000Y-111214761D01*
X174595238Y-111310000D01*
X174690476Y-111357619D01*
X174880952Y-111405238D01*
X175023809Y-111405238D01*
X175214285Y-111357619D01*
X175309523Y-111310000D01*
X175404761Y-111214761D01*
X175452380Y-111071904D01*
X175452380Y-110976666D01*
X175404761Y-110833809D01*
X175357142Y-110786190D01*
X175023809Y-110786190D01*
X175023809Y-110976666D01*
D11*
%TO.C,Pyro 2*%
X164900000Y-67750000D02*
X164900000Y-64000000D01*
X162100000Y-64000000D02*
X162100000Y-67750000D01*
X164900000Y-64000000D02*
X162100000Y-64000000D01*
X162100000Y-67750000D02*
X164900000Y-67750000D01*
X157750000Y-69600000D02*
X157750000Y-63300000D01*
X165750000Y-63300000D02*
X165750000Y-71600000D01*
X157750000Y-63300000D02*
X165750000Y-63300000D01*
X159750000Y-71600000D02*
X157750000Y-69600000D01*
X165750000Y-71600000D02*
X159750000Y-71600000D01*
X158600000Y-67750000D02*
X161400000Y-67750000D01*
X161400000Y-64000000D02*
X158600000Y-64000000D01*
X161400000Y-67750000D02*
X161400000Y-64000000D01*
X157750000Y-68100000D02*
X165750000Y-68100000D01*
X158600000Y-64000000D02*
X158600000Y-67750000D01*
X164500000Y-65400000D02*
G75*
G03*
X164500000Y-65400000I-1000000J0D01*
G01*
X161000000Y-65400000D02*
G75*
G03*
X161000000Y-65400000I-1000000J0D01*
G01*
%TO.C,Master Arm*%
X154270000Y-107730000D02*
X154270000Y-112810000D01*
X151730000Y-108365000D02*
X152365000Y-107730000D01*
X154270000Y-112810000D02*
X151730000Y-112810000D01*
X151730000Y-112810000D02*
X151730000Y-108365000D01*
X152365000Y-107730000D02*
X154270000Y-107730000D01*
%TO.C,BZ1*%
X193300000Y-112000000D02*
X193300000Y-110000000D01*
X190500000Y-111000000D02*
G75*
G03*
X190500000Y-111000000I-1000000J0D01*
G01*
X195600000Y-111000000D02*
G75*
G03*
X195600000Y-111000000I-6100000J0D01*
G01*
%TO.C,J3*%
X169910000Y-81270000D02*
X169910000Y-78730000D01*
X180070000Y-81270000D02*
X169910000Y-81270000D01*
X169910000Y-78730000D02*
X179435000Y-78730000D01*
X179435000Y-78730000D02*
X180070000Y-79365000D01*
X180070000Y-79365000D02*
X180070000Y-81270000D01*
%TO.C,GND*%
X179330000Y-107365000D02*
X179965000Y-106730000D01*
X179330000Y-116890000D02*
X179330000Y-107365000D01*
X181870000Y-106730000D02*
X181870000Y-116890000D01*
X179965000Y-106730000D02*
X181870000Y-106730000D01*
X181870000Y-116890000D02*
X179330000Y-116890000D01*
%TO.C,A1*%
X187960000Y-97780000D02*
X187960000Y-90160000D01*
X152400000Y-101590000D02*
X152400000Y-85080000D01*
X195580000Y-85080000D02*
X195580000Y-102860000D01*
X198120000Y-97780000D02*
X187960000Y-97780000D01*
X195580000Y-102860000D02*
X153670000Y-102860000D01*
X187960000Y-90160000D02*
X198120000Y-90160000D01*
X153670000Y-102860000D02*
X152400000Y-101590000D01*
X198120000Y-90160000D02*
X198120000Y-97780000D01*
X152400000Y-85080000D02*
X195580000Y-85080000D01*
%TO.C,P1 Arm*%
X194730000Y-68190000D02*
X197270000Y-68190000D01*
X196635000Y-73270000D02*
X194730000Y-73270000D01*
X197270000Y-68190000D02*
X197270000Y-72635000D01*
X197270000Y-72635000D02*
X196635000Y-73270000D01*
X194730000Y-73270000D02*
X194730000Y-68190000D01*
%TO.C,V+*%
X176530000Y-107365000D02*
X177165000Y-106730000D01*
X179070000Y-116890000D02*
X176530000Y-116890000D01*
X177165000Y-106730000D02*
X179070000Y-106730000D01*
X179070000Y-106730000D02*
X179070000Y-116890000D01*
X176530000Y-116890000D02*
X176530000Y-107365000D01*
%TO.C,Pyro 1*%
X191150000Y-64000000D02*
X188350000Y-64000000D01*
X187650000Y-67750000D02*
X187650000Y-64000000D01*
X184000000Y-68100000D02*
X192000000Y-68100000D01*
X184850000Y-64000000D02*
X184850000Y-67750000D01*
X187650000Y-64000000D02*
X184850000Y-64000000D01*
X188350000Y-67750000D02*
X191150000Y-67750000D01*
X186000000Y-71600000D02*
X184000000Y-69600000D01*
X192000000Y-63300000D02*
X192000000Y-71600000D01*
X184000000Y-63300000D02*
X192000000Y-63300000D01*
X191150000Y-67750000D02*
X191150000Y-64000000D01*
X184000000Y-69600000D02*
X184000000Y-63300000D01*
X184850000Y-67750000D02*
X187650000Y-67750000D01*
X192000000Y-71600000D02*
X186000000Y-71600000D01*
X188350000Y-64000000D02*
X188350000Y-67750000D01*
X187250000Y-65400000D02*
G75*
G03*
X187250000Y-65400000I-1000000J0D01*
G01*
X190750000Y-65400000D02*
G75*
G03*
X190750000Y-65400000I-1000000J0D01*
G01*
%TO.C,Power in*%
X157660000Y-111705000D02*
X157660000Y-115455000D01*
X160460000Y-111705000D02*
X157660000Y-111705000D01*
X161160000Y-115455000D02*
X163960000Y-115455000D01*
X164810000Y-109855000D02*
X164810000Y-116155000D01*
X162810000Y-107855000D02*
X164810000Y-109855000D01*
X157660000Y-115455000D02*
X160460000Y-115455000D01*
X164810000Y-116155000D02*
X156810000Y-116155000D01*
X161160000Y-111705000D02*
X161160000Y-115455000D01*
X164810000Y-111355000D02*
X156810000Y-111355000D01*
X163960000Y-111705000D02*
X161160000Y-111705000D01*
X160460000Y-115455000D02*
X160460000Y-111705000D01*
X156810000Y-116155000D02*
X156810000Y-107855000D01*
X156810000Y-107855000D02*
X162810000Y-107855000D01*
X163960000Y-115455000D02*
X163960000Y-111705000D01*
X163560000Y-114055000D02*
G75*
G03*
X163560000Y-114055000I-1000000J0D01*
G01*
X160060000Y-114055000D02*
G75*
G03*
X160060000Y-114055000I-1000000J0D01*
G01*
%TO.C,P2 Arm*%
X152730000Y-73270000D02*
X152730000Y-68190000D01*
X155270000Y-68190000D02*
X155270000Y-72635000D01*
X152730000Y-68190000D02*
X155270000Y-68190000D01*
X154635000Y-73270000D02*
X152730000Y-73270000D01*
X155270000Y-72635000D02*
X154635000Y-73270000D01*
%TO.C,SIG*%
X174365000Y-106730000D02*
X176270000Y-106730000D01*
X173730000Y-116890000D02*
X173730000Y-107365000D01*
X173730000Y-107365000D02*
X174365000Y-106730000D01*
X176270000Y-106730000D02*
X176270000Y-116890000D01*
X176270000Y-116890000D02*
X173730000Y-116890000D01*
%TD*%
M02*
