%TF.GenerationSoftware,KiCad,Pcbnew,(6.0.1)*%
%TF.CreationDate,2022-02-20T18:55:47+01:00*%
%TF.ProjectId,NANOFC,4e414e4f-4643-42e6-9b69-6361645f7063,rev?*%
%TF.SameCoordinates,Original*%
%TF.FileFunction,Copper,L2,Bot*%
%TF.FilePolarity,Positive*%
%FSLAX46Y46*%
G04 Gerber Fmt 4.6, Leading zero omitted, Abs format (unit mm)*
G04 Created by KiCad (PCBNEW (6.0.1)) date 2022-02-20 18:55:47*
%MOMM*%
%LPD*%
G01*
G04 APERTURE LIST*
G04 Aperture macros list*
%AMRoundRect*
0 Rectangle with rounded corners*
0 $1 Rounding radius*
0 $2 $3 $4 $5 $6 $7 $8 $9 X,Y pos of 4 corners*
0 Add a 4 corners polygon primitive as box body*
4,1,4,$2,$3,$4,$5,$6,$7,$8,$9,$2,$3,0*
0 Add four circle primitives for the rounded corners*
1,1,$1+$1,$2,$3*
1,1,$1+$1,$4,$5*
1,1,$1+$1,$6,$7*
1,1,$1+$1,$8,$9*
0 Add four rect primitives between the rounded corners*
20,1,$1+$1,$2,$3,$4,$5,0*
20,1,$1+$1,$4,$5,$6,$7,0*
20,1,$1+$1,$6,$7,$8,$9,0*
20,1,$1+$1,$8,$9,$2,$3,0*%
G04 Aperture macros list end*
%TA.AperFunction,ComponentPad*%
%ADD10R,2.600000X2.600000*%
%TD*%
%TA.AperFunction,ComponentPad*%
%ADD11C,2.600000*%
%TD*%
%TA.AperFunction,ComponentPad*%
%ADD12R,1.700000X1.700000*%
%TD*%
%TA.AperFunction,ComponentPad*%
%ADD13O,1.700000X1.700000*%
%TD*%
%TA.AperFunction,ComponentPad*%
%ADD14R,2.000000X2.000000*%
%TD*%
%TA.AperFunction,ComponentPad*%
%ADD15C,2.000000*%
%TD*%
%TA.AperFunction,ComponentPad*%
%ADD16R,1.600000X1.600000*%
%TD*%
%TA.AperFunction,ComponentPad*%
%ADD17O,1.600000X1.600000*%
%TD*%
%TA.AperFunction,SMDPad,CuDef*%
%ADD18R,2.200000X1.200000*%
%TD*%
%TA.AperFunction,SMDPad,CuDef*%
%ADD19R,6.400000X5.800000*%
%TD*%
%TA.AperFunction,SMDPad,CuDef*%
%ADD20RoundRect,0.250000X0.312500X1.075000X-0.312500X1.075000X-0.312500X-1.075000X0.312500X-1.075000X0*%
%TD*%
%TA.AperFunction,SMDPad,CuDef*%
%ADD21RoundRect,0.250000X1.100000X-0.325000X1.100000X0.325000X-1.100000X0.325000X-1.100000X-0.325000X0*%
%TD*%
%TA.AperFunction,SMDPad,CuDef*%
%ADD22R,1.500000X2.000000*%
%TD*%
%TA.AperFunction,SMDPad,CuDef*%
%ADD23R,3.800000X2.000000*%
%TD*%
%TA.AperFunction,SMDPad,CuDef*%
%ADD24R,1.780000X2.000000*%
%TD*%
%TA.AperFunction,ViaPad*%
%ADD25C,3.200000*%
%TD*%
%TA.AperFunction,Conductor*%
%ADD26C,0.250000*%
%TD*%
G04 APERTURE END LIST*
D10*
%TO.P,Pyro 2,1,Pin_1*%
%TO.N,Net-(U2-Pad8)*%
X160000000Y-67000000D03*
D11*
%TO.P,Pyro 2,2,Pin_2*%
%TO.N,Net-(J10-Pad2)*%
X163500000Y-67000000D03*
%TD*%
D12*
%TO.P,Master ARM,1,Pin_1*%
%TO.N,+BATT*%
X153000000Y-109000000D03*
D13*
%TO.P,Master ARM,2,Pin_2*%
%TO.N,Net-(J1-Pad2)*%
X153000000Y-111540000D03*
%TD*%
D14*
%TO.P,BZ1,1,-*%
%TO.N,Buzzer*%
X192000000Y-111000000D03*
D15*
%TO.P,BZ1,2,+*%
%TO.N,GND*%
X187000000Y-111000000D03*
%TD*%
D12*
%TO.P,J3,1,Pin_1*%
%TO.N,3.3v*%
X178800000Y-80000000D03*
D13*
%TO.P,J3,2,Pin_2*%
%TO.N,GND*%
X176260000Y-80000000D03*
%TO.P,J3,3,Pin_3*%
%TO.N,SCL*%
X173720000Y-80000000D03*
%TO.P,J3,4,Pin_4*%
%TO.N,SDA*%
X171180000Y-80000000D03*
%TD*%
D12*
%TO.P,GND,1,Pin_1*%
%TO.N,GND*%
X180600000Y-108000000D03*
D13*
%TO.P,GND,2,Pin_2*%
X180600000Y-110540000D03*
%TO.P,GND,3,Pin_3*%
X180600000Y-113080000D03*
%TO.P,GND,4,Pin_4*%
X180600000Y-115620000D03*
%TD*%
D16*
%TO.P,A1,1,D1/TX*%
%TO.N,unconnected-(A1-Pad1)*%
X156210000Y-101590000D03*
D17*
%TO.P,A1,2,D0/RX*%
%TO.N,unconnected-(A1-Pad2)*%
X158750000Y-101590000D03*
%TO.P,A1,3,~{RESET}*%
%TO.N,unconnected-(A1-Pad3)*%
X161290000Y-101590000D03*
%TO.P,A1,4,GND*%
%TO.N,GND*%
X163830000Y-101590000D03*
%TO.P,A1,5,D2*%
%TO.N,Pyro_1*%
X166370000Y-101590000D03*
%TO.P,A1,6,D3*%
%TO.N,Pyro_2*%
X168910000Y-101590000D03*
%TO.P,A1,7,D4*%
%TO.N,Buzzer*%
X171450000Y-101590000D03*
%TO.P,A1,8,D5*%
%TO.N,Servo_1*%
X173990000Y-101590000D03*
%TO.P,A1,9,D6*%
%TO.N,Servo_2*%
X176530000Y-101590000D03*
%TO.P,A1,10,D7*%
%TO.N,Servo_3*%
X179070000Y-101590000D03*
%TO.P,A1,11,D8*%
%TO.N,Servo_4*%
X181610000Y-101590000D03*
%TO.P,A1,12,D9*%
%TO.N,unconnected-(A1-Pad12)*%
X184150000Y-101590000D03*
%TO.P,A1,13,D10*%
%TO.N,unconnected-(A1-Pad13)*%
X186690000Y-101590000D03*
%TO.P,A1,14,D11*%
%TO.N,unconnected-(A1-Pad14)*%
X189230000Y-101590000D03*
%TO.P,A1,15,D12*%
%TO.N,unconnected-(A1-Pad15)*%
X191770000Y-101590000D03*
%TO.P,A1,16,D13*%
%TO.N,unconnected-(A1-Pad16)*%
X191770000Y-86350000D03*
%TO.P,A1,17,3V3*%
%TO.N,unconnected-(A1-Pad17)*%
X189230000Y-86350000D03*
%TO.P,A1,18,AREF*%
%TO.N,unconnected-(A1-Pad18)*%
X186690000Y-86350000D03*
%TO.P,A1,19,A0*%
%TO.N,unconnected-(A1-Pad19)*%
X184150000Y-86350000D03*
%TO.P,A1,20,A1*%
%TO.N,unconnected-(A1-Pad20)*%
X181610000Y-86350000D03*
%TO.P,A1,21,A2*%
%TO.N,unconnected-(A1-Pad21)*%
X179070000Y-86350000D03*
%TO.P,A1,22,A3*%
%TO.N,unconnected-(A1-Pad22)*%
X176530000Y-86350000D03*
%TO.P,A1,23,A4*%
%TO.N,SDA*%
X173990000Y-86350000D03*
%TO.P,A1,24,A5*%
%TO.N,SCL*%
X171450000Y-86350000D03*
%TO.P,A1,25,A6*%
%TO.N,unconnected-(A1-Pad25)*%
X168910000Y-86350000D03*
%TO.P,A1,26,A7*%
%TO.N,unconnected-(A1-Pad26)*%
X166370000Y-86350000D03*
%TO.P,A1,27,+5V*%
%TO.N,unconnected-(A1-Pad27)*%
X163830000Y-86350000D03*
%TO.P,A1,28,~{RESET}*%
%TO.N,unconnected-(A1-Pad28)*%
X161290000Y-86350000D03*
%TO.P,A1,29,GND*%
%TO.N,GND*%
X158750000Y-86350000D03*
%TO.P,A1,30,VIN*%
%TO.N,3.3v*%
X156210000Y-86350000D03*
%TD*%
D12*
%TO.P,P1 Arm,1,Pin_1*%
%TO.N,+BATT*%
X196000000Y-72000000D03*
D13*
%TO.P,P1 Arm,2,Pin_2*%
%TO.N,Net-(J2-Pad2)*%
X196000000Y-69460000D03*
%TD*%
D12*
%TO.P,V+,1,Pin_1*%
%TO.N,+BATT*%
X177800000Y-108000000D03*
D13*
%TO.P,V+,2,Pin_2*%
X177800000Y-110540000D03*
%TO.P,V+,3,Pin_3*%
X177800000Y-113080000D03*
%TO.P,V+,4,Pin_4*%
X177800000Y-115620000D03*
%TD*%
D10*
%TO.P,Pyro 1,1,Pin_1*%
%TO.N,Net-(J2-Pad1)*%
X186250000Y-67000000D03*
D11*
%TO.P,Pyro 1,2,Pin_2*%
%TO.N,Net-(J2-Pad2)*%
X189750000Y-67000000D03*
%TD*%
D10*
%TO.P,Power in,1,Pin_1*%
%TO.N,GND*%
X162560000Y-112455000D03*
D11*
%TO.P,Power in,2,Pin_2*%
%TO.N,Net-(J1-Pad2)*%
X159060000Y-112455000D03*
%TD*%
D12*
%TO.P,P2 Arm,1,Pin_1*%
%TO.N,+BATT*%
X154000000Y-72000000D03*
D13*
%TO.P,P2 Arm,2,Pin_2*%
%TO.N,Net-(J10-Pad2)*%
X154000000Y-69460000D03*
%TD*%
D12*
%TO.P,SIG,1,Pin_1*%
%TO.N,Servo_4*%
X175000000Y-108000000D03*
D13*
%TO.P,SIG,2,Pin_2*%
%TO.N,Servo_3*%
X175000000Y-110540000D03*
%TO.P,SIG,3,Pin_3*%
%TO.N,Servo_2*%
X175000000Y-113080000D03*
%TO.P,SIG,4,Pin_4*%
%TO.N,Servo_1*%
X175000000Y-115620000D03*
%TD*%
D18*
%TO.P,Q1,1*%
%TO.N,Net-(Q1-Pad1)*%
X187700000Y-80280000D03*
D19*
%TO.P,Q1,2*%
%TO.N,Net-(J2-Pad1)*%
X194000000Y-78000000D03*
D18*
%TO.P,Q1,3*%
%TO.N,GND*%
X187700000Y-75720000D03*
%TD*%
D20*
%TO.P,R1,1*%
%TO.N,GND*%
X187462500Y-72000000D03*
%TO.P,R1,2*%
%TO.N,Net-(Q1-Pad1)*%
X184537500Y-72000000D03*
%TD*%
D21*
%TO.P,C1,1*%
%TO.N,3.3v*%
X160000000Y-107475000D03*
%TO.P,C1,2*%
%TO.N,GND*%
X160000000Y-104525000D03*
%TD*%
D18*
%TO.P,Q2,1*%
%TO.N,Net-(Q2-Pad1)*%
X162200000Y-75720000D03*
D19*
%TO.P,Q2,2*%
%TO.N,Net-(U2-Pad8)*%
X155900000Y-78000000D03*
D18*
%TO.P,Q2,3*%
%TO.N,GND*%
X162200000Y-80280000D03*
%TD*%
D22*
%TO.P,U1,1,GND*%
%TO.N,GND*%
X172480000Y-113150000D03*
D23*
%TO.P,U1,2,VO*%
%TO.N,3.3v*%
X170180000Y-106850000D03*
D22*
X170180000Y-113150000D03*
%TO.P,U1,3,VI*%
%TO.N,+BATT*%
X167880000Y-113150000D03*
%TD*%
D24*
%TO.P,U2,1*%
%TO.N,Pyro_2*%
X178810000Y-73765000D03*
%TO.P,U2,2*%
%TO.N,GND*%
X176270000Y-73765000D03*
%TO.P,U2,3*%
%TO.N,Pyro_1*%
X173730000Y-73765000D03*
%TO.P,U2,4*%
%TO.N,GND*%
X171190000Y-73765000D03*
%TO.P,U2,5*%
%TO.N,Net-(Q1-Pad1)*%
X171190000Y-64235000D03*
%TO.P,U2,6*%
%TO.N,Net-(J2-Pad1)*%
X173730000Y-64235000D03*
%TO.P,U2,7*%
%TO.N,Net-(Q2-Pad1)*%
X176270000Y-64235000D03*
%TO.P,U2,8*%
%TO.N,Net-(U2-Pad8)*%
X178810000Y-64235000D03*
%TD*%
D20*
%TO.P,R2,1*%
%TO.N,GND*%
X165925000Y-72000000D03*
%TO.P,R2,2*%
%TO.N,Net-(Q2-Pad1)*%
X163000000Y-72000000D03*
%TD*%
D25*
%TO.N,*%
X153000000Y-117000000D03*
X197000000Y-117000000D03*
X153000000Y-63000000D03*
X197000000Y-63000000D03*
%TD*%
D26*
%TO.N,GND*%
X176270000Y-79990000D02*
X176260000Y-80000000D01*
X172480000Y-112370000D02*
X172480000Y-107520000D01*
X180340000Y-105340000D02*
X180340000Y-107960000D01*
X158750000Y-83730000D02*
X158750000Y-86350000D01*
X172000000Y-71000000D02*
X171190000Y-71810000D01*
X187700000Y-72237500D02*
X187462500Y-72000000D01*
X158750000Y-91750000D02*
X163830000Y-96830000D01*
X187700000Y-75720000D02*
X187700000Y-72237500D01*
X186000000Y-82000000D02*
X182000000Y-78000000D01*
X165925000Y-76555000D02*
X158750000Y-83730000D01*
X163830000Y-96830000D02*
X163830000Y-101590000D01*
X176270000Y-73765000D02*
X176270000Y-72270000D01*
X158750000Y-86350000D02*
X158750000Y-91750000D01*
X182000000Y-78000000D02*
X182000000Y-73000000D01*
X167690000Y-73765000D02*
X165925000Y-72000000D01*
X175000000Y-105000000D02*
X180000000Y-105000000D01*
X180000000Y-105000000D02*
X180340000Y-105340000D01*
X165925000Y-72000000D02*
X165925000Y-76555000D01*
X190000000Y-82000000D02*
X186000000Y-82000000D01*
X190000000Y-79000000D02*
X190000000Y-82000000D01*
X180000000Y-71000000D02*
X175000000Y-71000000D01*
X176270000Y-72270000D02*
X175000000Y-71000000D01*
X172480000Y-107520000D02*
X175000000Y-105000000D01*
X160000000Y-104525000D02*
X160895000Y-104525000D01*
X187700000Y-75720000D02*
X187700000Y-76700000D01*
X187700000Y-76700000D02*
X190000000Y-79000000D01*
X171190000Y-71810000D02*
X171190000Y-73765000D01*
X182000000Y-73000000D02*
X180000000Y-71000000D01*
X171190000Y-73765000D02*
X167690000Y-73765000D01*
X160895000Y-104525000D02*
X163830000Y-101590000D01*
X175000000Y-71000000D02*
X172000000Y-71000000D01*
%TO.N,Pyro_1*%
X171000000Y-95000000D02*
X166370000Y-99630000D01*
X187000000Y-95000000D02*
X171000000Y-95000000D01*
X166370000Y-99630000D02*
X166370000Y-101590000D01*
X173730000Y-73765000D02*
X173730000Y-75730000D01*
X194000000Y-84000000D02*
X195000000Y-85000000D01*
X181000000Y-79000000D02*
X181000000Y-80000000D01*
X181000000Y-80000000D02*
X185000000Y-84000000D01*
X179000000Y-77000000D02*
X181000000Y-79000000D01*
X185000000Y-84000000D02*
X194000000Y-84000000D01*
X175000000Y-77000000D02*
X179000000Y-77000000D01*
X173730000Y-75730000D02*
X175000000Y-77000000D01*
X195000000Y-85000000D02*
X195000000Y-87000000D01*
X195000000Y-87000000D02*
X187000000Y-95000000D01*
%TO.N,Pyro_2*%
X172500000Y-98000000D02*
X168910000Y-101590000D01*
X178810000Y-73765000D02*
X178810000Y-75810000D01*
X186635718Y-98000000D02*
X172500000Y-98000000D01*
X197000000Y-87635718D02*
X186635718Y-98000000D01*
X195000000Y-83000000D02*
X197000000Y-85000000D01*
X178810000Y-75810000D02*
X186000000Y-83000000D01*
X197000000Y-85000000D02*
X197000000Y-87635718D01*
X186000000Y-83000000D02*
X195000000Y-83000000D01*
%TO.N,Buzzer*%
X192000000Y-111000000D02*
X185000000Y-104000000D01*
X173860000Y-104000000D02*
X171450000Y-101590000D01*
X185000000Y-104000000D02*
X173860000Y-104000000D01*
%TO.N,SDA*%
X171180000Y-83540000D02*
X173990000Y-86350000D01*
X171180000Y-80000000D02*
X171180000Y-83540000D01*
%TO.N,3.3v*%
X153000000Y-103000000D02*
X153000000Y-91000000D01*
X160525000Y-108000000D02*
X165000000Y-108000000D01*
X157475000Y-107475000D02*
X160000000Y-107475000D01*
X160000000Y-107475000D02*
X160525000Y-108000000D01*
X170180000Y-112370000D02*
X170180000Y-106070000D01*
X153000000Y-91000000D02*
X156210000Y-87790000D01*
X153000000Y-103000000D02*
X157475000Y-107475000D01*
X165000000Y-108000000D02*
X166930000Y-106070000D01*
X156210000Y-87790000D02*
X156210000Y-86350000D01*
X166930000Y-106070000D02*
X170180000Y-106070000D01*
%TO.N,+BATT*%
X175380000Y-118000000D02*
X177800000Y-115580000D01*
X151000000Y-75000000D02*
X154000000Y-72000000D01*
X158000000Y-110000000D02*
X157000000Y-109000000D01*
X157000000Y-109000000D02*
X153000000Y-109000000D01*
X167880000Y-112370000D02*
X167880000Y-114880000D01*
X177800000Y-110500000D02*
X177800000Y-113040000D01*
X167880000Y-112370000D02*
X166370000Y-112370000D01*
X177800000Y-110500000D02*
X177800000Y-107960000D01*
X177800000Y-115580000D02*
X177800000Y-113040000D01*
X164000000Y-110000000D02*
X158000000Y-110000000D01*
X167880000Y-114880000D02*
X171000000Y-118000000D01*
X166370000Y-112370000D02*
X164000000Y-110000000D01*
X151000000Y-107000000D02*
X151000000Y-75000000D01*
X153000000Y-109000000D02*
X151000000Y-107000000D01*
X171000000Y-118000000D02*
X175380000Y-118000000D01*
%TO.N,Net-(J2-Pad1)*%
X194000000Y-66000000D02*
X191000000Y-63000000D01*
X196200000Y-76720000D02*
X196720000Y-76720000D01*
X191000000Y-63000000D02*
X188000000Y-63000000D01*
X176495000Y-67000000D02*
X186250000Y-67000000D01*
X194000000Y-79000000D02*
X194000000Y-66000000D01*
X188000000Y-63000000D02*
X186250000Y-64750000D01*
X186250000Y-64750000D02*
X186250000Y-67000000D01*
X173730000Y-64235000D02*
X176495000Y-67000000D01*
%TO.N,Net-(J1-Pad2)*%
X153915000Y-112455000D02*
X153000000Y-111540000D01*
X159060000Y-112455000D02*
X153915000Y-112455000D01*
%TO.N,Net-(Q1-Pad1)*%
X186700000Y-80280000D02*
X184537500Y-78117500D01*
X184537500Y-78117500D02*
X184537500Y-72000000D01*
X171190000Y-64235000D02*
X171190000Y-66000000D01*
X183000000Y-72000000D02*
X184537500Y-72000000D01*
X181000000Y-70000000D02*
X183000000Y-72000000D01*
X175190000Y-70000000D02*
X181000000Y-70000000D01*
X187700000Y-80280000D02*
X186700000Y-80280000D01*
X171190000Y-66000000D02*
X175190000Y-70000000D01*
%TO.N,Net-(Q2-Pad1)*%
X168000000Y-62000000D02*
X166000000Y-64000000D01*
X166000000Y-64000000D02*
X166000000Y-69000000D01*
X163000000Y-72000000D02*
X163000000Y-71000000D01*
X176270000Y-63235000D02*
X175035000Y-62000000D01*
X162200000Y-75720000D02*
X162200000Y-72800000D01*
X166000000Y-69000000D02*
X163000000Y-72000000D01*
X162200000Y-72800000D02*
X163000000Y-72000000D01*
X175035000Y-62000000D02*
X168000000Y-62000000D01*
%TO.N,Net-(U2-Pad8)*%
X178810000Y-62810000D02*
X178810000Y-63235000D01*
X166000000Y-61000000D02*
X177000000Y-61000000D01*
X155900000Y-79000000D02*
X155900000Y-75100000D01*
X160000000Y-71000000D02*
X160000000Y-67000000D01*
X155900000Y-75100000D02*
X160000000Y-71000000D01*
X160100000Y-67100000D02*
X160000000Y-67000000D01*
X160000000Y-67000000D02*
X166000000Y-61000000D01*
X177000000Y-61000000D02*
X178810000Y-62810000D01*
%TD*%
M02*
