M48
; DRILL file {KiCad (6.0.1)} date Sun Feb 20 18:55:45 2022
; FORMAT={-:-/ absolute / inch / decimal}
; #@! TF.CreationDate,2022-02-20T18:55:45+01:00
; #@! TF.GenerationSoftware,Kicad,Pcbnew,(6.0.1)
; #@! TF.FileFunction,Plated,1,2,PTH
FMAT,2
INCH
; #@! TA.AperFunction,Plated,PTH,ComponentDrill
T1C0.0394
; #@! TA.AperFunction,Plated,PTH,ComponentDrill
T2C0.0512
; #@! TA.AperFunction,Plated,PTH,ViaDrill
T3C0.1181
%
G90
G05
T1
X6.0236Y-4.2913
X6.0236Y-4.3913
X6.063Y-2.7346
X6.063Y-2.8346
X6.15Y-3.3996
X6.15Y-3.9996
X6.25Y-3.3996
X6.25Y-3.9996
X6.35Y-3.3996
X6.35Y-3.9996
X6.45Y-3.3996
X6.45Y-3.9996
X6.55Y-3.3996
X6.55Y-3.9996
X6.65Y-3.3996
X6.65Y-3.9996
X6.7394Y-3.1496
X6.75Y-3.3996
X6.75Y-3.9996
X6.8394Y-3.1496
X6.85Y-3.3996
X6.85Y-3.9996
X6.8898Y-4.252
X6.8898Y-4.352
X6.8898Y-4.452
X6.8898Y-4.552
X6.9394Y-3.1496
X6.95Y-3.3996
X6.95Y-3.9996
X7.0Y-4.252
X7.0Y-4.352
X7.0Y-4.452
X7.0Y-4.552
X7.0394Y-3.1496
X7.05Y-3.3996
X7.05Y-3.9996
X7.1102Y-4.252
X7.1102Y-4.352
X7.1102Y-4.452
X7.1102Y-4.552
X7.15Y-3.3996
X7.15Y-3.9996
X7.25Y-3.3996
X7.25Y-3.9996
X7.35Y-3.3996
X7.35Y-3.9996
X7.3622Y-4.3701
X7.45Y-3.3996
X7.45Y-3.9996
X7.55Y-3.3996
X7.55Y-3.9996
X7.5591Y-4.3701
X7.7165Y-2.7346
X7.7165Y-2.8346
T2
X6.2622Y-4.4274
X6.2992Y-2.6378
X6.4Y-4.4274
X6.437Y-2.6378
X7.3327Y-2.6378
X7.4705Y-2.6378
T3
X6.0236Y-2.4803
X6.0236Y-4.6063
X7.7559Y-2.4803
X7.7559Y-4.6063
T0
M30
