%TF.GenerationSoftware,KiCad,Pcbnew,(6.0.1)*%
%TF.CreationDate,2022-02-20T18:55:47+01:00*%
%TF.ProjectId,NANOFC,4e414e4f-4643-42e6-9b69-6361645f7063,rev?*%
%TF.SameCoordinates,Original*%
%TF.FileFunction,Copper,L1,Top*%
%TF.FilePolarity,Positive*%
%FSLAX46Y46*%
G04 Gerber Fmt 4.6, Leading zero omitted, Abs format (unit mm)*
G04 Created by KiCad (PCBNEW (6.0.1)) date 2022-02-20 18:55:47*
%MOMM*%
%LPD*%
G01*
G04 APERTURE LIST*
%TA.AperFunction,ComponentPad*%
%ADD10R,2.600000X2.600000*%
%TD*%
%TA.AperFunction,ComponentPad*%
%ADD11C,2.600000*%
%TD*%
%TA.AperFunction,ComponentPad*%
%ADD12R,1.700000X1.700000*%
%TD*%
%TA.AperFunction,ComponentPad*%
%ADD13O,1.700000X1.700000*%
%TD*%
%TA.AperFunction,ComponentPad*%
%ADD14R,2.000000X2.000000*%
%TD*%
%TA.AperFunction,ComponentPad*%
%ADD15C,2.000000*%
%TD*%
%TA.AperFunction,ComponentPad*%
%ADD16R,1.600000X1.600000*%
%TD*%
%TA.AperFunction,ComponentPad*%
%ADD17O,1.600000X1.600000*%
%TD*%
%TA.AperFunction,ViaPad*%
%ADD18C,3.200000*%
%TD*%
%TA.AperFunction,Conductor*%
%ADD19C,0.250000*%
%TD*%
G04 APERTURE END LIST*
D10*
%TO.P,Pyro 2,1,Pin_1*%
%TO.N,Net-(U2-Pad8)*%
X160000000Y-67000000D03*
D11*
%TO.P,Pyro 2,2,Pin_2*%
%TO.N,Net-(J10-Pad2)*%
X163500000Y-67000000D03*
%TD*%
D12*
%TO.P,Master ARM,1,Pin_1*%
%TO.N,+BATT*%
X153000000Y-109000000D03*
D13*
%TO.P,Master ARM,2,Pin_2*%
%TO.N,Net-(J1-Pad2)*%
X153000000Y-111540000D03*
%TD*%
D14*
%TO.P,BZ1,1,-*%
%TO.N,Buzzer*%
X192000000Y-111000000D03*
D15*
%TO.P,BZ1,2,+*%
%TO.N,GND*%
X187000000Y-111000000D03*
%TD*%
D12*
%TO.P,J3,1,Pin_1*%
%TO.N,3.3v*%
X178800000Y-80000000D03*
D13*
%TO.P,J3,2,Pin_2*%
%TO.N,GND*%
X176260000Y-80000000D03*
%TO.P,J3,3,Pin_3*%
%TO.N,SCL*%
X173720000Y-80000000D03*
%TO.P,J3,4,Pin_4*%
%TO.N,SDA*%
X171180000Y-80000000D03*
%TD*%
D12*
%TO.P,GND,1,Pin_1*%
%TO.N,GND*%
X180600000Y-108000000D03*
D13*
%TO.P,GND,2,Pin_2*%
X180600000Y-110540000D03*
%TO.P,GND,3,Pin_3*%
X180600000Y-113080000D03*
%TO.P,GND,4,Pin_4*%
X180600000Y-115620000D03*
%TD*%
D16*
%TO.P,A1,1,D1/TX*%
%TO.N,unconnected-(A1-Pad1)*%
X156210000Y-101590000D03*
D17*
%TO.P,A1,2,D0/RX*%
%TO.N,unconnected-(A1-Pad2)*%
X158750000Y-101590000D03*
%TO.P,A1,3,~{RESET}*%
%TO.N,unconnected-(A1-Pad3)*%
X161290000Y-101590000D03*
%TO.P,A1,4,GND*%
%TO.N,GND*%
X163830000Y-101590000D03*
%TO.P,A1,5,D2*%
%TO.N,Pyro_1*%
X166370000Y-101590000D03*
%TO.P,A1,6,D3*%
%TO.N,Pyro_2*%
X168910000Y-101590000D03*
%TO.P,A1,7,D4*%
%TO.N,Buzzer*%
X171450000Y-101590000D03*
%TO.P,A1,8,D5*%
%TO.N,Servo_1*%
X173990000Y-101590000D03*
%TO.P,A1,9,D6*%
%TO.N,Servo_2*%
X176530000Y-101590000D03*
%TO.P,A1,10,D7*%
%TO.N,Servo_3*%
X179070000Y-101590000D03*
%TO.P,A1,11,D8*%
%TO.N,Servo_4*%
X181610000Y-101590000D03*
%TO.P,A1,12,D9*%
%TO.N,unconnected-(A1-Pad12)*%
X184150000Y-101590000D03*
%TO.P,A1,13,D10*%
%TO.N,unconnected-(A1-Pad13)*%
X186690000Y-101590000D03*
%TO.P,A1,14,D11*%
%TO.N,unconnected-(A1-Pad14)*%
X189230000Y-101590000D03*
%TO.P,A1,15,D12*%
%TO.N,unconnected-(A1-Pad15)*%
X191770000Y-101590000D03*
%TO.P,A1,16,D13*%
%TO.N,unconnected-(A1-Pad16)*%
X191770000Y-86350000D03*
%TO.P,A1,17,3V3*%
%TO.N,unconnected-(A1-Pad17)*%
X189230000Y-86350000D03*
%TO.P,A1,18,AREF*%
%TO.N,unconnected-(A1-Pad18)*%
X186690000Y-86350000D03*
%TO.P,A1,19,A0*%
%TO.N,unconnected-(A1-Pad19)*%
X184150000Y-86350000D03*
%TO.P,A1,20,A1*%
%TO.N,unconnected-(A1-Pad20)*%
X181610000Y-86350000D03*
%TO.P,A1,21,A2*%
%TO.N,unconnected-(A1-Pad21)*%
X179070000Y-86350000D03*
%TO.P,A1,22,A3*%
%TO.N,unconnected-(A1-Pad22)*%
X176530000Y-86350000D03*
%TO.P,A1,23,A4*%
%TO.N,SDA*%
X173990000Y-86350000D03*
%TO.P,A1,24,A5*%
%TO.N,SCL*%
X171450000Y-86350000D03*
%TO.P,A1,25,A6*%
%TO.N,unconnected-(A1-Pad25)*%
X168910000Y-86350000D03*
%TO.P,A1,26,A7*%
%TO.N,unconnected-(A1-Pad26)*%
X166370000Y-86350000D03*
%TO.P,A1,27,+5V*%
%TO.N,unconnected-(A1-Pad27)*%
X163830000Y-86350000D03*
%TO.P,A1,28,~{RESET}*%
%TO.N,unconnected-(A1-Pad28)*%
X161290000Y-86350000D03*
%TO.P,A1,29,GND*%
%TO.N,GND*%
X158750000Y-86350000D03*
%TO.P,A1,30,VIN*%
%TO.N,3.3v*%
X156210000Y-86350000D03*
%TD*%
D12*
%TO.P,P1 Arm,1,Pin_1*%
%TO.N,+BATT*%
X196000000Y-72000000D03*
D13*
%TO.P,P1 Arm,2,Pin_2*%
%TO.N,Net-(J2-Pad2)*%
X196000000Y-69460000D03*
%TD*%
D12*
%TO.P,V+,1,Pin_1*%
%TO.N,+BATT*%
X177800000Y-108000000D03*
D13*
%TO.P,V+,2,Pin_2*%
X177800000Y-110540000D03*
%TO.P,V+,3,Pin_3*%
X177800000Y-113080000D03*
%TO.P,V+,4,Pin_4*%
X177800000Y-115620000D03*
%TD*%
D10*
%TO.P,Pyro 1,1,Pin_1*%
%TO.N,Net-(J2-Pad1)*%
X186250000Y-67000000D03*
D11*
%TO.P,Pyro 1,2,Pin_2*%
%TO.N,Net-(J2-Pad2)*%
X189750000Y-67000000D03*
%TD*%
D10*
%TO.P,Power in,1,Pin_1*%
%TO.N,GND*%
X162560000Y-112455000D03*
D11*
%TO.P,Power in,2,Pin_2*%
%TO.N,Net-(J1-Pad2)*%
X159060000Y-112455000D03*
%TD*%
D12*
%TO.P,P2 Arm,1,Pin_1*%
%TO.N,+BATT*%
X154000000Y-72000000D03*
D13*
%TO.P,P2 Arm,2,Pin_2*%
%TO.N,Net-(J10-Pad2)*%
X154000000Y-69460000D03*
%TD*%
D12*
%TO.P,SIG,1,Pin_1*%
%TO.N,Servo_4*%
X175000000Y-108000000D03*
D13*
%TO.P,SIG,2,Pin_2*%
%TO.N,Servo_3*%
X175000000Y-110540000D03*
%TO.P,SIG,3,Pin_3*%
%TO.N,Servo_2*%
X175000000Y-113080000D03*
%TO.P,SIG,4,Pin_4*%
%TO.N,Servo_1*%
X175000000Y-115620000D03*
%TD*%
D18*
%TO.N,*%
X153000000Y-117000000D03*
X197000000Y-117000000D03*
X153000000Y-63000000D03*
X197000000Y-63000000D03*
%TD*%
D19*
%TO.N,GND*%
X167100000Y-78000000D02*
X158750000Y-86350000D01*
X180600000Y-113080000D02*
X180600000Y-110540000D01*
X180600000Y-110540000D02*
X180600000Y-108000000D01*
X178220000Y-118000000D02*
X180600000Y-115620000D01*
X162560000Y-112455000D02*
X162560000Y-115560000D01*
X180600000Y-115620000D02*
X180600000Y-113080000D01*
X162560000Y-112455000D02*
X162560000Y-102860000D01*
X180600000Y-115620000D02*
X182380000Y-115620000D01*
X176260000Y-80000000D02*
X174260000Y-78000000D01*
X174260000Y-78000000D02*
X167100000Y-78000000D01*
X170000000Y-117000000D02*
X171000000Y-118000000D01*
X178000000Y-118000000D02*
X178000000Y-117920000D01*
X182380000Y-115620000D02*
X187000000Y-111000000D01*
X162560000Y-102860000D02*
X163830000Y-101590000D01*
X164000000Y-117000000D02*
X170000000Y-117000000D01*
X162560000Y-115560000D02*
X164000000Y-117000000D01*
X178000000Y-118000000D02*
X178220000Y-118000000D01*
X171000000Y-118000000D02*
X178000000Y-118000000D01*
%TO.N,SCL*%
X171450000Y-82270000D02*
X173720000Y-80000000D01*
X171450000Y-86350000D02*
X171450000Y-82270000D01*
%TO.N,3.3v*%
X156210000Y-83790000D02*
X156210000Y-86350000D01*
X174800000Y-76000000D02*
X164000000Y-76000000D01*
X164000000Y-76000000D02*
X156210000Y-83790000D01*
X178800000Y-80000000D02*
X174800000Y-76000000D01*
%TO.N,+BATT*%
X154000000Y-72000000D02*
X196000000Y-72000000D01*
%TO.N,Servo_1*%
X173990000Y-103010000D02*
X171000000Y-106000000D01*
X173990000Y-101580000D02*
X173990000Y-102010000D01*
X171000000Y-106000000D02*
X171000000Y-111620000D01*
X173990000Y-101590000D02*
X173990000Y-103010000D01*
X171000000Y-111620000D02*
X175000000Y-115620000D01*
%TO.N,Servo_2*%
X172120000Y-106000000D02*
X172120000Y-110200000D01*
X172120000Y-110200000D02*
X175000000Y-113080000D01*
X176530000Y-101590000D02*
X172120000Y-106000000D01*
%TO.N,Servo_3*%
X179070000Y-101590000D02*
X176660000Y-104000000D01*
X174500000Y-110500000D02*
X175260000Y-110500000D01*
X173000000Y-106000000D02*
X173000000Y-108540000D01*
X175000000Y-104000000D02*
X173000000Y-106000000D01*
X176660000Y-104000000D02*
X175000000Y-104000000D01*
X173000000Y-108540000D02*
X175000000Y-110540000D01*
%TO.N,Servo_4*%
X176000000Y-105000000D02*
X175000000Y-106000000D01*
X181610000Y-101590000D02*
X178200000Y-105000000D01*
X178200000Y-105000000D02*
X176000000Y-105000000D01*
X175000000Y-106000000D02*
X175000000Y-108000000D01*
%TO.N,Net-(J2-Pad2)*%
X196000000Y-69460000D02*
X193540000Y-67000000D01*
X193540000Y-67000000D02*
X189750000Y-67000000D01*
%TO.N,Net-(J10-Pad2)*%
X154000000Y-69460000D02*
X161040000Y-69460000D01*
X161040000Y-69460000D02*
X163500000Y-67000000D01*
%TD*%
M02*
