%TF.GenerationSoftware,KiCad,Pcbnew,(6.0.1)*%
%TF.CreationDate,2022-02-20T18:55:47+01:00*%
%TF.ProjectId,NANOFC,4e414e4f-4643-42e6-9b69-6361645f7063,rev?*%
%TF.SameCoordinates,Original*%
%TF.FileFunction,Legend,Top*%
%TF.FilePolarity,Positive*%
%FSLAX46Y46*%
G04 Gerber Fmt 4.6, Leading zero omitted, Abs format (unit mm)*
G04 Created by KiCad (PCBNEW (6.0.1)) date 2022-02-20 18:55:47*
%MOMM*%
%LPD*%
G01*
G04 APERTURE LIST*
%ADD10C,0.150000*%
%ADD11C,0.200000*%
%ADD12C,0.120000*%
G04 APERTURE END LIST*
D10*
%TO.C,Pyro 2*%
X159438095Y-73452380D02*
X159438095Y-72452380D01*
X159819047Y-72452380D01*
X159914285Y-72500000D01*
X159961904Y-72547619D01*
X160009523Y-72642857D01*
X160009523Y-72785714D01*
X159961904Y-72880952D01*
X159914285Y-72928571D01*
X159819047Y-72976190D01*
X159438095Y-72976190D01*
X160342857Y-72785714D02*
X160580952Y-73452380D01*
X160819047Y-72785714D02*
X160580952Y-73452380D01*
X160485714Y-73690476D01*
X160438095Y-73738095D01*
X160342857Y-73785714D01*
X161200000Y-73452380D02*
X161200000Y-72785714D01*
X161200000Y-72976190D02*
X161247619Y-72880952D01*
X161295238Y-72833333D01*
X161390476Y-72785714D01*
X161485714Y-72785714D01*
X161961904Y-73452380D02*
X161866666Y-73404761D01*
X161819047Y-73357142D01*
X161771428Y-73261904D01*
X161771428Y-72976190D01*
X161819047Y-72880952D01*
X161866666Y-72833333D01*
X161961904Y-72785714D01*
X162104761Y-72785714D01*
X162200000Y-72833333D01*
X162247619Y-72880952D01*
X162295238Y-72976190D01*
X162295238Y-73261904D01*
X162247619Y-73357142D01*
X162200000Y-73404761D01*
X162104761Y-73452380D01*
X161961904Y-73452380D01*
X163438095Y-72547619D02*
X163485714Y-72500000D01*
X163580952Y-72452380D01*
X163819047Y-72452380D01*
X163914285Y-72500000D01*
X163961904Y-72547619D01*
X164009523Y-72642857D01*
X164009523Y-72738095D01*
X163961904Y-72880952D01*
X163390476Y-73452380D01*
X164009523Y-73452380D01*
D11*
%TO.C,Master ARM*%
X150404761Y-105704761D02*
X150404761Y-103704761D01*
X150738095Y-105133333D01*
X151071428Y-103704761D01*
X151071428Y-105704761D01*
X151976190Y-105704761D02*
X151976190Y-104657142D01*
X151928571Y-104466666D01*
X151833333Y-104371428D01*
X151642857Y-104371428D01*
X151547619Y-104466666D01*
X151976190Y-105609523D02*
X151880952Y-105704761D01*
X151642857Y-105704761D01*
X151547619Y-105609523D01*
X151500000Y-105419047D01*
X151500000Y-105228571D01*
X151547619Y-105038095D01*
X151642857Y-104942857D01*
X151880952Y-104942857D01*
X151976190Y-104847619D01*
X152404761Y-105609523D02*
X152500000Y-105704761D01*
X152690476Y-105704761D01*
X152785714Y-105609523D01*
X152833333Y-105419047D01*
X152833333Y-105323809D01*
X152785714Y-105133333D01*
X152690476Y-105038095D01*
X152547619Y-105038095D01*
X152452380Y-104942857D01*
X152404761Y-104752380D01*
X152404761Y-104657142D01*
X152452380Y-104466666D01*
X152547619Y-104371428D01*
X152690476Y-104371428D01*
X152785714Y-104466666D01*
X153119047Y-104371428D02*
X153500000Y-104371428D01*
X153261904Y-103704761D02*
X153261904Y-105419047D01*
X153309523Y-105609523D01*
X153404761Y-105704761D01*
X153500000Y-105704761D01*
X154214285Y-105609523D02*
X154119047Y-105704761D01*
X153928571Y-105704761D01*
X153833333Y-105609523D01*
X153785714Y-105419047D01*
X153785714Y-104657142D01*
X153833333Y-104466666D01*
X153928571Y-104371428D01*
X154119047Y-104371428D01*
X154214285Y-104466666D01*
X154261904Y-104657142D01*
X154261904Y-104847619D01*
X153785714Y-105038095D01*
X154690476Y-105704761D02*
X154690476Y-104371428D01*
X154690476Y-104752380D02*
X154738095Y-104561904D01*
X154785714Y-104466666D01*
X154880952Y-104371428D01*
X154976190Y-104371428D01*
X156023809Y-105133333D02*
X156500000Y-105133333D01*
X155928571Y-105704761D02*
X156261904Y-103704761D01*
X156595238Y-105704761D01*
X157500000Y-105704761D02*
X157166666Y-104752380D01*
X156928571Y-105704761D02*
X156928571Y-103704761D01*
X157309523Y-103704761D01*
X157404761Y-103800000D01*
X157452380Y-103895238D01*
X157500000Y-104085714D01*
X157500000Y-104371428D01*
X157452380Y-104561904D01*
X157404761Y-104657142D01*
X157309523Y-104752380D01*
X156928571Y-104752380D01*
X157928571Y-105704761D02*
X157928571Y-103704761D01*
X158261904Y-105133333D01*
X158595238Y-103704761D01*
X158595238Y-105704761D01*
D10*
%TO.C,GND*%
X179838095Y-117500000D02*
X179742857Y-117452380D01*
X179600000Y-117452380D01*
X179457142Y-117500000D01*
X179361904Y-117595238D01*
X179314285Y-117690476D01*
X179266666Y-117880952D01*
X179266666Y-118023809D01*
X179314285Y-118214285D01*
X179361904Y-118309523D01*
X179457142Y-118404761D01*
X179600000Y-118452380D01*
X179695238Y-118452380D01*
X179838095Y-118404761D01*
X179885714Y-118357142D01*
X179885714Y-118023809D01*
X179695238Y-118023809D01*
X180314285Y-118452380D02*
X180314285Y-117452380D01*
X180885714Y-118452380D01*
X180885714Y-117452380D01*
X181361904Y-118452380D02*
X181361904Y-117452380D01*
X181600000Y-117452380D01*
X181742857Y-117500000D01*
X181838095Y-117595238D01*
X181885714Y-117690476D01*
X181933333Y-117880952D01*
X181933333Y-118023809D01*
X181885714Y-118214285D01*
X181838095Y-118309523D01*
X181742857Y-118404761D01*
X181600000Y-118452380D01*
X181361904Y-118452380D01*
%TO.C,P1 Arm*%
X193476190Y-74782380D02*
X193476190Y-73782380D01*
X193857142Y-73782380D01*
X193952380Y-73830000D01*
X194000000Y-73877619D01*
X194047619Y-73972857D01*
X194047619Y-74115714D01*
X194000000Y-74210952D01*
X193952380Y-74258571D01*
X193857142Y-74306190D01*
X193476190Y-74306190D01*
X195000000Y-74782380D02*
X194428571Y-74782380D01*
X194714285Y-74782380D02*
X194714285Y-73782380D01*
X194619047Y-73925238D01*
X194523809Y-74020476D01*
X194428571Y-74068095D01*
X196142857Y-74496666D02*
X196619047Y-74496666D01*
X196047619Y-74782380D02*
X196380952Y-73782380D01*
X196714285Y-74782380D01*
X197047619Y-74782380D02*
X197047619Y-74115714D01*
X197047619Y-74306190D02*
X197095238Y-74210952D01*
X197142857Y-74163333D01*
X197238095Y-74115714D01*
X197333333Y-74115714D01*
X197666666Y-74782380D02*
X197666666Y-74115714D01*
X197666666Y-74210952D02*
X197714285Y-74163333D01*
X197809523Y-74115714D01*
X197952380Y-74115714D01*
X198047619Y-74163333D01*
X198095238Y-74258571D01*
X198095238Y-74782380D01*
X198095238Y-74258571D02*
X198142857Y-74163333D01*
X198238095Y-74115714D01*
X198380952Y-74115714D01*
X198476190Y-74163333D01*
X198523809Y-74258571D01*
X198523809Y-74782380D01*
%TO.C,V+*%
X176847619Y-117452380D02*
X177180952Y-118452380D01*
X177514285Y-117452380D01*
X177847619Y-118071428D02*
X178609523Y-118071428D01*
X178228571Y-118452380D02*
X178228571Y-117690476D01*
%TO.C,Pyro 1*%
X185738095Y-73452380D02*
X185738095Y-72452380D01*
X186119047Y-72452380D01*
X186214285Y-72500000D01*
X186261904Y-72547619D01*
X186309523Y-72642857D01*
X186309523Y-72785714D01*
X186261904Y-72880952D01*
X186214285Y-72928571D01*
X186119047Y-72976190D01*
X185738095Y-72976190D01*
X186642857Y-72785714D02*
X186880952Y-73452380D01*
X187119047Y-72785714D02*
X186880952Y-73452380D01*
X186785714Y-73690476D01*
X186738095Y-73738095D01*
X186642857Y-73785714D01*
X187500000Y-73452380D02*
X187500000Y-72785714D01*
X187500000Y-72976190D02*
X187547619Y-72880952D01*
X187595238Y-72833333D01*
X187690476Y-72785714D01*
X187785714Y-72785714D01*
X188261904Y-73452380D02*
X188166666Y-73404761D01*
X188119047Y-73357142D01*
X188071428Y-73261904D01*
X188071428Y-72976190D01*
X188119047Y-72880952D01*
X188166666Y-72833333D01*
X188261904Y-72785714D01*
X188404761Y-72785714D01*
X188500000Y-72833333D01*
X188547619Y-72880952D01*
X188595238Y-72976190D01*
X188595238Y-73261904D01*
X188547619Y-73357142D01*
X188500000Y-73404761D01*
X188404761Y-73452380D01*
X188261904Y-73452380D01*
X190309523Y-73452380D02*
X189738095Y-73452380D01*
X190023809Y-73452380D02*
X190023809Y-72452380D01*
X189928571Y-72595238D01*
X189833333Y-72690476D01*
X189738095Y-72738095D01*
%TO.C,Power in*%
X157652380Y-107452380D02*
X157652380Y-106452380D01*
X158033333Y-106452380D01*
X158128571Y-106500000D01*
X158176190Y-106547619D01*
X158223809Y-106642857D01*
X158223809Y-106785714D01*
X158176190Y-106880952D01*
X158128571Y-106928571D01*
X158033333Y-106976190D01*
X157652380Y-106976190D01*
X158795238Y-107452380D02*
X158700000Y-107404761D01*
X158652380Y-107357142D01*
X158604761Y-107261904D01*
X158604761Y-106976190D01*
X158652380Y-106880952D01*
X158700000Y-106833333D01*
X158795238Y-106785714D01*
X158938095Y-106785714D01*
X159033333Y-106833333D01*
X159080952Y-106880952D01*
X159128571Y-106976190D01*
X159128571Y-107261904D01*
X159080952Y-107357142D01*
X159033333Y-107404761D01*
X158938095Y-107452380D01*
X158795238Y-107452380D01*
X159461904Y-106785714D02*
X159652380Y-107452380D01*
X159842857Y-106976190D01*
X160033333Y-107452380D01*
X160223809Y-106785714D01*
X160985714Y-107404761D02*
X160890476Y-107452380D01*
X160700000Y-107452380D01*
X160604761Y-107404761D01*
X160557142Y-107309523D01*
X160557142Y-106928571D01*
X160604761Y-106833333D01*
X160700000Y-106785714D01*
X160890476Y-106785714D01*
X160985714Y-106833333D01*
X161033333Y-106928571D01*
X161033333Y-107023809D01*
X160557142Y-107119047D01*
X161461904Y-107452380D02*
X161461904Y-106785714D01*
X161461904Y-106976190D02*
X161509523Y-106880952D01*
X161557142Y-106833333D01*
X161652380Y-106785714D01*
X161747619Y-106785714D01*
X162842857Y-107452380D02*
X162842857Y-106785714D01*
X162842857Y-106452380D02*
X162795238Y-106500000D01*
X162842857Y-106547619D01*
X162890476Y-106500000D01*
X162842857Y-106452380D01*
X162842857Y-106547619D01*
X163319047Y-106785714D02*
X163319047Y-107452380D01*
X163319047Y-106880952D02*
X163366666Y-106833333D01*
X163461904Y-106785714D01*
X163604761Y-106785714D01*
X163700000Y-106833333D01*
X163747619Y-106928571D01*
X163747619Y-107452380D01*
%TO.C,P2 Arm*%
X151476190Y-74782380D02*
X151476190Y-73782380D01*
X151857142Y-73782380D01*
X151952380Y-73830000D01*
X152000000Y-73877619D01*
X152047619Y-73972857D01*
X152047619Y-74115714D01*
X152000000Y-74210952D01*
X151952380Y-74258571D01*
X151857142Y-74306190D01*
X151476190Y-74306190D01*
X152428571Y-73877619D02*
X152476190Y-73830000D01*
X152571428Y-73782380D01*
X152809523Y-73782380D01*
X152904761Y-73830000D01*
X152952380Y-73877619D01*
X153000000Y-73972857D01*
X153000000Y-74068095D01*
X152952380Y-74210952D01*
X152380952Y-74782380D01*
X153000000Y-74782380D01*
X154142857Y-74496666D02*
X154619047Y-74496666D01*
X154047619Y-74782380D02*
X154380952Y-73782380D01*
X154714285Y-74782380D01*
X155047619Y-74782380D02*
X155047619Y-74115714D01*
X155047619Y-74306190D02*
X155095238Y-74210952D01*
X155142857Y-74163333D01*
X155238095Y-74115714D01*
X155333333Y-74115714D01*
X155666666Y-74782380D02*
X155666666Y-74115714D01*
X155666666Y-74210952D02*
X155714285Y-74163333D01*
X155809523Y-74115714D01*
X155952380Y-74115714D01*
X156047619Y-74163333D01*
X156095238Y-74258571D01*
X156095238Y-74782380D01*
X156095238Y-74258571D02*
X156142857Y-74163333D01*
X156238095Y-74115714D01*
X156380952Y-74115714D01*
X156476190Y-74163333D01*
X156523809Y-74258571D01*
X156523809Y-74782380D01*
%TO.C,SIG*%
X173976190Y-118404761D02*
X174119047Y-118452380D01*
X174357142Y-118452380D01*
X174452380Y-118404761D01*
X174500000Y-118357142D01*
X174547619Y-118261904D01*
X174547619Y-118166666D01*
X174500000Y-118071428D01*
X174452380Y-118023809D01*
X174357142Y-117976190D01*
X174166666Y-117928571D01*
X174071428Y-117880952D01*
X174023809Y-117833333D01*
X173976190Y-117738095D01*
X173976190Y-117642857D01*
X174023809Y-117547619D01*
X174071428Y-117500000D01*
X174166666Y-117452380D01*
X174404761Y-117452380D01*
X174547619Y-117500000D01*
X174976190Y-118452380D02*
X174976190Y-117452380D01*
X175976190Y-117500000D02*
X175880952Y-117452380D01*
X175738095Y-117452380D01*
X175595238Y-117500000D01*
X175500000Y-117595238D01*
X175452380Y-117690476D01*
X175404761Y-117880952D01*
X175404761Y-118023809D01*
X175452380Y-118214285D01*
X175500000Y-118309523D01*
X175595238Y-118404761D01*
X175738095Y-118452380D01*
X175833333Y-118452380D01*
X175976190Y-118404761D01*
X176023809Y-118357142D01*
X176023809Y-118023809D01*
X175833333Y-118023809D01*
D12*
%TO.C,Pyro 2*%
X158600000Y-64000000D02*
X161400000Y-64000000D01*
X165810000Y-63240000D02*
X165810000Y-71660000D01*
X164900000Y-64000000D02*
X164900000Y-66311000D01*
X158600000Y-64000000D02*
X158600000Y-65460000D01*
X157690000Y-68101000D02*
X158460000Y-68101000D01*
X161540000Y-68101000D02*
X162367000Y-68101000D01*
X164900000Y-67689000D02*
X164900000Y-67750000D01*
X157450000Y-69660000D02*
X157450000Y-71900000D01*
X164900000Y-67750000D02*
X164900000Y-67750000D01*
X157690000Y-63240000D02*
X157690000Y-71660000D01*
X164634000Y-68101000D02*
X165810000Y-68101000D01*
X162100000Y-67750000D02*
X162101000Y-67750000D01*
X157450000Y-71900000D02*
X159450000Y-71900000D01*
X162100000Y-67689000D02*
X162100000Y-67750000D01*
X161400000Y-64000000D02*
X161400000Y-65460000D01*
X162100000Y-64000000D02*
X164900000Y-64000000D01*
X157690000Y-71660000D02*
X165810000Y-71660000D01*
X162100000Y-64000000D02*
X162100000Y-66311000D01*
X157690000Y-63240000D02*
X165810000Y-63240000D01*
X164440000Y-65742000D02*
G75*
G03*
X162560085Y-65742233I-940000J342000D01*
G01*
X160998000Y-65469000D02*
G75*
G03*
X159002110Y-65470566I-998000J69000D01*
G01*
%TO.C,Master ARM*%
X151670000Y-112870000D02*
X154330000Y-112870000D01*
X154330000Y-110270000D02*
X154330000Y-112870000D01*
X151670000Y-110270000D02*
X151670000Y-112870000D01*
X151670000Y-110270000D02*
X154330000Y-110270000D01*
X151670000Y-109000000D02*
X151670000Y-107670000D01*
X151670000Y-107670000D02*
X153000000Y-107670000D01*
%TO.C,BZ1*%
X195900000Y-112500000D02*
G75*
G03*
X195900000Y-109500001I-6400010J1499999D01*
G01*
X195730000Y-111000000D02*
G75*
G03*
X195730000Y-111000000I-6230000J0D01*
G01*
%TO.C,J3*%
X178800000Y-78670000D02*
X180130000Y-78670000D01*
X177530000Y-78670000D02*
X169850000Y-78670000D01*
X177530000Y-81330000D02*
X169850000Y-81330000D01*
X169850000Y-78670000D02*
X169850000Y-81330000D01*
X180130000Y-78670000D02*
X180130000Y-80000000D01*
X177530000Y-78670000D02*
X177530000Y-81330000D01*
%TO.C,GND*%
X181930000Y-109270000D02*
X181930000Y-116950000D01*
X179270000Y-109270000D02*
X181930000Y-109270000D01*
X179270000Y-106670000D02*
X180600000Y-106670000D01*
X179270000Y-108000000D02*
X179270000Y-106670000D01*
X179270000Y-116950000D02*
X181930000Y-116950000D01*
X179270000Y-109270000D02*
X179270000Y-116950000D01*
%TO.C,A1*%
X193040000Y-100320000D02*
X193040000Y-102990000D01*
X154940000Y-87620000D02*
X154940000Y-84950000D01*
X195710000Y-84950000D02*
X152270000Y-84950000D01*
X152270000Y-102990000D02*
X154940000Y-102990000D01*
X157480000Y-102990000D02*
X195710000Y-102990000D01*
X157480000Y-100320000D02*
X157480000Y-102990000D01*
X154940000Y-87620000D02*
X193040000Y-87620000D01*
X193040000Y-87620000D02*
X193040000Y-84950000D01*
X157480000Y-100320000D02*
X193040000Y-100320000D01*
X152270000Y-84950000D02*
X152270000Y-102990000D01*
X154940000Y-100320000D02*
X154940000Y-102990000D01*
X157480000Y-100320000D02*
X154940000Y-100320000D01*
X195710000Y-102990000D02*
X195710000Y-84950000D01*
%TO.C,P1 Arm*%
X197330000Y-72000000D02*
X197330000Y-73330000D01*
X197330000Y-68130000D02*
X194670000Y-68130000D01*
X194670000Y-70730000D02*
X194670000Y-68130000D01*
X197330000Y-73330000D02*
X196000000Y-73330000D01*
X197330000Y-70730000D02*
X197330000Y-68130000D01*
X197330000Y-70730000D02*
X194670000Y-70730000D01*
%TO.C,V+*%
X176470000Y-106670000D02*
X177800000Y-106670000D01*
X176470000Y-108000000D02*
X176470000Y-106670000D01*
X176470000Y-109270000D02*
X179130000Y-109270000D01*
X176470000Y-109270000D02*
X176470000Y-116950000D01*
X176470000Y-116950000D02*
X179130000Y-116950000D01*
X179130000Y-109270000D02*
X179130000Y-116950000D01*
%TO.C,Pyro 1*%
X191150000Y-67750000D02*
X191150000Y-67750000D01*
X183940000Y-71660000D02*
X192060000Y-71660000D01*
X188350000Y-67689000D02*
X188350000Y-67750000D01*
X184850000Y-64000000D02*
X184850000Y-65460000D01*
X188350000Y-67750000D02*
X188351000Y-67750000D01*
X183940000Y-68101000D02*
X184710000Y-68101000D01*
X184850000Y-64000000D02*
X187650000Y-64000000D01*
X191150000Y-67689000D02*
X191150000Y-67750000D01*
X183700000Y-69660000D02*
X183700000Y-71900000D01*
X190884000Y-68101000D02*
X192060000Y-68101000D01*
X188350000Y-64000000D02*
X188350000Y-66311000D01*
X192060000Y-63240000D02*
X192060000Y-71660000D01*
X187650000Y-64000000D02*
X187650000Y-65460000D01*
X187790000Y-68101000D02*
X188617000Y-68101000D01*
X191150000Y-64000000D02*
X191150000Y-66311000D01*
X183940000Y-63240000D02*
X183940000Y-71660000D01*
X183940000Y-63240000D02*
X192060000Y-63240000D01*
X188350000Y-64000000D02*
X191150000Y-64000000D01*
X183700000Y-71900000D02*
X185700000Y-71900000D01*
X190690000Y-65742000D02*
G75*
G03*
X188810085Y-65742233I-940000J342000D01*
G01*
X187248000Y-65469000D02*
G75*
G03*
X185252110Y-65470566I-998000J69000D01*
G01*
%TO.C,Power in*%
X157660000Y-115455000D02*
X157660000Y-113144000D01*
X157926000Y-111354000D02*
X156750000Y-111354000D01*
X164870000Y-116215000D02*
X164870000Y-107795000D01*
X160460000Y-111705000D02*
X160459000Y-111705000D01*
X164870000Y-116215000D02*
X156750000Y-116215000D01*
X160460000Y-115455000D02*
X160460000Y-113144000D01*
X160460000Y-111766000D02*
X160460000Y-111705000D01*
X161160000Y-115455000D02*
X161160000Y-113995000D01*
X157660000Y-111705000D02*
X157660000Y-111705000D01*
X165110000Y-109795000D02*
X165110000Y-107555000D01*
X164870000Y-111354000D02*
X164100000Y-111354000D01*
X165110000Y-107555000D02*
X163110000Y-107555000D01*
X157660000Y-111766000D02*
X157660000Y-111705000D01*
X160460000Y-115455000D02*
X157660000Y-115455000D01*
X164870000Y-107795000D02*
X156750000Y-107795000D01*
X163960000Y-115455000D02*
X161160000Y-115455000D01*
X156750000Y-116215000D02*
X156750000Y-107795000D01*
X163960000Y-115455000D02*
X163960000Y-113995000D01*
X161020000Y-111354000D02*
X160193000Y-111354000D01*
X158120000Y-113713000D02*
G75*
G03*
X159999915Y-113712767I940000J-342000D01*
G01*
X161562000Y-113986000D02*
G75*
G03*
X163557890Y-113984434I998000J-69000D01*
G01*
%TO.C,P2 Arm*%
X155330000Y-73330000D02*
X154000000Y-73330000D01*
X155330000Y-72000000D02*
X155330000Y-73330000D01*
X152670000Y-70730000D02*
X152670000Y-68130000D01*
X155330000Y-70730000D02*
X155330000Y-68130000D01*
X155330000Y-70730000D02*
X152670000Y-70730000D01*
X155330000Y-68130000D02*
X152670000Y-68130000D01*
%TO.C,SIG*%
X176330000Y-109270000D02*
X176330000Y-116950000D01*
X173670000Y-109270000D02*
X173670000Y-116950000D01*
X173670000Y-116950000D02*
X176330000Y-116950000D01*
X173670000Y-109270000D02*
X176330000Y-109270000D01*
X173670000Y-108000000D02*
X173670000Y-106670000D01*
X173670000Y-106670000D02*
X175000000Y-106670000D01*
%TD*%
M02*
