%TF.GenerationSoftware,KiCad,Pcbnew,(6.0.1)*%
%TF.CreationDate,2022-02-20T18:55:47+01:00*%
%TF.ProjectId,NANOFC,4e414e4f-4643-42e6-9b69-6361645f7063,rev?*%
%TF.SameCoordinates,Original*%
%TF.FileFunction,AssemblyDrawing,Top*%
%FSLAX46Y46*%
G04 Gerber Fmt 4.6, Leading zero omitted, Abs format (unit mm)*
G04 Created by KiCad (PCBNEW (6.0.1)) date 2022-02-20 18:55:47*
%MOMM*%
%LPD*%
G01*
G04 APERTURE LIST*
%ADD10C,0.150000*%
%ADD11C,0.100000*%
G04 APERTURE END LIST*
D10*
%TO.C,BZ1*%
X188619047Y-113358571D02*
X188761904Y-113406190D01*
X188809523Y-113453809D01*
X188857142Y-113549047D01*
X188857142Y-113691904D01*
X188809523Y-113787142D01*
X188761904Y-113834761D01*
X188666666Y-113882380D01*
X188285714Y-113882380D01*
X188285714Y-112882380D01*
X188619047Y-112882380D01*
X188714285Y-112930000D01*
X188761904Y-112977619D01*
X188809523Y-113072857D01*
X188809523Y-113168095D01*
X188761904Y-113263333D01*
X188714285Y-113310952D01*
X188619047Y-113358571D01*
X188285714Y-113358571D01*
X189190476Y-112882380D02*
X189857142Y-112882380D01*
X189190476Y-113882380D01*
X189857142Y-113882380D01*
X190761904Y-113882380D02*
X190190476Y-113882380D01*
X190476190Y-113882380D02*
X190476190Y-112882380D01*
X190380952Y-113025238D01*
X190285714Y-113120476D01*
X190190476Y-113168095D01*
%TO.C,J3*%
X172180476Y-83208571D02*
X172323333Y-83256190D01*
X172370952Y-83303809D01*
X172418571Y-83399047D01*
X172418571Y-83541904D01*
X172370952Y-83637142D01*
X172323333Y-83684761D01*
X172228095Y-83732380D01*
X171847142Y-83732380D01*
X171847142Y-82732380D01*
X172180476Y-82732380D01*
X172275714Y-82780000D01*
X172323333Y-82827619D01*
X172370952Y-82922857D01*
X172370952Y-83018095D01*
X172323333Y-83113333D01*
X172275714Y-83160952D01*
X172180476Y-83208571D01*
X171847142Y-83208571D01*
X172847142Y-83732380D02*
X172847142Y-82732380D01*
X173180476Y-83446666D01*
X173513809Y-82732380D01*
X173513809Y-83732380D01*
X173990000Y-83732380D02*
X173990000Y-82732380D01*
X174370952Y-82732380D01*
X174466190Y-82780000D01*
X174513809Y-82827619D01*
X174561428Y-82922857D01*
X174561428Y-83065714D01*
X174513809Y-83160952D01*
X174466190Y-83208571D01*
X174370952Y-83256190D01*
X173990000Y-83256190D01*
X175704285Y-82827619D02*
X175751904Y-82780000D01*
X175847142Y-82732380D01*
X176085238Y-82732380D01*
X176180476Y-82780000D01*
X176228095Y-82827619D01*
X176275714Y-82922857D01*
X176275714Y-83018095D01*
X176228095Y-83160952D01*
X175656666Y-83732380D01*
X176275714Y-83732380D01*
X176847142Y-83160952D02*
X176751904Y-83113333D01*
X176704285Y-83065714D01*
X176656666Y-82970476D01*
X176656666Y-82922857D01*
X176704285Y-82827619D01*
X176751904Y-82780000D01*
X176847142Y-82732380D01*
X177037619Y-82732380D01*
X177132857Y-82780000D01*
X177180476Y-82827619D01*
X177228095Y-82922857D01*
X177228095Y-82970476D01*
X177180476Y-83065714D01*
X177132857Y-83113333D01*
X177037619Y-83160952D01*
X176847142Y-83160952D01*
X176751904Y-83208571D01*
X176704285Y-83256190D01*
X176656666Y-83351428D01*
X176656666Y-83541904D01*
X176704285Y-83637142D01*
X176751904Y-83684761D01*
X176847142Y-83732380D01*
X177037619Y-83732380D01*
X177132857Y-83684761D01*
X177180476Y-83637142D01*
X177228095Y-83541904D01*
X177228095Y-83351428D01*
X177180476Y-83256190D01*
X177132857Y-83208571D01*
X177037619Y-83160952D01*
X177847142Y-82732380D02*
X177942380Y-82732380D01*
X178037619Y-82780000D01*
X178085238Y-82827619D01*
X178132857Y-82922857D01*
X178180476Y-83113333D01*
X178180476Y-83351428D01*
X178132857Y-83541904D01*
X178085238Y-83637142D01*
X178037619Y-83684761D01*
X177942380Y-83732380D01*
X177847142Y-83732380D01*
X177751904Y-83684761D01*
X177704285Y-83637142D01*
X177656666Y-83541904D01*
X177609047Y-83351428D01*
X177609047Y-83113333D01*
X177656666Y-82922857D01*
X177704285Y-82827619D01*
X177751904Y-82780000D01*
X177847142Y-82732380D01*
X174656666Y-79452380D02*
X174656666Y-80166666D01*
X174609047Y-80309523D01*
X174513809Y-80404761D01*
X174370952Y-80452380D01*
X174275714Y-80452380D01*
X175037619Y-79452380D02*
X175656666Y-79452380D01*
X175323333Y-79833333D01*
X175466190Y-79833333D01*
X175561428Y-79880952D01*
X175609047Y-79928571D01*
X175656666Y-80023809D01*
X175656666Y-80261904D01*
X175609047Y-80357142D01*
X175561428Y-80404761D01*
X175466190Y-80452380D01*
X175180476Y-80452380D01*
X175085238Y-80404761D01*
X175037619Y-80357142D01*
%TO.C,A1*%
X170402857Y-92866666D02*
X170879047Y-92866666D01*
X170307619Y-93152380D02*
X170640952Y-92152380D01*
X170974285Y-93152380D01*
X171307619Y-93152380D02*
X171307619Y-92485714D01*
X171307619Y-92676190D02*
X171355238Y-92580952D01*
X171402857Y-92533333D01*
X171498095Y-92485714D01*
X171593333Y-92485714D01*
X172355238Y-93152380D02*
X172355238Y-92152380D01*
X172355238Y-93104761D02*
X172260000Y-93152380D01*
X172069523Y-93152380D01*
X171974285Y-93104761D01*
X171926666Y-93057142D01*
X171879047Y-92961904D01*
X171879047Y-92676190D01*
X171926666Y-92580952D01*
X171974285Y-92533333D01*
X172069523Y-92485714D01*
X172260000Y-92485714D01*
X172355238Y-92533333D01*
X173260000Y-92485714D02*
X173260000Y-93152380D01*
X172831428Y-92485714D02*
X172831428Y-93009523D01*
X172879047Y-93104761D01*
X172974285Y-93152380D01*
X173117142Y-93152380D01*
X173212380Y-93104761D01*
X173260000Y-93057142D01*
X173736190Y-93152380D02*
X173736190Y-92485714D01*
X173736190Y-92152380D02*
X173688571Y-92200000D01*
X173736190Y-92247619D01*
X173783809Y-92200000D01*
X173736190Y-92152380D01*
X173736190Y-92247619D01*
X174212380Y-92485714D02*
X174212380Y-93152380D01*
X174212380Y-92580952D02*
X174260000Y-92533333D01*
X174355238Y-92485714D01*
X174498095Y-92485714D01*
X174593333Y-92533333D01*
X174640952Y-92628571D01*
X174640952Y-93152380D01*
X175260000Y-93152380D02*
X175164761Y-93104761D01*
X175117142Y-93057142D01*
X175069523Y-92961904D01*
X175069523Y-92676190D01*
X175117142Y-92580952D01*
X175164761Y-92533333D01*
X175260000Y-92485714D01*
X175402857Y-92485714D01*
X175498095Y-92533333D01*
X175545714Y-92580952D01*
X175593333Y-92676190D01*
X175593333Y-92961904D01*
X175545714Y-93057142D01*
X175498095Y-93104761D01*
X175402857Y-93152380D01*
X175260000Y-93152380D01*
X176783809Y-93152380D02*
X176783809Y-92152380D01*
X177355238Y-93152380D01*
X177355238Y-92152380D01*
X178260000Y-93152380D02*
X178260000Y-92628571D01*
X178212380Y-92533333D01*
X178117142Y-92485714D01*
X177926666Y-92485714D01*
X177831428Y-92533333D01*
X178260000Y-93104761D02*
X178164761Y-93152380D01*
X177926666Y-93152380D01*
X177831428Y-93104761D01*
X177783809Y-93009523D01*
X177783809Y-92914285D01*
X177831428Y-92819047D01*
X177926666Y-92771428D01*
X178164761Y-92771428D01*
X178260000Y-92723809D01*
X178736190Y-92485714D02*
X178736190Y-93152380D01*
X178736190Y-92580952D02*
X178783809Y-92533333D01*
X178879047Y-92485714D01*
X179021904Y-92485714D01*
X179117142Y-92533333D01*
X179164761Y-92628571D01*
X179164761Y-93152380D01*
X179783809Y-93152380D02*
X179688571Y-93104761D01*
X179640952Y-93057142D01*
X179593333Y-92961904D01*
X179593333Y-92676190D01*
X179640952Y-92580952D01*
X179688571Y-92533333D01*
X179783809Y-92485714D01*
X179926666Y-92485714D01*
X180021904Y-92533333D01*
X180069523Y-92580952D01*
X180117142Y-92676190D01*
X180117142Y-92961904D01*
X180069523Y-93057142D01*
X180021904Y-93104761D01*
X179926666Y-93152380D01*
X179783809Y-93152380D01*
D11*
%TO.C,Pyro 2*%
X164900000Y-67750000D02*
X164900000Y-64000000D01*
X162100000Y-64000000D02*
X162100000Y-67750000D01*
X164900000Y-64000000D02*
X162100000Y-64000000D01*
X162100000Y-67750000D02*
X164900000Y-67750000D01*
X157750000Y-69600000D02*
X157750000Y-63300000D01*
X165750000Y-63300000D02*
X165750000Y-71600000D01*
X157750000Y-63300000D02*
X165750000Y-63300000D01*
X159750000Y-71600000D02*
X157750000Y-69600000D01*
X165750000Y-71600000D02*
X159750000Y-71600000D01*
X158600000Y-67750000D02*
X161400000Y-67750000D01*
X161400000Y-64000000D02*
X158600000Y-64000000D01*
X161400000Y-67750000D02*
X161400000Y-64000000D01*
X157750000Y-68100000D02*
X165750000Y-68100000D01*
X158600000Y-64000000D02*
X158600000Y-67750000D01*
X164500000Y-65400000D02*
G75*
G03*
X164500000Y-65400000I-1000000J0D01*
G01*
X161000000Y-65400000D02*
G75*
G03*
X161000000Y-65400000I-1000000J0D01*
G01*
%TO.C,Master ARM*%
X154270000Y-107730000D02*
X154270000Y-112810000D01*
X151730000Y-108365000D02*
X152365000Y-107730000D01*
X154270000Y-112810000D02*
X151730000Y-112810000D01*
X151730000Y-112810000D02*
X151730000Y-108365000D01*
X152365000Y-107730000D02*
X154270000Y-107730000D01*
%TO.C,BZ1*%
X193300000Y-112000000D02*
X193300000Y-110000000D01*
X190500000Y-111000000D02*
G75*
G03*
X190500000Y-111000000I-1000000J0D01*
G01*
X195600000Y-111000000D02*
G75*
G03*
X195600000Y-111000000I-6100000J0D01*
G01*
%TO.C,J3*%
X169910000Y-81270000D02*
X169910000Y-78730000D01*
X180070000Y-81270000D02*
X169910000Y-81270000D01*
X169910000Y-78730000D02*
X179435000Y-78730000D01*
X179435000Y-78730000D02*
X180070000Y-79365000D01*
X180070000Y-79365000D02*
X180070000Y-81270000D01*
%TO.C,GND*%
X179330000Y-107365000D02*
X179965000Y-106730000D01*
X179330000Y-116890000D02*
X179330000Y-107365000D01*
X181870000Y-106730000D02*
X181870000Y-116890000D01*
X179965000Y-106730000D02*
X181870000Y-106730000D01*
X181870000Y-116890000D02*
X179330000Y-116890000D01*
%TO.C,A1*%
X187960000Y-97780000D02*
X187960000Y-90160000D01*
X152400000Y-101590000D02*
X152400000Y-85080000D01*
X195580000Y-85080000D02*
X195580000Y-102860000D01*
X198120000Y-97780000D02*
X187960000Y-97780000D01*
X195580000Y-102860000D02*
X153670000Y-102860000D01*
X187960000Y-90160000D02*
X198120000Y-90160000D01*
X153670000Y-102860000D02*
X152400000Y-101590000D01*
X198120000Y-90160000D02*
X198120000Y-97780000D01*
X152400000Y-85080000D02*
X195580000Y-85080000D01*
%TO.C,P1 Arm*%
X194730000Y-68190000D02*
X197270000Y-68190000D01*
X196635000Y-73270000D02*
X194730000Y-73270000D01*
X197270000Y-68190000D02*
X197270000Y-72635000D01*
X197270000Y-72635000D02*
X196635000Y-73270000D01*
X194730000Y-73270000D02*
X194730000Y-68190000D01*
%TO.C,V+*%
X176530000Y-107365000D02*
X177165000Y-106730000D01*
X179070000Y-116890000D02*
X176530000Y-116890000D01*
X177165000Y-106730000D02*
X179070000Y-106730000D01*
X179070000Y-106730000D02*
X179070000Y-116890000D01*
X176530000Y-116890000D02*
X176530000Y-107365000D01*
%TO.C,Pyro 1*%
X191150000Y-64000000D02*
X188350000Y-64000000D01*
X187650000Y-67750000D02*
X187650000Y-64000000D01*
X184000000Y-68100000D02*
X192000000Y-68100000D01*
X184850000Y-64000000D02*
X184850000Y-67750000D01*
X187650000Y-64000000D02*
X184850000Y-64000000D01*
X188350000Y-67750000D02*
X191150000Y-67750000D01*
X186000000Y-71600000D02*
X184000000Y-69600000D01*
X192000000Y-63300000D02*
X192000000Y-71600000D01*
X184000000Y-63300000D02*
X192000000Y-63300000D01*
X191150000Y-67750000D02*
X191150000Y-64000000D01*
X184000000Y-69600000D02*
X184000000Y-63300000D01*
X184850000Y-67750000D02*
X187650000Y-67750000D01*
X192000000Y-71600000D02*
X186000000Y-71600000D01*
X188350000Y-64000000D02*
X188350000Y-67750000D01*
X187250000Y-65400000D02*
G75*
G03*
X187250000Y-65400000I-1000000J0D01*
G01*
X190750000Y-65400000D02*
G75*
G03*
X190750000Y-65400000I-1000000J0D01*
G01*
%TO.C,Power in*%
X157660000Y-111705000D02*
X157660000Y-115455000D01*
X160460000Y-111705000D02*
X157660000Y-111705000D01*
X161160000Y-115455000D02*
X163960000Y-115455000D01*
X164810000Y-109855000D02*
X164810000Y-116155000D01*
X162810000Y-107855000D02*
X164810000Y-109855000D01*
X157660000Y-115455000D02*
X160460000Y-115455000D01*
X164810000Y-116155000D02*
X156810000Y-116155000D01*
X161160000Y-111705000D02*
X161160000Y-115455000D01*
X164810000Y-111355000D02*
X156810000Y-111355000D01*
X163960000Y-111705000D02*
X161160000Y-111705000D01*
X160460000Y-115455000D02*
X160460000Y-111705000D01*
X156810000Y-116155000D02*
X156810000Y-107855000D01*
X156810000Y-107855000D02*
X162810000Y-107855000D01*
X163960000Y-115455000D02*
X163960000Y-111705000D01*
X163560000Y-114055000D02*
G75*
G03*
X163560000Y-114055000I-1000000J0D01*
G01*
X160060000Y-114055000D02*
G75*
G03*
X160060000Y-114055000I-1000000J0D01*
G01*
%TO.C,P2 Arm*%
X152730000Y-73270000D02*
X152730000Y-68190000D01*
X155270000Y-68190000D02*
X155270000Y-72635000D01*
X152730000Y-68190000D02*
X155270000Y-68190000D01*
X154635000Y-73270000D02*
X152730000Y-73270000D01*
X155270000Y-72635000D02*
X154635000Y-73270000D01*
%TO.C,SIG*%
X174365000Y-106730000D02*
X176270000Y-106730000D01*
X173730000Y-116890000D02*
X173730000Y-107365000D01*
X173730000Y-107365000D02*
X174365000Y-106730000D01*
X176270000Y-106730000D02*
X176270000Y-116890000D01*
X176270000Y-116890000D02*
X173730000Y-116890000D01*
%TD*%
M02*
